<?xml version="1.0" encoding="UTF-8" standalone="no" ?>
<!DOCTYPE svg PUBLIC "-//W3C//DTD SVG 1.1//EN" "http://www.w3.org/Graphics/SVG/1.1/DTD/svg11.dtd">
<svg xmlns="http://www.w3.org/2000/svg" xmlns:xlink="http://www.w3.org/1999/xlink" version="1.1" width="1080" height="1080" viewBox="0 0 1080 1080" xml:space="preserve">
<desc>Created with Fabric.js 5.2.4</desc>
<defs>
</defs>
<g transform="matrix(1 0 0 1 540 540)" id="fb799960-0199-46a1-a885-a04d53eb79c7"  >
<rect style="stroke: none; stroke-width: 1; stroke-dasharray: none; stroke-linecap: butt; stroke-dashoffset: 0; stroke-linejoin: miter; stroke-miterlimit: 4; fill: rgb(255,255,255); fill-rule: nonzero; opacity: 1; visibility: hidden;" vector-effect="non-scaling-stroke"  x="-540" y="-540" rx="0" ry="0" width="1080" height="1080" />
</g>
<g transform="matrix(1 0 0 1 540 540)" id="5e4360a2-df18-4959-a91c-a4c3cf6afff7"  >
</g>
<g transform="matrix(8.44 0 0 8.44 540 540)"  >
<g style=""   >
		<g transform="matrix(1 0 0 1 -0.1 -15.2)"  >
<path style="stroke: none; stroke-width: 1; stroke-dasharray: none; stroke-linecap: butt; stroke-dashoffset: 0; stroke-linejoin: miter; stroke-miterlimit: 4; fill: rgb(101,154,211); fill-rule: nonzero; opacity: 1;" vector-effect="non-scaling-stroke"  transform=" translate(-63.9, -48.8)" d="M 115.4 30.7 L 67.1 2.9 C 66.3 2.4 65.19999999999999 2.2 63.99999999999999 2.2 C 62.79999999999999 2.2 61.699999999999996 2.5 60.89999999999999 2.9000000000000004 L 12.899999999999991 30.799999999999997 C 11.199999999999992 31.799999999999997 9.999999999999991 34.3 9.999999999999991 36.199999999999996 L 9.999999999999991 91.9 C 9.999999999999991 93 10.19999999999999 94.30000000000001 10.999999999999991 95.4 L 117.79999999999998 33.400000000000006 C 117.19999999999999 32.2 116.29999999999998 31.300000000000004 115.39999999999998 30.700000000000006 z" stroke-linecap="round" />
</g>
		<g transform="matrix(1 0 0 1 0.3 15.55)"  >
<path style="stroke: none; stroke-width: 1; stroke-dasharray: none; stroke-linecap: butt; stroke-dashoffset: 0; stroke-linejoin: miter; stroke-miterlimit: 4; fill: rgb(3,89,156); fill-rule: nonzero; opacity: 1;" vector-effect="non-scaling-stroke"  transform=" translate(-64.3, -79.55)" d="M 10.7 95.3 C 11.2 96.1 11.899999999999999 96.8 12.6 97.2 L 60.800000000000004 125.1 C 61.6 125.6 62.7 125.8 63.900000000000006 125.8 C 65.10000000000001 125.8 66.2 125.5 67 125.1 L 115 97.19999999999999 C 116.7 96.19999999999999 117.9 93.69999999999999 117.9 91.79999999999998 L 117.9 36.1 C 117.9 35.2 117.80000000000001 34.2 117.30000000000001 33.300000000000004 L 10.700000000000017 95.30000000000001 z" stroke-linecap="round" />
</g>
		<g transform="matrix(1 0 0 1 -2.6 0)"  >
<path style="stroke: none; stroke-width: 1; stroke-dasharray: none; stroke-linecap: butt; stroke-dashoffset: 0; stroke-linejoin: miter; stroke-miterlimit: 4; fill: rgb(255,255,255); fill-rule: nonzero; opacity: 1;" vector-effect="non-scaling-stroke"  transform=" translate(-61.4, -64)" d="M 85.3 76.1 C 81.1 83.5 73.1 88.5 64 88.5 C 50.5 88.5 39.5 77.5 39.5 64 C 39.5 50.5 50.5 39.5 64 39.5 C 73.1 39.5 81.1 44.5 85.3 52 L 98.3 44.5 C 91.5 32.6 78.69999999999999 24.5 64 24.5 C 42.2 24.5 24.5 42.2 24.5 64 C 24.5 85.8 42.2 103.5 64 103.5 C 78.6 103.5 91.4 95.5 98.2 83.7 L 85.3 76.10000000000001 z" stroke-linecap="round" />
</g>
</g>
</g>
</svg>