<?xml version="1.0" encoding="UTF-8" standalone="no" ?>
<!DOCTYPE svg PUBLIC "-//W3C//DTD SVG 1.1//EN" "http://www.w3.org/Graphics/SVG/1.1/DTD/svg11.dtd">
<svg xmlns="http://www.w3.org/2000/svg" xmlns:xlink="http://www.w3.org/1999/xlink" version="1.1" width="1080" height="1080" viewBox="0 0 1080 1080" xml:space="preserve">
<desc>Created with Fabric.js 5.2.4</desc>
<defs>
</defs>
<g transform="matrix(1 0 0 1 540 540)" id="335c8ca8-4c8b-4531-a3ea-e53c25b238c5"  >
<rect style="stroke: none; stroke-width: 1; stroke-dasharray: none; stroke-linecap: butt; stroke-dashoffset: 0; stroke-linejoin: miter; stroke-miterlimit: 4; fill: rgb(255,255,255); fill-rule: nonzero; opacity: 1; visibility: hidden;" vector-effect="non-scaling-stroke"  x="-540" y="-540" rx="0" ry="0" width="1080" height="1080" />
</g>
<g transform="matrix(1 0 0 1 540 540)" id="940a12a3-059e-4d62-b7fe-9d3ec709659c"  >
</g>
<g transform="matrix(8.44 0 0 8.44 540 540)"  >
<g style=""   >
		<g transform="matrix(1 0 0 1 7.72 -0.05)"  >
<path style="stroke: none; stroke-width: 1; stroke-dasharray: none; stroke-linecap: butt; stroke-dashoffset: 0; stroke-linejoin: miter; stroke-miterlimit: 4; fill: rgb(58,77,84); fill-rule: evenodd; opacity: 1;" vector-effect="non-scaling-stroke"  transform=" translate(-71.72, -63.95)" d="M 73.8 50.8 L 85.1 50.8 L 85.1 62.3 L 90.8 62.3 C 93.39999999999999 62.3 96.1 61.8 98.6 61 C 99.8 60.6 101.19999999999999 60 102.39999999999999 59.3 C 100.8 57.199999999999996 99.99999999999999 54.599999999999994 99.8 52 C 99.5 48.5 100.2 43.9 102.6 41.2 L 103.8 39.800000000000004 L 105.2 40.900000000000006 C 108.8 43.800000000000004 111.7 47.7 112.3 52.300000000000004 C 116.6 51.00000000000001 121.6 51.300000000000004 125.39999999999999 53.50000000000001 L 126.89999999999999 54.400000000000006 L 126.1 56.00000000000001 C 122.89999999999999 62.20000000000001 116.19999999999999 64.2 109.69999999999999 63.800000000000004 C 99.89999999999999 88.10000000000001 78.69999999999999 99.6 52.89999999999999 99.6 C 39.599999999999994 99.6 27.39999999999999 94.6 20.39999999999999 82.8 L 20.29999999999999 82.6 L 19.29999999999999 80.5 C 16.89999999999999 75.3 16.19999999999999 69.6 16.69999999999999 63.9 L 16.899999999999988 62.199999999999996 L 26.499999999999986 62.199999999999996 L 26.499999999999986 50.8 L 37.79999999999998 50.8 L 37.79999999999998 39.6 L 60.29999999999998 39.6 L 60.29999999999998 28.3 L 73.79999999999998 28.3 L 73.79999999999998 50.8 z" stroke-linecap="round" />
</g>
		<g transform="matrix(1 0 0 1 7.37 6.1)"  >
<path style="stroke: none; stroke-width: 1; stroke-dasharray: none; stroke-linecap: butt; stroke-dashoffset: 0; stroke-linejoin: miter; stroke-miterlimit: 4; fill: rgb(0,170,218); fill-rule: nonzero; opacity: 1;" vector-effect="non-scaling-stroke"  transform=" translate(-71.37, -70.1)" d="M 110.4 55.1 C 111.2 49.2 106.80000000000001 44.6 104 42.400000000000006 C 100.9 46.00000000000001 100.4 55.60000000000001 105.3 59.60000000000001 C 102.5 62.00000000000001 96.8 64.30000000000001 90.8 64.30000000000001 L 18.6 64.30000000000001 C 18 70.50000000000001 19.1 76.20000000000002 21.6 81.10000000000001 L 22.400000000000002 82.60000000000001 C 22.900000000000002 83.50000000000001 23.500000000000004 84.30000000000001 24.1 85.2 C 27.1 85.4 29.8 85.5 32.3 85.4 C 37.199999999999996 85.30000000000001 41.199999999999996 84.7 44.3 83.7 C 44.8 83.5 45.199999999999996 83.8 45.4 84.2 C 45.6 84.7 45.3 85.10000000000001 44.9 85.3 C 44.5 85.39999999999999 44.1 85.6 43.6 85.7 C 41.2 86.4 38.6 86.8 35.3 87 L 34.699999999999996 87 C 33.4 87.1 31.999999999999996 87.1 30.499999999999996 87.1 C 28.899999999999995 87.1 27.399999999999995 87.1 25.599999999999994 87 C 31.599999999999994 93.8 40.99999999999999 97.8 52.8 97.8 C 77.8 97.8 99 86.7 108.3 61.9 C 115 62.6 121.39999999999999 60.9 124.3 55.199999999999996 C 119.8 52.49999999999999 113.8 53.4 110.39999999999999 55.099999999999994 z" stroke-linecap="round" />
</g>
		<g transform="matrix(1 0 0 1 2.84 2.22)"  >
<path style="stroke: none; stroke-width: 1; stroke-dasharray: none; stroke-linecap: butt; stroke-dashoffset: 0; stroke-linejoin: miter; stroke-miterlimit: 4; fill: rgb(40,184,235); fill-rule: nonzero; opacity: 1;" vector-effect="non-scaling-stroke"  transform=" translate(-66.84, -66.22)" d="M 110.4 55.1 C 111.2 49.2 106.80000000000001 44.6 104 42.400000000000006 C 100.9 46.00000000000001 100.4 55.60000000000001 105.3 59.60000000000001 C 102.5 62.00000000000001 96.8 64.30000000000001 90.8 64.30000000000001 L 22.799999999999997 64.30000000000001 C 22.499999999999996 73.80000000000001 25.999999999999996 81.00000000000001 32.3 85.30000000000001 C 37.199999999999996 85.20000000000002 41.199999999999996 84.60000000000001 44.3 83.60000000000001 C 44.8 83.4 45.199999999999996 83.7 45.4 84.10000000000001 C 45.6 84.60000000000001 45.3 85.00000000000001 44.9 85.2 C 44.5 85.3 44.1 85.5 43.6 85.60000000000001 C 41.2 86.30000000000001 38.4 86.80000000000001 35.1 87.00000000000001 L 35 86.90000000000002 C 43.5 91.30000000000003 55.8 91.20000000000002 70 85.80000000000003 C 85.8 79.70000000000003 100.6 68.10000000000002 110.9 54.90000000000003 C 110.7 55.00000000000003 110.5 55.00000000000003 110.4 55.10000000000003 z" stroke-linecap="round" />
</g>
		<g transform="matrix(1 0 0 1 -2.75 20.85)"  >
<path style="stroke: none; stroke-width: 1; stroke-dasharray: none; stroke-linecap: butt; stroke-dashoffset: 0; stroke-linejoin: miter; stroke-miterlimit: 4; fill: rgb(2,139,184); fill-rule: nonzero; opacity: 1;" vector-effect="non-scaling-stroke"  transform=" translate(-61.25, -84.85)" d="M 18.7 71.8 C 19.099999999999998 75.1 20.099999999999998 78.2 21.599999999999998 81.1 L 22.4 82.6 C 22.9 83.5 23.5 84.3 24.099999999999998 85.19999999999999 C 27.099999999999998 85.39999999999999 29.799999999999997 85.49999999999999 32.3 85.39999999999999 C 37.199999999999996 85.3 41.199999999999996 84.69999999999999 44.3 83.69999999999999 C 44.8 83.49999999999999 45.199999999999996 83.79999999999998 45.4 84.19999999999999 C 45.6 84.69999999999999 45.3 85.1 44.9 85.29999999999998 C 44.5 85.39999999999998 44.1 85.59999999999998 43.6 85.69999999999999 C 41.2 86.39999999999999 38.4 86.89999999999999 35.1 87.1 L 34.7 87.1 C 33.400000000000006 87.19999999999999 32 87.19999999999999 30.6 87.19999999999999 C 29 87.19999999999999 27.400000000000002 87.19999999999999 25.700000000000003 87.1 C 31.700000000000003 93.89999999999999 41.2 97.89999999999999 53 97.89999999999999 C 74.4 97.89999999999999 93 89.8 103.8 71.89999999999999 L 18.7 71.89999999999999 L 18.7 71.8 z" stroke-linecap="round" />
</g>
		<g transform="matrix(1 0 0 1 -5.2 16.97)"  >
<path style="stroke: none; stroke-width: 1; stroke-dasharray: none; stroke-linecap: butt; stroke-dashoffset: 0; stroke-linejoin: miter; stroke-miterlimit: 4; fill: rgb(1,155,198); fill-rule: nonzero; opacity: 1;" vector-effect="non-scaling-stroke"  transform=" translate(-58.8, -80.97)" d="M 23.5 71.8 C 24.8 77.6 27.8 82.2 32.3 85.3 C 37.199999999999996 85.2 41.199999999999996 84.6 44.3 83.6 C 44.8 83.39999999999999 45.199999999999996 83.69999999999999 45.4 84.1 C 45.6 84.6 45.3 85 44.9 85.19999999999999 C 44.5 85.29999999999998 44.1 85.49999999999999 43.6 85.6 C 41.2 86.3 38.4 86.8 35 87 C 43.5 91.4 55.8 91.3 69.9 85.9 C 78.4 82.60000000000001 86.7 77.7 94.10000000000001 71.80000000000001 L 23.5 71.80000000000001 z" stroke-linecap="round" />
</g>
		<g transform="matrix(1 0 0 1 -25.1 -12)"  >
<path style="stroke: none; stroke-width: 1; stroke-dasharray: none; stroke-linecap: butt; stroke-dashoffset: 0; stroke-linejoin: miter; stroke-miterlimit: 4; fill: rgb(0,172,211); fill-rule: evenodd; opacity: 1;" vector-effect="non-scaling-stroke"  transform=" translate(-38.9, -52)" d="M 28.4 52.7 L 38.2 52.7 L 38.2 62.5 L 28.400000000000002 62.5 L 28.400000000000002 52.7 z M 29.2 53.5 L 30 53.5 L 30 61.6 L 29.2 61.6 L 29.2 53.5 z M 30.599999999999998 53.5 L 31.4 53.5 L 31.4 61.6 L 30.599999999999998 61.6 L 30.599999999999998 53.5 z M 32.099999999999994 53.5 L 32.89999999999999 53.5 L 32.89999999999999 61.6 L 32.099999999999994 61.6 L 32.099999999999994 53.5 z M 33.599999999999994 53.5 L 34.39999999999999 53.5 L 34.39999999999999 61.6 L 33.599999999999994 61.6 L 33.599999999999994 53.5 z M 35.099999999999994 53.5 L 35.89999999999999 53.5 L 35.89999999999999 61.6 L 35.099999999999994 61.6 L 35.099999999999994 53.5 z M 36.599999999999994 53.5 L 37.39999999999999 53.5 L 37.39999999999999 61.6 L 36.599999999999994 61.6 L 36.599999999999994 53.5 z M 39.599999999999994 41.5 L 49.39999999999999 41.5 L 49.39999999999999 51.3 L 39.599999999999994 51.3 L 39.599999999999994 41.5 z M 40.49999999999999 42.3 L 41.29999999999999 42.3 L 41.29999999999999 50.4 L 40.49999999999999 50.4 L 40.49999999999999 42.3 z M 41.89999999999999 42.3 L 42.69999999999999 42.3 L 42.69999999999999 50.4 L 41.89999999999999 50.4 L 41.89999999999999 42.3 z M 43.39999999999999 42.3 L 44.19999999999999 42.3 L 44.19999999999999 50.4 L 43.39999999999999 50.4 L 43.39999999999999 42.3 z M 44.89999999999999 42.3 L 45.69999999999999 42.3 L 45.69999999999999 50.4 L 44.89999999999999 50.4 L 44.89999999999999 42.3 z M 46.29999999999999 42.3 L 47.09999999999999 42.3 L 47.09999999999999 50.4 L 46.29999999999999 50.4 L 46.29999999999999 42.3 z M 47.79999999999999 42.3 L 48.59999999999999 42.3 L 48.59999999999999 50.4 L 47.79999999999999 50.4 L 47.79999999999999 42.3 z" stroke-linecap="round" />
</g>
		<g transform="matrix(1 0 0 1 -19.5 -6.4)"  >
<path style="stroke: none; stroke-width: 1; stroke-dasharray: none; stroke-linecap: butt; stroke-dashoffset: 0; stroke-linejoin: miter; stroke-miterlimit: 4; fill: rgb(35,194,238); fill-rule: evenodd; opacity: 1;" vector-effect="non-scaling-stroke"  transform=" translate(-44.5, -57.6)" d="M 39.6 52.7 L 49.400000000000006 52.7 L 49.400000000000006 62.5 L 39.60000000000001 62.5 L 39.60000000000001 52.7 z M 40.5 53.5 L 41.3 53.5 L 41.3 61.6 L 40.5 61.6 L 40.5 53.5 z M 41.9 53.5 L 42.699999999999996 53.5 L 42.699999999999996 61.6 L 41.9 61.6 L 41.9 53.5 z M 43.4 53.5 L 44.199999999999996 53.5 L 44.199999999999996 61.6 L 43.4 61.6 L 43.4 53.5 z M 44.9 53.5 L 45.699999999999996 53.5 L 45.699999999999996 61.6 L 44.9 61.6 L 44.9 53.5 z M 46.3 53.5 L 47.099999999999994 53.5 L 47.099999999999994 61.6 L 46.3 61.6 L 46.3 53.5 z M 47.8 53.5 L 48.599999999999994 53.5 L 48.599999999999994 61.6 L 47.8 61.6 L 47.8 53.5 z" stroke-linecap="round" />
</g>
		<g transform="matrix(1 0 0 1 -8.2 -6.4)"  >
<path style="stroke: none; stroke-width: 1; stroke-dasharray: none; stroke-linecap: butt; stroke-dashoffset: 0; stroke-linejoin: miter; stroke-miterlimit: 4; fill: rgb(0,172,211); fill-rule: evenodd; opacity: 1;" vector-effect="non-scaling-stroke"  transform=" translate(-55.8, -57.6)" d="M 50.9 52.7 L 60.7 52.7 L 60.7 62.5 L 50.900000000000006 62.5 L 50.900000000000006 52.7 z M 51.699999999999996 53.5 L 52.49999999999999 53.5 L 52.49999999999999 61.6 L 51.699999999999996 61.6 L 51.699999999999996 53.5 z M 53.199999999999996 53.5 L 53.99999999999999 53.5 L 53.99999999999999 61.6 L 53.199999999999996 61.6 L 53.199999999999996 53.5 z M 54.699999999999996 53.5 L 55.49999999999999 53.5 L 55.49999999999999 61.6 L 54.699999999999996 61.6 L 54.699999999999996 53.5 z M 56.099999999999994 53.5 L 56.89999999999999 53.5 L 56.89999999999999 61.6 L 56.099999999999994 61.6 L 56.099999999999994 53.5 z M 57.599999999999994 53.5 L 58.39999999999999 53.5 L 58.39999999999999 61.6 L 57.599999999999994 61.6 L 57.599999999999994 53.5 z M 59.099999999999994 53.5 L 59.89999999999999 53.5 L 59.89999999999999 61.6 L 59.099999999999994 61.6 L 59.099999999999994 53.5 z" stroke-linecap="round" />
</g>
		<g transform="matrix(1 0 0 1 -2.55 -12)"  >
<path style="stroke: none; stroke-width: 1; stroke-dasharray: none; stroke-linecap: butt; stroke-dashoffset: 0; stroke-linejoin: miter; stroke-miterlimit: 4; fill: rgb(35,194,238); fill-rule: evenodd; opacity: 1;" vector-effect="non-scaling-stroke"  transform=" translate(-61.45, -52)" d="M 50.9 41.5 L 60.7 41.5 L 60.7 51.3 L 50.900000000000006 51.3 L 50.900000000000006 41.5 z M 51.699999999999996 42.3 L 52.49999999999999 42.3 L 52.49999999999999 50.4 L 51.699999999999996 50.4 L 51.699999999999996 42.3 z M 53.199999999999996 42.3 L 53.99999999999999 42.3 L 53.99999999999999 50.4 L 53.199999999999996 50.4 L 53.199999999999996 42.3 z M 54.699999999999996 42.3 L 55.49999999999999 42.3 L 55.49999999999999 50.4 L 54.699999999999996 50.4 L 54.699999999999996 42.3 z M 56.099999999999994 42.3 L 56.89999999999999 42.3 L 56.89999999999999 50.4 L 56.099999999999994 50.4 L 56.099999999999994 42.3 z M 57.599999999999994 42.3 L 58.39999999999999 42.3 L 58.39999999999999 50.4 L 57.599999999999994 50.4 L 57.599999999999994 42.3 z M 59.099999999999994 42.3 L 59.89999999999999 42.3 L 59.89999999999999 50.4 L 59.099999999999994 50.4 L 59.099999999999994 42.3 z M 62.199999999999996 52.699999999999996 L 72 52.699999999999996 L 72 62.5 L 62.2 62.5 L 62.2 52.7 z M 62.99999999999999 53.49999999999999 L 63.79999999999999 53.49999999999999 L 63.79999999999999 61.599999999999994 L 63 61.599999999999994 L 63 53.49999999999999 z M 64.5 53.49999999999999 L 65.3 53.49999999999999 L 65.3 61.599999999999994 L 64.5 61.599999999999994 L 64.5 53.49999999999999 z M 65.9 53.49999999999999 L 66.7 53.49999999999999 L 66.7 61.599999999999994 L 65.9 61.599999999999994 L 65.9 53.49999999999999 z M 67.4 53.49999999999999 L 68.2 53.49999999999999 L 68.2 61.599999999999994 L 67.4 61.599999999999994 L 67.4 53.49999999999999 z M 68.9 53.49999999999999 L 69.7 53.49999999999999 L 69.7 61.599999999999994 L 68.9 61.599999999999994 L 68.9 53.49999999999999 z M 70.4 53.49999999999999 L 71.2 53.49999999999999 L 71.2 61.599999999999994 L 70.4 61.599999999999994 L 70.4 53.49999999999999 z" stroke-linecap="round" />
</g>
		<g transform="matrix(1 0 0 1 3.1 -17.6)"  >
<path style="stroke: none; stroke-width: 1; stroke-dasharray: none; stroke-linecap: butt; stroke-dashoffset: 0; stroke-linejoin: miter; stroke-miterlimit: 4; fill: rgb(0,172,211); fill-rule: evenodd; opacity: 1;" vector-effect="non-scaling-stroke"  transform=" translate(-67.1, -46.4)" d="M 62.2 41.5 L 72 41.5 L 72 51.3 L 62.2 51.3 L 62.2 41.5 z M 63 42.3 L 63.8 42.3 L 63.8 50.4 L 63 50.4 L 63 42.3 z M 64.5 42.3 L 65.3 42.3 L 65.3 50.4 L 64.5 50.4 L 64.5 42.3 z M 65.9 42.3 L 66.7 42.3 L 66.7 50.4 L 65.9 50.4 L 65.9 42.3 z M 67.4 42.3 L 68.2 42.3 L 68.2 50.4 L 67.4 50.4 L 67.4 42.3 z M 68.9 42.3 L 69.7 42.3 L 69.7 50.4 L 68.9 50.4 L 68.9 42.3 z M 70.4 42.3 L 71.2 42.3 L 71.2 50.4 L 70.4 50.4 L 70.4 42.3 z" stroke-linecap="round" />
</g>
		<g transform="matrix(1 0 0 1 3.1 -28.9)"  >
<path style="stroke: none; stroke-width: 1; stroke-dasharray: none; stroke-linecap: butt; stroke-dashoffset: 0; stroke-linejoin: miter; stroke-miterlimit: 4; fill: rgb(35,194,238); fill-rule: evenodd; opacity: 1;" vector-effect="non-scaling-stroke"  transform=" translate(-67.1, -35.1)" d="M 62.2 30.2 L 72 30.2 L 72 40 L 62.2 40 L 62.2 30.2 z M 63 31 L 63.8 31 L 63.8 39.1 L 63 39.1 L 63 31 z M 64.5 31 L 65.3 31 L 65.3 39.1 L 64.5 39.1 L 64.5 31 z M 65.9 31 L 66.7 31 L 66.7 39.1 L 65.9 39.1 L 65.9 31 z M 67.4 31 L 68.2 31 L 68.2 39.1 L 67.4 39.1 L 67.4 31 z M 68.9 31 L 69.7 31 L 69.7 39.1 L 68.9 39.1 L 68.9 31 z M 70.4 31 L 71.2 31 L 71.2 39.1 L 70.4 39.1 L 70.4 31 z" stroke-linecap="round" />
</g>
		<g transform="matrix(1 0 0 1 14.4 -6.4)"  >
<path style="stroke: none; stroke-width: 1; stroke-dasharray: none; stroke-linecap: butt; stroke-dashoffset: 0; stroke-linejoin: miter; stroke-miterlimit: 4; fill: rgb(0,172,211); fill-rule: evenodd; opacity: 1;" vector-effect="non-scaling-stroke"  transform=" translate(-78.4, -57.6)" d="M 73.5 52.7 L 83.3 52.7 L 83.3 62.5 L 73.5 62.5 L 73.5 52.7 z M 74.3 53.5 L 75.1 53.5 L 75.1 61.6 L 74.3 61.6 L 74.3 53.5 z M 75.7 53.5 L 76.5 53.5 L 76.5 61.6 L 75.7 61.6 L 75.7 53.5 z M 77.2 53.5 L 78 53.5 L 78 61.6 L 77.2 61.6 L 77.2 53.5 z M 78.7 53.5 L 79.5 53.5 L 79.5 61.6 L 78.7 61.6 L 78.7 53.5 z M 80.2 53.5 L 81 53.5 L 81 61.6 L 80.2 61.6 L 80.2 53.5 z M 81.7 53.5 L 82.5 53.5 L 82.5 61.6 L 81.7 61.6 L 81.7 53.5 z" stroke-linecap="round" />
</g>
		<g transform="matrix(1 0 0 1 -15.2 17)"  >
<path style="stroke: none; stroke-width: 1; stroke-dasharray: none; stroke-linecap: butt; stroke-dashoffset: 0; stroke-linejoin: miter; stroke-miterlimit: 4; fill: rgb(212,238,241); fill-rule: evenodd; opacity: 1;" vector-effect="non-scaling-stroke"  transform=" translate(-48.8, -81)" d="M 48.8 78.3 C 50.3 78.3 51.5 79.5 51.5 81 C 51.5 82.5 50.3 83.7 48.8 83.7 C 47.3 83.7 46.099999999999994 82.5 46.099999999999994 81 C 46.099999999999994 79.5 47.3 78.3 48.8 78.3" stroke-linecap="round" />
</g>
		<g transform="matrix(1 0 0 1 -0.2 11.25)"  >
<path style="stroke: none; stroke-width: 1; stroke-dasharray: none; stroke-linecap: butt; stroke-dashoffset: 0; stroke-linejoin: miter; stroke-miterlimit: 4; fill: rgb(58,77,84); fill-rule: evenodd; opacity: 1;" vector-effect="non-scaling-stroke"  transform=" translate(-63.8, -75.25)" d="M 48.8 79.1 C 49 79.1 49.3 79.1 49.5 79.19999999999999 C 49.3 79.29999999999998 49.1 79.6 49.1 79.89999999999999 C 49.1 80.3 49.5 80.69999999999999 49.9 80.69999999999999 C 50.199999999999996 80.69999999999999 50.5 80.49999999999999 50.6 80.29999999999998 C 50.7 80.49999999999999 50.7 80.79999999999998 50.7 80.99999999999999 C 50.7 82.09999999999998 49.800000000000004 82.89999999999999 48.800000000000004 82.89999999999999 C 47.7 82.89999999999999 46.900000000000006 81.99999999999999 46.900000000000006 80.99999999999999 C 46.900000000000006 79.99999999999999 47.7 79.09999999999998 48.800000000000004 79.09999999999998 M 1.1 72.8 L 126.5 72.8 C 123.8 72.1 117.9 71.2 118.8 67.6 C 113.8 73.3 101.9 71.6 98.8 68.8 C 95.39999999999999 73.7 75.8 71.8 74.5 68 C 70.3 73 57.2 73 53 68 C 51.6 71.8 32 73.7 28.7 68.8 C 25.7 71.6 13.7 73.3 8.7 67.6 C 9.799999999999999 71.1 3.799999999999999 72.1 1.0999999999999996 72.8" stroke-linecap="round" />
</g>
		<g transform="matrix(1 0 0 1 -23.3 27.7)"  >
<path style="stroke: none; stroke-width: 1; stroke-dasharray: none; stroke-linecap: butt; stroke-dashoffset: 0; stroke-linejoin: miter; stroke-miterlimit: 4; fill: rgb(191,219,224); fill-rule: nonzero; opacity: 1;" vector-effect="non-scaling-stroke"  transform=" translate(-40.7, -91.7)" d="M 56 97.8 C 49.3 94.6 45.7 90.3 43.6 85.6 C 41.1 86.3 38.1 86.8 34.7 87 C 33.400000000000006 87.1 32 87.1 30.6 87.1 C 28.900000000000002 87.1 27.200000000000003 87.1 25.400000000000002 87 C 31.400000000000002 93 39 97.7 52.900000000000006 97.8 L 56 97.8 z" stroke-linecap="round" />
</g>
		<g transform="matrix(1 0 0 1 -23.6 23.75)"  >
<path style="stroke: none; stroke-width: 1; stroke-dasharray: none; stroke-linecap: butt; stroke-dashoffset: 0; stroke-linejoin: miter; stroke-miterlimit: 4; fill: rgb(212,238,241); fill-rule: nonzero; opacity: 1;" vector-effect="non-scaling-stroke"  transform=" translate(-40.4, -87.75)" d="M 46.1 89.9 C 45.2 88.60000000000001 44.300000000000004 87.10000000000001 43.6 85.60000000000001 C 41.1 86.30000000000001 38.1 86.80000000000001 34.7 87.00000000000001 C 37 88.20000000000002 40.400000000000006 89.40000000000002 46.1 89.90000000000002 z" stroke-linecap="round" />
</g>
</g>
</g>
</svg>