<?xml version="1.0" encoding="UTF-8" standalone="no" ?>
<!DOCTYPE svg PUBLIC "-//W3C//DTD SVG 1.1//EN" "http://www.w3.org/Graphics/SVG/1.1/DTD/svg11.dtd">
<svg xmlns="http://www.w3.org/2000/svg" xmlns:xlink="http://www.w3.org/1999/xlink" version="1.1" width="1080" height="1080" viewBox="0 0 1080 1080" xml:space="preserve">
<desc>Created with Fabric.js 5.2.4</desc>
<defs>
</defs>
<g transform="matrix(1 0 0 1 540 540)" id="5eb18256-b30d-473a-b641-5d01a6529f29"  >
<rect style="stroke: none; stroke-width: 1; stroke-dasharray: none; stroke-linecap: butt; stroke-dashoffset: 0; stroke-linejoin: miter; stroke-miterlimit: 4; fill: rgb(255,255,255); fill-rule: nonzero; opacity: 1; visibility: hidden;" vector-effect="non-scaling-stroke"  x="-540" y="-540" rx="0" ry="0" width="1080" height="1080" />
</g>
<g transform="matrix(1 0 0 1 540 540)" id="a218958c-f4cd-4c89-8f55-f54f741676a5"  >
</g>
<g transform="matrix(8.44 0 0 8.44 540 540)"  >
<g style=""   >
		<g transform="matrix(1 0 0 1 0 0)"  >
<path style="stroke: none; stroke-width: 1; stroke-dasharray: none; stroke-linecap: butt; stroke-dashoffset: 0; stroke-linejoin: miter; stroke-miterlimit: 4; fill: rgb(228,77,38); fill-rule: nonzero; opacity: 1;" vector-effect="non-scaling-stroke"  transform=" translate(-64, -64)" d="M 19.037 113.876 L 9.032 1.661 L 118.968 1.661 L 108.952 113.859 L 63.933 126.339 z" stroke-linecap="round" />
</g>
		<g transform="matrix(1 0 0 1 22.47 -0.18)"  >
<path style="stroke: none; stroke-width: 1; stroke-dasharray: none; stroke-linecap: butt; stroke-dashoffset: 0; stroke-linejoin: miter; stroke-miterlimit: 4; fill: rgb(241,101,41); fill-rule: nonzero; opacity: 1;" vector-effect="non-scaling-stroke"  transform=" translate(-86.47, -63.82)" d="M 64 116.8 L 100.378 106.714 L 108.937 10.835999999999999 L 64 10.835999999999999 z" stroke-linecap="round" />
</g>
		<g transform="matrix(1 0 0 1 -17.26 -0.43)"  >
<path style="stroke: none; stroke-width: 1; stroke-dasharray: none; stroke-linecap: butt; stroke-dashoffset: 0; stroke-linejoin: miter; stroke-miterlimit: 4; fill: rgb(235,235,235); fill-rule: nonzero; opacity: 1;" vector-effect="non-scaling-stroke"  transform=" translate(-46.74, -63.57)" d="M 64 52.455 L 45.788 52.455 L 44.53 38.361 L 64 38.361 L 64 24.599 L 29.489 24.599 L 29.819 28.291 L 33.201 66.218 L 64 66.218 z M 64 88.19800000000001 L 63.939 88.215 L 48.612 84.075 L 47.633 73.10000000000001 L 33.816 73.10000000000001 L 35.744 94.709 L 63.937 102.535 L 64 102.518 z" stroke-linecap="round" />
</g>
		<g transform="matrix(1 0 0 1 17.19 -0.44)"  >
<path style="stroke: none; stroke-width: 1; stroke-dasharray: none; stroke-linecap: butt; stroke-dashoffset: 0; stroke-linejoin: miter; stroke-miterlimit: 4; fill: rgb(255,255,255); fill-rule: nonzero; opacity: 1;" vector-effect="non-scaling-stroke"  transform=" translate(-81.19, -63.56)" d="M 63.952 52.455 L 63.952 66.218 L 80.899 66.218 L 79.302 84.06700000000001 L 63.952000000000005 88.21000000000001 L 63.952000000000005 102.52900000000001 L 92.167 94.709 L 92.374 92.384 L 95.60799999999999 56.151 L 95.94299999999998 52.455000000000005 L 92.23499999999999 52.455000000000005 z M 63.952 24.598999999999997 L 63.952 38.361 L 97.196 38.361 L 97.472 35.269 L 98.1 28.290999999999997 L 98.42899999999999 24.598999999999997 z" stroke-linecap="round" />
</g>
</g>
</g>
</svg>