<?xml version="1.0" encoding="UTF-8" standalone="no" ?>
<!DOCTYPE svg PUBLIC "-//W3C//DTD SVG 1.1//EN" "http://www.w3.org/Graphics/SVG/1.1/DTD/svg11.dtd">
<svg xmlns="http://www.w3.org/2000/svg" xmlns:xlink="http://www.w3.org/1999/xlink" version="1.1" width="1080" height="1080" viewBox="0 0 1080 1080" xml:space="preserve">
<desc>Created with Fabric.js 5.2.4</desc>
<defs>
</defs>
<rect x="0" y="0" width="100%" height="100%" fill="transparent"></rect>
<g transform="matrix(1 0 0 1 540 540)" id="af528c47-4aff-4f80-9d85-08d2f6f753ff"  >
<rect style="stroke: none; stroke-width: 1; stroke-dasharray: none; stroke-linecap: butt; stroke-dashoffset: 0; stroke-linejoin: miter; stroke-miterlimit: 4; fill: rgb(255,255,255); fill-rule: nonzero; opacity: 1; visibility: hidden;" vector-effect="non-scaling-stroke"  x="-540" y="-540" rx="0" ry="0" width="1080" height="1080" />
</g>
<g transform="matrix(1 0 0 1 540 540)" id="c32c6391-0ef5-48f8-b816-5780ec084246"  >
</g>
<g transform="matrix(8.44 0 0 8.44 540 540)"  >
<g style=""   >
		<g transform="matrix(1 0 0 1 14.22 -2.22)"  >
<path style="stroke: none; stroke-width: 1; stroke-dasharray: none; stroke-linecap: butt; stroke-dashoffset: 0; stroke-linejoin: miter; stroke-miterlimit: 4; fill: rgb(67,153,52); fill-rule: evenodd; opacity: 1;" vector-effect="non-scaling-stroke"  transform=" translate(-78.22, -61.78)" d="M 88.038 42.812 C 89.643 47.455 90.79899999999999 52.19499999999999 91.179 57.108 C 91.651 63.202999999999996 91.435 69.255 90.15 75.25 C 90.11500000000001 75.415 90.04100000000001 75.57 89.986 75.73 C 89.583 75.73100000000001 89.17200000000001 75.681 88.778 75.742 C 85.44900000000001 76.265 82.123 76.807 78.79700000000001 77.346 C 75.35900000000001 77.903 71.91600000000001 78.438 68.48400000000001 79.033 C 67.26800000000001 79.243 65.763 78.992 65.272 80.674 C 65.25800000000001 80.72000000000001 65.11800000000001 80.72800000000001 65.037 80.754 L 65.203 70.703 L 65.034 46.45100000000001 L 66.63600000000001 46.17600000000001 C 69.25600000000001 45.74700000000001 71.876 45.31200000000001 74.498 44.89500000000001 C 77.62700000000001 44.39800000000001 80.759 43.91500000000001 83.89 43.43000000000001 C 85.271 43.215 86.654 43.01800000000001 88.038 42.812000000000005 z" stroke-linecap="round" />
</g>
		<g transform="matrix(1 0 0 1 -14.4 11.56)"  >
<path style="stroke: none; stroke-width: 1; stroke-dasharray: none; stroke-linecap: butt; stroke-dashoffset: 0; stroke-linejoin: miter; stroke-miterlimit: 4; fill: rgb(69,165,56); fill-rule: evenodd; opacity: 1;" vector-effect="non-scaling-stroke"  transform=" translate(-49.6, -75.56)" d="M 61.729 110.054 C 60.039 108.601 58.29 107.212 56.67 105.684 C 47.953 97.462 41.577 87.785 38.437 76.118 C 37.571999999999996 72.907 36.995 69.64399999999999 36.809999999999995 66.326 C 36.67999999999999 64.00399999999999 36.492 61.660999999999994 36.65599999999999 59.35099999999999 C 37.09299999999999 53.206999999999994 37.980999999999995 47.12199999999999 39.782999999999994 41.20399999999999 L 39.88199999999999 41.065999999999995 C 40.05699999999999 41.29899999999999 40.30899999999999 41.504999999999995 40.39799999999999 41.767999999999994 C 42.15699999999999 46.94799999999999 43.90299999999999 52.13199999999999 45.639999999999986 57.318999999999996 C 51.097999999999985 73.619 56.548999999999985 89.923 62.01599999999999 106.219 C 62.12299999999999 106.53699999999999 62.39999999999999 106.79799999999999 62.59899999999999 107.085 L 61.72899999999999 110.05399999999999 z" stroke-linecap="round" />
</g>
		<g transform="matrix(1 0 0 1 12.02 -38.62)"  >
<path style="stroke: none; stroke-width: 1; stroke-dasharray: none; stroke-linecap: butt; stroke-dashoffset: 0; stroke-linejoin: miter; stroke-miterlimit: 4; fill: rgb(70,160,55); fill-rule: evenodd; opacity: 1;" vector-effect="non-scaling-stroke"  transform=" translate(-76.02, -25.38)" d="M 88.038 42.812 C 86.654 43.018 85.27 43.214999999999996 83.889 43.428 C 80.758 43.913 77.62599999999999 44.396 74.497 44.893 C 71.875 45.31 69.255 45.745 66.635 46.174 L 65.033 46.449 L 65.021 45.403999999999996 C 64.968 44.544999999999995 64.877 43.687 64.867 42.827999999999996 C 64.798 37.349999999999994 64.75500000000001 31.871999999999996 64.687 26.393999999999995 C 64.645 22.964999999999996 64.582 19.536999999999995 64.512 16.108999999999995 C 64.469 13.978999999999996 64.423 11.847999999999995 64.327 9.720999999999995 C 64.27499999999999 8.577999999999994 64.091 7.440999999999995 64.01599999999999 6.297999999999995 C 63.97399999999999 5.640999999999995 64.032 4.978999999999995 64.04499999999999 4.318999999999995 C 64.86199999999998 5.901999999999995 65.66099999999999 7.496999999999995 66.50099999999999 9.067999999999994 C 67.82799999999999 11.551999999999994 69.942 13.381999999999994 71.84499999999998 15.378999999999994 C 79.36799999999998 23.270999999999994 84.70899999999999 32.446999999999996 88.03799999999998 42.812 z" stroke-linecap="round" />
</g>
		<g transform="matrix(1 0 0 1 13.15 28.37)"  >
<path style="stroke: none; stroke-width: 1; stroke-dasharray: none; stroke-linecap: butt; stroke-dashoffset: 0; stroke-linejoin: miter; stroke-miterlimit: 4; fill: rgb(64,148,51); fill-rule: evenodd; opacity: 1;" vector-effect="non-scaling-stroke"  transform=" translate(-77.15, -92.37)" d="M 65.036 80.753 C 65.117 80.727 65.258 80.719 65.271 80.673 C 65.762 78.991 67.267 79.242 68.483 79.032 C 71.915 78.438 75.358 77.902 78.796 77.345 C 82.122 76.806 85.44800000000001 76.264 88.777 75.741 C 89.171 75.679 89.58200000000001 75.73 89.985 75.729 C 89.363 77.949 88.873 80.217 88.084 82.376 C 87.188 84.825 86.104 87.215 84.953 89.558 C 83.22987018126098 93.05268593607893 81.09722621106378 96.33003570485513 78.60000000000002 99.32100000000001 C 76.68100000000001 101.62900000000002 74.542 103.76200000000001 72.39800000000001 105.86900000000001 C 71.21300000000001 107.03400000000002 69.81600000000002 107.98300000000002 68.516 109.03000000000002 L 68.179 108.80000000000001 L 66.965 107.76200000000001 L 65.709 105.00900000000001 C 64.85107962121415 101.79751854413426 64.38304319006397 98.49440347264544 64.315 95.17100000000002 L 64.338 94.61000000000001 L 64.509 92.18400000000001 C 64.566 91.35600000000001 64.642 90.52900000000001 64.677 89.69900000000001 C 64.80600000000001 86.71700000000001 64.918 83.73500000000001 65.036 80.75300000000001 z" stroke-linecap="round" />
</g>
		<g transform="matrix(1 0 0 1 -9.82 -6.15)"  >
<path style="stroke: none; stroke-width: 1; stroke-dasharray: none; stroke-linecap: butt; stroke-dashoffset: 0; stroke-linejoin: miter; stroke-miterlimit: 4; fill: rgb(79,170,65); fill-rule: evenodd; opacity: 1;" vector-effect="non-scaling-stroke"  transform=" translate(-54.18, -57.85)" d="M 65.036 80.753 C 64.918 83.735 64.806 86.717 64.679 89.7 C 64.644 90.53 64.568 91.357 64.511 92.185 L 63.745999999999995 92.474 C 62.047 87.47200000000001 60.346999999999994 82.523 58.684 77.561 C 55.934 69.352 53.217 61.13000000000001 50.471 52.91900000000001 C 48.25310088426977 46.29147160172549 46.01976148776022 39.669120289718464 43.77099999999836 33.05199999999641 C 43.666 32.742000000000004 43.364 32.50000000000001 43.153999999999996 32.226000000000006 L 48.05 23.224000000000004 C 48.217999999999996 23.516000000000005 48.44 23.789000000000005 48.546 24.103000000000005 C 50.81353798857676 30.805112919644145 53.06954132874097 37.51112284834156 55.31399999999912 44.220999999997446 C 58.23 52.95100000000001 61.128 61.688 64.042 70.41900000000001 C 64.158 70.76800000000001 64.35000000000001 71.09000000000002 64.533 71.48100000000001 L 65.203 70.70100000000001 L 65.036 80.75300000000001 z" stroke-linecap="round" />
</g>
		<g transform="matrix(1 0 0 1 -11.8 5.66)"  >
<path style="stroke: none; stroke-width: 1; stroke-dasharray: none; stroke-linecap: butt; stroke-dashoffset: 0; stroke-linejoin: miter; stroke-miterlimit: 4; fill: rgb(74,167,60); fill-rule: evenodd; opacity: 1;" vector-effect="non-scaling-stroke"  transform=" translate(-52.2, -69.66)" d="M 43.155 32.227 C 43.365 32.501 43.666000000000004 32.742999999999995 43.772 33.053 C 46.0207614877618 39.67012028972189 48.254100884271466 46.29247160172695 50.472000000001636 52.92000000000132 C 53.218 61.131 55.935 69.35300000000001 58.685 77.562 C 60.347 82.523 62.047000000000004 87.473 63.747 92.475 L 64.512 92.18599999999999 L 64.341 94.612 L 64.18599999999999 95.17099999999999 C 63.919999999999995 97.827 63.69599999999999 100.48899999999999 63.37199999999999 103.139 C 63.208999999999996 104.467 62.86299999999999 105.771 62.599999999999994 107.086 C 62.401999999999994 106.79899999999999 62.123999999999995 106.538 62.016999999999996 106.22 C 56.55 89.923 51.099 73.62 45.64099999999999 57.32 C 43.90460567457235 52.132652388632685 42.15726845192396 46.94897418386429 40.39899999999935 41.76899999999984 C 40.309999999999995 41.506 40.05899999999999 41.3 39.882999999999996 41.067 L 43.154999999999994 32.227000000000004 z" stroke-linecap="round" />
</g>
		<g transform="matrix(1 0 0 1 -7.37 -20.63)"  >
<path style="stroke: none; stroke-width: 1; stroke-dasharray: none; stroke-linecap: butt; stroke-dashoffset: 0; stroke-linejoin: miter; stroke-miterlimit: 4; fill: rgb(87,174,71); fill-rule: evenodd; opacity: 1;" vector-effect="non-scaling-stroke"  transform=" translate(-56.63, -43.37)" d="M 65.202 70.702 L 64.532 71.482 C 64.34899999999999 71.091 64.157 70.768 64.041 70.42 C 61.128 61.689 58.229 52.952 55.312999999999995 44.222 C 53.06854132874181 37.512122848344006 50.812537988575855 30.806112919641812 48.54499999999906 24.103999999997562 C 48.44 23.790000000000003 48.217999999999996 23.516000000000002 48.04899999999999 23.225 L 54.10399999999999 15.260000000000002 C 54.294999999999995 15.515000000000002 54.56699999999999 15.742 54.66599999999999 16.029 C 56.34699999999999 20.95 58.01299999999999 25.877000000000002 59.66899999999999 30.807000000000002 C 61.21599999999999 35.411 62.73999999999999 40.022000000000006 64.30499999999999 44.620000000000005 C 64.41 44.928000000000004 64.77499999999999 45.14600000000001 65.01899999999999 45.406000000000006 L 65.03099999999999 46.45100000000001 C 65.089 54.53300000000001 65.14599999999999 62.61800000000001 65.202 70.70200000000001 z" stroke-linecap="round" />
</g>
		<g transform="matrix(1 0 0 1 -4.44 -39.79)"  >
<path style="stroke: none; stroke-width: 1; stroke-dasharray: none; stroke-linecap: butt; stroke-dashoffset: 0; stroke-linejoin: miter; stroke-miterlimit: 4; fill: rgb(96,178,79); fill-rule: evenodd; opacity: 1;" vector-effect="non-scaling-stroke"  transform=" translate(-59.56, -24.21)" d="M 65.021 45.404 C 64.777 45.144000000000005 64.412 44.926 64.307 44.618 C 62.742000000000004 40.02 61.218 35.409000000000006 59.671 30.805 C 58.015 25.875 56.349 20.948999999999998 54.668 16.027 C 54.569 15.74 54.297 15.513000000000002 54.106 15.258000000000001 C 56.075 13.330000000000002 57.983000000000004 11.333000000000002 60.031 9.494 C 61.852 7.859999999999999 63.316 6.108 63.382999999999996 3.526 C 63.385999999999996 3.4189999999999996 63.44199999999999 3.312 63.528 3.0119999999999996 L 64.047 4.318 C 64.03399999999999 4.978999999999999 63.974999999999994 5.64 64.018 6.297 C 64.093 7.4399999999999995 64.277 8.577 64.32900000000001 9.719999999999999 C 64.42500000000001 11.846999999999998 64.471 13.977999999999998 64.51400000000001 16.107999999999997 C 64.58300000000001 19.535999999999998 64.64600000000002 22.964 64.68900000000001 26.392999999999997 C 64.756 31.870999999999995 64.80000000000001 37.349 64.86900000000001 42.827 C 64.87700000000001 43.687999999999995 64.96700000000001 44.545 65.02100000000002 45.403999999999996 z" stroke-linecap="round" />
</g>
		<g transform="matrix(1 0 0 1 -0.28 39.89)"  >
<path style="stroke: none; stroke-width: 1; stroke-dasharray: none; stroke-linecap: butt; stroke-dashoffset: 0; stroke-linejoin: miter; stroke-miterlimit: 4; fill: rgb(169,170,136); fill-rule: evenodd; opacity: 1;" vector-effect="non-scaling-stroke"  transform=" translate(-63.72, -103.89)" d="M 62.598 107.085 C 62.861 105.77 63.207 104.46499999999999 63.37 103.13799999999999 C 63.695 100.48899999999999 63.918 97.826 64.184 95.16999999999999 L 64.25 95.15999999999998 L 64.316 95.17099999999998 C 64.38404319006398 98.4944034726454 64.85207962121416 101.79751854413423 65.71000000000001 105.009 C 65.534 105.24099999999997 65.28500000000001 105.44799999999996 65.19200000000001 105.70999999999997 C 64.465 107.75999999999996 63.78000000000001 109.82599999999996 63.04900000000001 111.87599999999996 C 62.949000000000005 112.15599999999996 62.67100000000001 112.37399999999997 62.47500000000001 112.61999999999996 L 61.72800000000001 110.05399999999996 L 62.598000000000006 107.08499999999997 z" stroke-linecap="round" />
</g>
		<g transform="matrix(1 0 0 1 0.72 46.81)"  >
<path style="stroke: none; stroke-width: 1; stroke-dasharray: none; stroke-linecap: butt; stroke-dashoffset: 0; stroke-linejoin: miter; stroke-miterlimit: 4; fill: rgb(182,181,152); fill-rule: evenodd; opacity: 1;" vector-effect="non-scaling-stroke"  transform=" translate(-64.72, -110.81)" d="M 62.476 112.621 C 62.672 112.375 62.951 112.157 63.05 111.877 C 63.781 109.827 64.467 107.762 65.193 105.711 C 65.286 105.449 65.53399999999999 105.242 65.711 105.01 L 66.966 107.76400000000001 C 66.71799999999999 108.11600000000001 66.37599999999999 108.433 66.238 108.82500000000002 L 63.834 115.88400000000001 C 63.73500000000001 116.16700000000002 63.397000000000006 116.36700000000002 63.17100000000001 116.60600000000001 L 62.476000000000006 112.62100000000001 z" stroke-linecap="round" />
</g>
		<g transform="matrix(1 0 0 1 1.68 50.26)"  >
<path style="stroke: none; stroke-width: 1; stroke-dasharray: none; stroke-linecap: butt; stroke-dashoffset: 0; stroke-linejoin: miter; stroke-miterlimit: 4; fill: rgb(194,193,167); fill-rule: evenodd; opacity: 1;" vector-effect="non-scaling-stroke"  transform=" translate(-65.68, -114.26)" d="M 63.171 116.605 C 63.397999999999996 116.367 63.735 116.16600000000001 63.833999999999996 115.88300000000001 L 66.238 108.82400000000001 C 66.375 108.433 66.718 108.11500000000001 66.966 107.763 L 68.181 108.80000000000001 C 67.594 109.38000000000001 67.268 110.05000000000001 67.464 110.897 L 67.095 112.105 C 66.92699999999999 112.312 66.684 112.492 66.601 112.729 C 65.762 115.132 64.961 117.548 64.116 119.951 C 64.009 120.256 63.711999999999996 120.49499999999999 63.502 120.76299999999999 C 63.393 119.37599999999999 63.282000000000004 117.99199999999999 63.171 116.60499999999999 z" stroke-linecap="round" />
</g>
		<g transform="matrix(1 0 0 1 1.29 54.01)"  >
<path style="stroke: none; stroke-width: 1; stroke-dasharray: none; stroke-linecap: butt; stroke-dashoffset: 0; stroke-linejoin: miter; stroke-miterlimit: 4; fill: rgb(206,205,183); fill-rule: evenodd; opacity: 1;" vector-effect="non-scaling-stroke"  transform=" translate(-65.29, -118.01)" d="M 63.503 120.763 C 63.712 120.494 64.009 120.25500000000001 64.117 119.95100000000001 C 64.962 117.549 65.763 115.13300000000001 66.602 112.72900000000001 C 66.685 112.49300000000001 66.927 112.31200000000001 67.096 112.10500000000002 L 66.587 117.65000000000002 C 66.45100000000001 117.80700000000002 66.254 117.94400000000002 66.18900000000001 118.12700000000002 C 65.614 119.74100000000003 65.072 121.36700000000002 64.495 122.98100000000002 C 64.376 123.31400000000002 64.14800000000001 123.60800000000002 63.970000000000006 123.91900000000003 C 63.812000000000005 123.71200000000003 63.529 123.51200000000003 63.516000000000005 123.29600000000002 C 63.465 122.45500000000003 63.50000000000001 121.60800000000002 63.50300000000001 120.76300000000002 z" stroke-linecap="round" />
</g>
		<g transform="matrix(1 0 0 1 1.28 57.03)"  >
<path style="stroke: none; stroke-width: 1; stroke-dasharray: none; stroke-linecap: butt; stroke-dashoffset: 0; stroke-linejoin: miter; stroke-miterlimit: 4; fill: rgb(219,218,199); fill-rule: evenodd; opacity: 1;" vector-effect="non-scaling-stroke"  transform=" translate(-65.28, -121.03)" d="M 63.969 123.919 C 64.147 123.607 64.375 123.313 64.494 122.981 C 65.072 121.368 65.613 119.74199999999999 66.188 118.127 C 66.253 117.94399999999999 66.45100000000001 117.80799999999999 66.586 117.64999999999999 L 66.598 121.28999999999999 L 65.38 124.41399999999999 L 63.968999999999994 123.91899999999998 z" stroke-linecap="round" />
</g>
		<g transform="matrix(1 0 0 1 2.11 59.14)"  >
<path style="stroke: none; stroke-width: 1; stroke-dasharray: none; stroke-linecap: butt; stroke-dashoffset: 0; stroke-linejoin: miter; stroke-miterlimit: 4; fill: rgb(235,233,220); fill-rule: evenodd; opacity: 1;" vector-effect="non-scaling-stroke"  transform=" translate(-66.11, -123.14)" d="M 65.38 124.415 L 66.598 121.29100000000001 L 66.849 124.98700000000001 L 65.38000000000001 124.415 z" stroke-linecap="round" />
</g>
		<g transform="matrix(1 0 0 1 3.96 45.85)"  >
<path style="stroke: none; stroke-width: 1; stroke-dasharray: none; stroke-linecap: butt; stroke-dashoffset: 0; stroke-linejoin: miter; stroke-miterlimit: 4; fill: rgb(206,205,183); fill-rule: evenodd; opacity: 1;" vector-effect="non-scaling-stroke"  transform=" translate(-67.96, -109.85)" d="M 67.464 110.898 C 67.268 110.051 67.593 109.38 68.181 108.801 L 68.518 109.031 L 67.464 110.89800000000001 z" stroke-linecap="round" />
</g>
		<g transform="matrix(1 0 0 1 0.26 30.89)"  >
<path style="stroke: none; stroke-width: 1; stroke-dasharray: none; stroke-linecap: butt; stroke-dashoffset: 0; stroke-linejoin: miter; stroke-miterlimit: 4; fill: rgb(79,170,65); fill-rule: evenodd; opacity: 1;" vector-effect="non-scaling-stroke"  transform=" translate(-64.26, -94.89)" d="M 64.316 95.172 L 64.25 95.161 L 64.184 95.171 L 64.339 94.61200000000001 L 64.316 95.17200000000001 z" stroke-linecap="round" />
</g>
</g>
</g>
</svg>