<?xml version="1.0" encoding="UTF-8" standalone="no" ?>
<!DOCTYPE svg PUBLIC "-//W3C//DTD SVG 1.1//EN" "http://www.w3.org/Graphics/SVG/1.1/DTD/svg11.dtd">
<svg xmlns="http://www.w3.org/2000/svg" xmlns:xlink="http://www.w3.org/1999/xlink" version="1.1" width="1080" height="1080" viewBox="0 0 1080 1080" xml:space="preserve">
<desc>Created with Fabric.js 5.2.4</desc>
<defs>
</defs>
<g transform="matrix(1 0 0 1 540 540)" id="3bf78552-7fa6-43be-9fa7-3c91b864bca7"  >
<rect style="stroke: none; stroke-width: 1; stroke-dasharray: none; stroke-linecap: butt; stroke-dashoffset: 0; stroke-linejoin: miter; stroke-miterlimit: 4; fill: rgb(255,255,255); fill-rule: nonzero; opacity: 1; visibility: hidden;" vector-effect="non-scaling-stroke"  x="-540" y="-540" rx="0" ry="0" width="1080" height="1080" />
</g>
<g transform="matrix(1 0 0 1 540 540)" id="1707db45-d07d-4d08-b2d5-0f11f1ce36d8"  >
</g>
<g transform="matrix(8.44 0 0 8.44 540 540)"  >
<path style="stroke: none; stroke-width: 1; stroke-dasharray: none; stroke-linecap: butt; stroke-dashoffset: 0; stroke-linejoin: miter; stroke-miterlimit: 4; fill: rgb(119,188,31); fill-rule: nonzero; opacity: 1;"  transform=" translate(-64.03, -64)" d="M 116.452 6.643 C 114.65932600656296 10.943682809284162 112.36439240419215 15.017299044236992 109.61500000000001 18.779000000000003 C 97.56895454279314 6.739898344098812 81.23577143170814 -0.02393139393142718 64.20500000000001 -0.025999999999992696 C 28.984 -0.026 0 28.982 0 64.242 C -0.0007568674207485632 81.83750399185992 7.207373609336765 98.66502824649936 19.944999999999993 110.804 L 22.313 112.904 C 33.88594308142841 122.66140467766752 48.5336330211412 128.017136755339 63.67099999999998 128.026 C 97.15799999999999 128.026 125.30799999999999 101.78600000000002 127.692 68.34300000000002 C 129.44299999999998 51.97200000000002 124.64099999999999 31.26600000000002 116.452 6.643000000000015 z M 29.067 111.17 C 28.02296852857468 112.45635225998457 26.454714717797188 113.20355962731215 24.798000000000002 113.20400000000001 C 21.78 113.20400000000001 19.311 110.72000000000001 19.311 107.70200000000001 C 19.311 104.68500000000002 21.796 102.20100000000001 24.798000000000002 102.20100000000001 C 26.048000000000002 102.20100000000001 27.283 102.63400000000001 28.25 103.435 C 30.601 105.33500000000001 30.968 108.819 29.067 111.17 z M 116.186 91.932 C 100.343 113.054 66.506 105.935 44.81 106.952 C 44.81 106.952 40.958000000000006 107.18599999999999 37.089 107.819 C 37.089 107.819 38.539 107.202 40.424 106.485 C 55.65 101.184 62.854 100.15 72.109 95.399 C 89.536 86.53 106.763 67.125 110.34899999999999 46.936 C 103.71199999999999 66.358 83.59899999999999 83.04599999999999 65.27199999999999 89.831 C 52.71499999999999 94.46600000000001 30.033999999999992 98.967 30.033999999999992 98.967 L 29.11699999999999 98.483 C 13.67499999999999 90.965 13.20699999999999 57.50600000000001 41.27399999999999 46.703 C 53.56499999999998 41.968 65.32199999999999 44.569 78.59699999999998 41.401 C 92.77199999999998 38.034000000000006 109.16499999999998 27.397000000000006 115.83499999999998 13.527000000000005 C 123.30599999999998 35.717000000000006 132.295 70.459 116.18499999999997 91.932 z" stroke-linecap="round" />
</g>
</svg>