<?xml version="1.0" encoding="UTF-8" standalone="no" ?>
<!DOCTYPE svg PUBLIC "-//W3C//DTD SVG 1.1//EN" "http://www.w3.org/Graphics/SVG/1.1/DTD/svg11.dtd">
<svg xmlns="http://www.w3.org/2000/svg" xmlns:xlink="http://www.w3.org/1999/xlink" version="1.1" width="1080" height="1080" viewBox="0 0 1080 1080" xml:space="preserve">
<desc>Created with Fabric.js 5.2.4</desc>
<defs>
</defs>
<g transform="matrix(1 0 0 1 540 540)" id="c875d298-5295-4390-9774-45a2349d89ff"  >
<rect style="stroke: none; stroke-width: 1; stroke-dasharray: none; stroke-linecap: butt; stroke-dashoffset: 0; stroke-linejoin: miter; stroke-miterlimit: 4; fill: rgb(255,255,255); fill-rule: nonzero; opacity: 1; visibility: hidden;" vector-effect="non-scaling-stroke"  x="-540" y="-540" rx="0" ry="0" width="1080" height="1080" />
</g>
<g transform="matrix(1 0 0 1 540 540)" id="4ccf8aa4-ed31-44a8-9ba8-fe231fac4f67"  >
</g>
<g transform="matrix(8.44 0 0 8.44 540 540)"  >
<path style="stroke: none; stroke-width: 1; stroke-dasharray: none; stroke-linecap: butt; stroke-dashoffset: 0; stroke-linejoin: miter; stroke-miterlimit: 4; fill: rgb(255,153,0); fill-rule: nonzero; opacity: 1;"  transform=" translate(-64, -64)" d="M 108.59 26.148 C 106.738 26.148 104.968 26.358999999999998 103.285 26.863 C 101.601 27.367 100.16799999999999 28.086 98.90599999999999 29.051 C 97.6603104629877 29.971948217543122 96.62671596376951 31.149447988509916 95.87499999999999 32.504 C 95.11799999999998 33.852 94.73799999999999 35.41 94.73799999999999 37.18 C 94.73799999999999 39.367 95.45399999999998 41.43 96.84399999999998 43.285 C 98.22999999999998 45.18 100.50399999999998 46.608999999999995 103.57799999999997 47.577999999999996 L 109.68399999999997 49.473 C 111.74599999999997 50.147999999999996 113.17999999999996 50.864 113.93799999999997 51.664 C 114.69499999999998 52.465 115.07399999999997 53.429 115.07399999999997 54.609 C 115.07399999999997 56.335 114.31599999999997 57.683 112.88299999999997 58.609 C 111.45299999999996 59.534 109.39099999999996 60 106.73799999999997 60 C 105.05099999999997 60 103.40999999999997 59.832 101.72699999999998 59.496 C 100.13504498614442 59.16834547188449 98.58211213044524 58.67360580104228 97.09399999999998 58.02 C 96.67299999999997 57.852000000000004 96.29299999999998 57.684000000000005 96.04299999999998 57.602000000000004 C 95.79915466447756 57.51745952963537 95.54307995260612 57.473541703061116 95.28499999999998 57.472 C 94.65099999999998 57.472 94.31599999999999 57.895 94.31599999999999 58.777 L 94.31599999999999 60.926 C 94.31753071539029 61.33273387778585 94.40404675134008 61.73465876920609 94.57 62.106 C 94.738 62.486000000000004 95.199 62.906 95.875 63.286 C 96.969 63.914 98.609 64.465 100.715 64.96900000000001 C 102.82000000000001 65.47300000000001 105.012 65.727 107.199 65.727 C 109.349 65.727 111.328 65.43 113.223 64.84400000000001 C 115.031 64.293 116.59 63.53500000000001 117.895 62.48400000000001 C 119.199 61.47400000000001 120.211 60.211000000000006 120.969 58.77700000000001 C 121.68299999999999 57.348000000000006 122.06299999999999 55.70700000000001 122.06299999999999 53.89500000000001 C 122.06299999999999 51.70700000000001 121.42999999999999 49.72700000000001 120.12499999999999 48.000000000000014 C 118.82099999999998 46.27300000000002 116.63399999999999 44.926000000000016 113.60199999999999 43.957000000000015 L 107.62199999999999 42.06200000000001 C 105.39199999999998 41.34900000000001 103.83199999999998 40.546000000000014 102.98799999999999 39.74600000000001 C 102.14799999999998 38.94900000000001 101.72699999999999 37.93800000000001 101.72699999999999 36.75800000000001 C 101.72699999999999 35.03200000000001 102.398 33.80800000000001 103.707 33.01200000000001 C 105.012 32.211000000000006 106.90599999999999 31.832000000000008 109.30499999999999 31.832000000000008 C 112.29299999999999 31.832000000000008 114.988 32.379000000000005 117.39099999999999 33.47200000000001 C 118.10499999999999 33.80900000000001 118.65199999999999 33.98000000000001 118.98799999999999 33.98000000000001 C 119.62099999999998 33.98000000000001 119.95699999999998 33.51700000000001 119.95699999999998 32.63300000000001 L 119.95699999999998 30.65300000000001 C 119.95699999999998 30.06300000000001 119.83199999999998 29.60200000000001 119.57799999999997 29.262000000000008 C 119.32799999999997 28.884000000000007 118.90599999999998 28.547000000000008 118.31599999999997 28.21100000000001 C 117.89399999999998 27.957000000000008 117.30499999999998 27.707000000000008 116.54599999999998 27.45300000000001 C 115.75559277019765 27.19712590369278 114.95567282585878 26.971627203787413 114.14799999999998 26.777000000000015 C 113.26199999999999 26.609000000000012 112.37899999999998 26.441000000000013 111.40999999999998 26.31700000000001 C 110.47476285969707 26.19846048640476 109.53270046544007 26.142003555685097 108.58999999999999 26.148000000000007 z M 21.768 26.23 C 19.452 26.23 17.26 26.484 15.198 27.031 C 13.135 27.535999999999998 11.367 28.168 9.895 28.926 C 9.305 29.223 8.924999999999999 29.516 8.715 29.808999999999997 C 8.504 30.104999999999997 8.422 30.608999999999998 8.422 31.284999999999997 L 8.422 33.348 C 8.422 34.23 8.715 34.652 9.305 34.652 C 9.472999999999999 34.652 9.683 34.609 9.979 34.527 C 10.271999999999998 34.441 10.774999999999999 34.273 11.450999999999999 33.980000000000004 C 12.93061573419751 33.394684539490314 14.450148619900009 32.91579942288339 15.997999999999982 32.547000000000004 C 17.4870230707235 32.18352027215495 19.014255010632944 31.999876422708816 20.546999999999997 32 C 23.789 32 26.060000000000002 32.633 27.41 33.938 C 28.714 35.241 29.39 37.472 29.39 40.672000000000004 L 29.39 43.746 C 27.707 43.367000000000004 26.107 43.031 24.547 42.82 C 22.989 42.61 21.516000000000002 42.484 20.086 42.484 C 15.745999999999999 42.484 12.335999999999999 43.578 9.769999999999998 45.77 C 7.198999999999998 47.957 5.937999999999998 50.863 5.937999999999998 54.441 C 5.937999999999998 57.809000000000005 6.987999999999998 60.504000000000005 9.050999999999998 62.527 C 11.116999999999997 64.547 13.937999999999999 65.559 17.473 65.559 C 22.442999999999998 65.559 26.57 63.620999999999995 29.851999999999997 59.745999999999995 C 30.252461135787435 60.59151072712837 30.687494735637905 61.420209701076665 31.15599999999999 62.22999999999999 C 31.59811002854516 62.93608988463505 32.105680583123046 63.59901184905735 32.672 64.21 C 33.093999999999994 64.58999999999999 33.516 64.8 33.937999999999995 64.8 C 34.272 64.8 34.651999999999994 64.672 35.03099999999999 64.422 L 37.68399999999999 62.651999999999994 C 38.22999999999999 62.23199999999999 38.48399999999999 61.809 38.48399999999999 61.39099999999999 C 38.47798502479555 61.04678155859161 38.376554147997034 60.71098650570916 38.19099999999999 60.42099999999999 C 37.66798451562577 59.44555491787163 37.21775882449466 58.432797795282724 36.84399999999999 57.39099999999999 C 36.54699999999999 56.465999999999994 36.378999999999984 55.20099999999999 36.378999999999984 53.64099999999999 L 36.292999999999985 53.64099999999999 L 36.292999999999985 40 C 36.292999999999985 35.367 35.11699999999998 31.914 32.80099999999999 29.64 C 30.44099999999999 27.367 26.77599999999999 26.23 21.767999999999986 26.23 z M 41.348 27.242 C 40.672 27.242 40.336 27.621000000000002 40.336 28.293 C 40.336 28.59 40.464999999999996 29.137 40.714999999999996 29.98 L 50.608999999999995 62.527 C 50.86299999999999 63.327 51.15599999999999 63.914 51.495999999999995 64.168 C 51.831999999999994 64.465 52.336 64.59 53.093999999999994 64.59 L 56.71399999999999 64.59 C 57.47299999999999 64.59 58.06099999999999 64.465 58.39799999999999 64.168 C 58.73799999999999 63.87500000000001 58.98899999999999 63.328 59.19899999999999 62.48400000000001 L 65.684 35.367000000000004 L 72.211 62.527 C 72.379 63.367000000000004 72.67099999999999 63.914 73.011 64.211 C 73.348 64.503 73.89399999999999 64.633 74.695 64.633 L 78.31599999999999 64.633 C 79.03099999999999 64.633 79.57799999999999 64.466 79.91399999999999 64.211 C 80.25399999999999 63.958 80.54699999999998 63.411 80.80099999999999 62.571 L 90.949 30.02 C 91.117 29.56 91.199 29.223 91.242 28.969 C 91.28500000000001 28.715 91.328 28.503 91.328 28.293000000000003 C 91.328 27.578000000000003 90.949 27.243000000000002 90.273 27.243000000000002 L 86.36 27.243000000000002 C 85.603 27.243000000000002 85.05199999999999 27.409000000000002 84.716 27.664 C 84.42299999999999 27.914 84.12599999999999 28.464000000000002 83.87599999999999 29.304000000000002 L 76.59 57.517 L 69.937 29.306000000000004 C 69.771 28.506000000000004 69.473 27.916000000000004 69.137 27.666000000000004 C 68.801 27.368000000000006 68.253 27.243000000000006 67.453 27.243000000000006 L 64.086 27.243000000000006 C 63.327999999999996 27.243000000000006 62.738 27.410000000000007 62.397999999999996 27.665000000000006 C 62.062999999999995 27.915000000000006 61.809999999999995 28.465000000000007 61.602 29.305000000000007 L 55.032 57.18100000000001 L 47.956999999999994 29.30600000000001 C 47.706999999999994 28.50600000000001 47.452999999999996 27.91600000000001 47.11699999999999 27.66600000000001 C 46.81999999999999 27.368000000000013 46.27299999999999 27.243000000000013 45.47299999999999 27.243000000000013 L 41.34799999999999 27.243000000000013 z M 21.64 47.496 C 22.96391579529914 47.49686111218174 24.28648711577818 47.580356776353405 25.59999999999999 47.74600000000001 C 26.903337409771197 47.91153233825975 28.196121890155673 48.15159226630635 29.471999999999962 48.465 L 29.472 50.230000000000004 C 29.472 51.665000000000006 29.304000000000002 52.883 29.05 53.895 C 28.8 54.905 28.292 55.790000000000006 27.62 56.59 C 26.483 57.852000000000004 25.136000000000003 58.777 23.62 59.285000000000004 C 22.104 59.789 20.671 60.043000000000006 19.284 60.043000000000006 C 17.346999999999998 60.043000000000006 15.873999999999999 59.535000000000004 14.861999999999998 58.48400000000001 C 13.807999999999998 57.47400000000001 13.303999999999998 56.00000000000001 13.303999999999998 54.02000000000001 C 13.303999999999998 51.91400000000001 13.979 50.31600000000001 15.365999999999998 49.18000000000001 C 16.756999999999998 48.043000000000006 18.819999999999997 47.49600000000001 21.639999999999997 47.49600000000001 z M 118 73.348 C 113.568 73.411 108.336 74.4 104.379 77.17999999999999 C 103.156 78.06299999999999 103.367 79.24199999999999 104.715 79.074 C 109.223 78.527 119.155 77.348 120.92500000000001 79.621 C 122.69500000000001 81.851 118.94900000000001 91.241 117.26200000000001 95.411 C 116.75800000000001 96.671 117.85200000000002 97.18 118.98800000000001 96.211 C 126.39800000000001 89.98 128.336 76.969 126.82000000000001 75.074 C 126.063 74.149 122.432 73.28399999999999 118 73.348 z M 1.63 75.859 C 0.7039999999999998 75.975 0.2829999999999999 77.095 1.262 77.97999999999999 C 17.77 92.88199999999999 39.621 101.85199999999999 63.875 101.85199999999999 C 81.18 101.85199999999999 101.305 96.422 115.156 86.192 C 117.429 84.50299999999999 115.45400000000001 81.93799999999999 113.13600000000001 82.988 C 97.60300000000001 89.55799999999999 80.715 92.758 65.34800000000001 92.758 C 42.570000000000014 92.758 20.548000000000016 86.485 2.6950000000000145 76.125 C 2.3050000000000144 75.894 1.9400000000000146 75.821 1.6310000000000144 75.859 z" stroke-linecap="round" />
</g>
</svg>