<?xml version="1.0" encoding="UTF-8" standalone="no" ?>
<!DOCTYPE svg PUBLIC "-//W3C//DTD SVG 1.1//EN" "http://www.w3.org/Graphics/SVG/1.1/DTD/svg11.dtd">
<svg xmlns="http://www.w3.org/2000/svg" xmlns:xlink="http://www.w3.org/1999/xlink" version="1.1" width="1080" height="1080" viewBox="0 0 1080 1080" xml:space="preserve">
<desc>Created with Fabric.js 5.2.4</desc>
<defs>
</defs>
<g transform="matrix(1 0 0 1 540 540)" id="bec852c6-6738-4e65-abeb-f10fea5246f0"  >
<rect style="stroke: none; stroke-width: 1; stroke-dasharray: none; stroke-linecap: butt; stroke-dashoffset: 0; stroke-linejoin: miter; stroke-miterlimit: 4; fill: rgb(255,255,255); fill-rule: nonzero; opacity: 1; visibility: hidden;" vector-effect="non-scaling-stroke"  x="-540" y="-540" rx="0" ry="0" width="1080" height="1080" />
</g>
<g transform="matrix(1 0 0 1 540 540)" id="f3d19c49-2513-4daa-891b-f771765f606e"  >
</g>
<g transform="matrix(4.22 0 0 4.22 540 540)"  >
<path style="stroke: none; stroke-width: 1; stroke-dasharray: none; stroke-linecap: butt; stroke-dashoffset: 0; stroke-linejoin: miter; stroke-miterlimit: 4; fill: rgb(126,19,248); fill-rule: nonzero; opacity: 1;"  transform=" translate(-128, -101.97)" d="M 53.1720678 0 C 38.5648814 0 27.7564746 12.7848136 28.2402712 26.6500339 C 28.7045424 39.9707119 28.1014237 57.2225085 23.7581017 71.291661 C 19.4017627 85.4020339 12.0341695 94.340339 0 95.488 L 0 108.444203 C 12.0341695 109.591864 19.4017627 118.530169 23.7581017 132.640542 C 28.1014237 146.709695 28.7045424 163.961492 28.2402712 177.282169 C 27.7564746 191.14522 38.5648814 203.932203 53.1742373 203.932203 L 202.847458 203.932203 C 217.454644 203.932203 228.260881 191.14739 227.777085 177.282169 C 227.312814 163.961492 227.915932 146.709695 232.259254 132.640542 C 236.617763 118.530169 243.965831 109.591864 256 108.444203 L 256 95.488 C 243.965831 94.340339 236.617763 85.4020339 232.259254 71.291661 C 227.915932 57.224678 227.312814 39.9707119 227.777085 26.6500339 C 228.260881 12.7869831 217.454644 0 202.847458 0 L 53.1698983 0 L 53.1720678 0 Z M 173.559322 125.533288 C 173.559322 144.624814 159.31878 156.20339 135.686508 156.20339 L 95.4576271 156.20339 C 93.0612729 156.20339 91.1186441 154.260761 91.1186441 151.864407 L 91.1186441 52.0677966 C 91.1186441 49.6714424 93.0612729 47.7288136 95.4576271 47.7288136 L 135.456542 47.7288136 C 155.162034 47.7288136 168.094373 58.4027119 168.094373 74.7910508 C 168.094373 86.2936949 159.394712 96.5922712 148.31078 98.3951186 L 148.31078 98.9960678 C 163.399593 100.65139 173.559322 111.099661 173.559322 125.533288 Z M 131.299797 61.4833898 L 108.361763 61.4833898 L 108.361763 93.8825763 L 127.681085 93.8825763 C 142.615864 93.8825763 150.851254 87.8687458 150.851254 77.1189153 C 150.851254 67.0459661 143.770034 61.4833898 131.299797 61.4833898 L 131.299797 61.4833898 Z M 108.361763 106.738983 L 108.361763 142.444475 L 132.143729 142.444475 C 147.692475 142.444475 155.930034 136.205017 155.930034 124.478915 C 155.930034 112.750644 147.462508 106.736814 131.143593 106.736814 L 108.361763 106.736814 L 108.361763 106.738983 Z" stroke-linecap="round" />
</g>
</svg>