<?xml version="1.0" encoding="UTF-8" standalone="no" ?>
<!DOCTYPE svg PUBLIC "-//W3C//DTD SVG 1.1//EN" "http://www.w3.org/Graphics/SVG/1.1/DTD/svg11.dtd">
<svg xmlns="http://www.w3.org/2000/svg" xmlns:xlink="http://www.w3.org/1999/xlink" version="1.1" width="1080" height="1080" viewBox="0 0 1080 1080" xml:space="preserve">
<desc>Created with Fabric.js 5.2.4</desc>
<defs>
</defs>
<g transform="matrix(1 0 0 1 540 540)" id="249e61eb-6838-4da3-a194-32cb4888c2a6"  >
<rect style="stroke: none; stroke-width: 1; stroke-dasharray: none; stroke-linecap: butt; stroke-dashoffset: 0; stroke-linejoin: miter; stroke-miterlimit: 4; fill: rgb(255,255,255); fill-rule: nonzero; opacity: 1; visibility: hidden;" vector-effect="non-scaling-stroke"  x="-540" y="-540" rx="0" ry="0" width="1080" height="1080" />
</g>
<g transform="matrix(1 0 0 1 540 540)" id="9e0ba643-89c6-41ee-a9c3-7efe330b3e6e"  >
</g>
<g transform="matrix(8.44 0 0 8.44 540 540)"  >
<g style=""   >
		<g transform="matrix(1 0 0 1 0 -2.32)"  >
<path style="stroke: none; stroke-width: 1; stroke-dasharray: none; stroke-linecap: butt; stroke-dashoffset: 0; stroke-linejoin: miter; stroke-miterlimit: 4; fill: rgb(211,56,51); fill-rule: nonzero; opacity: 1;" vector-effect="non-scaling-stroke"  transform=" translate(-64, -61.68)" d="M 108.893 61.68 C 108.893 87.03999999999999 88.794 107.598 64.001 107.598 C 39.20700000000001 107.598 19.108000000000004 87.03999999999999 19.108000000000004 61.68 C 19.108000000000004 36.32000000000001 39.208000000000006 15.759999999999998 64.001 15.759999999999998 C 88.79400000000001 15.759999999999998 108.893 36.31999999999999 108.893 61.68" stroke-linecap="round" />
</g>
		<g transform="matrix(1 0 0 1 -23.82 -18.14)"  >
<path style="stroke: none; stroke-width: 1; stroke-dasharray: none; stroke-linecap: butt; stroke-dashoffset: 0; stroke-linejoin: miter; stroke-miterlimit: 4; fill: rgb(239,61,58); fill-rule: nonzero; opacity: 1;" vector-effect="non-scaling-stroke"  transform=" translate(-40.18, -45.86)" d="M 20.938 73.052 C 20.938 73.052 17.688 25.167 61.81 23.8 L 58.732 18.67 L 34.789 26.707 L 27.949 34.574 L 21.963 46.033 L 18.543 59.372 L 19.567999999999998 68.265" stroke-linecap="round" />
</g>
		<g transform="matrix(1 0 0 1 0 -2.15)"  >
<path style="stroke: none; stroke-width: 1; stroke-dasharray: none; stroke-linecap: butt; stroke-dashoffset: 0; stroke-linejoin: miter; stroke-miterlimit: 4; fill: rgb(35,31,32); fill-rule: nonzero; opacity: 1;" vector-effect="non-scaling-stroke"  transform=" translate(-64, -61.85)" d="M 33.253 30.355 C 25.377 38.415 20.503 49.541 20.503 61.851 C 20.503 74.158 25.377 85.287 33.253 93.345 C 41.133 101.402 51.992999999999995 106.375 64 106.375 C 76.007 106.375 86.867 101.402 94.747 93.345 C 102.623 85.287 107.498 74.158 107.498 61.851 C 107.498 49.541 102.623 38.414 94.747 30.355 C 86.867 22.3 76.007 17.327 64 17.326 C 51.994 17.327 41.132999999999996 22.299 33.253 30.356 z M 31.26 95.294 C 22.89 86.733 17.714000000000002 74.902 17.714000000000002 61.851 C 17.714000000000002 48.798 22.89 36.968 31.26 28.406999999999996 C 39.63 19.843999999999994 51.214 14.536999999999997 64 14.537999999999997 C 76.788 14.535999999999996 88.374 19.843999999999998 96.741 28.406999999999996 C 105.113 36.967999999999996 110.289 48.79899999999999 110.288 61.851 C 110.288 74.901 105.113 86.733 96.741 95.294 C 88.374 103.856 76.788 109.164 64.001 109.164 C 51.214000000000006 109.164 39.629000000000005 103.856 31.261000000000003 95.294" stroke-linecap="round" />
</g>
		<g transform="matrix(1 0 0 1 0.77 -30.97)"  >
<path style="stroke: none; stroke-width: 1; stroke-dasharray: none; stroke-linecap: butt; stroke-dashoffset: 0; stroke-linejoin: miter; stroke-miterlimit: 4; fill: rgb(240,214,183); fill-rule: nonzero; opacity: 1;" vector-effect="non-scaling-stroke"  transform=" translate(-64.77, -33.03)" d="M 82.898 61.934 L 76.057 62.96 L 66.822 63.986000000000004 L 60.836000000000006 64.15700000000001 L 55.02100000000001 63.98700000000001 L 50.57500000000001 62.61800000000001 L 46.64100000000001 58.34300000000001 L 43.56300000000001 49.62100000000001 L 42.87900000000001 47.74000000000001 L 38.774000000000015 46.37200000000001 L 36.38000000000002 42.43800000000001 L 34.670000000000016 36.79400000000001 L 36.551000000000016 31.83400000000001 L 40.997000000000014 30.29600000000001 L 44.58900000000001 32.00600000000001 L 46.299000000000014 35.76800000000001 L 48.35200000000001 35.42600000000001 L 49.03500000000001 34.57100000000001 L 48.35200000000001 30.638000000000012 L 48.180000000000014 25.67800000000001 L 49.20600000000002 18.83800000000001 L 49.16600000000002 14.930000000000012 L 52.28500000000002 9.945000000000011 L 57.75700000000002 6.011000000000011 L 67.33500000000002 1.9070000000000107 L 77.93800000000002 3.4460000000000104 L 87.17300000000002 10.11600000000001 L 91.44900000000001 16.95600000000001 L 94.18500000000002 21.91600000000001 L 94.86900000000001 34.22900000000001 L 92.81600000000002 44.83300000000001 L 89.05400000000002 54.238000000000014 L 85.46300000000002 59.198000000000015" stroke-linecap="round" />
</g>
		<g transform="matrix(1 0 0 1 -0.94 20.59)"  >
<path style="stroke: none; stroke-width: 1; stroke-dasharray: none; stroke-linecap: butt; stroke-dashoffset: 0; stroke-linejoin: miter; stroke-miterlimit: 4; fill: rgb(51,80,97); fill-rule: nonzero; opacity: 1;" vector-effect="non-scaling-stroke"  transform=" translate(-63.06, -84.59)" d="M 88.027 56.975 L 83.924 61.08 L 83.924 76.984 L 80.34400000000001 91.64399999999999 L 78.623 91.69099999999999 L 79.99000000000001 108.10899999999998 L 86.48800000000001 107.25399999999998 L 84.95 91.52 L 82.048 91.59899999999999 L 89.911 91.17699999999999 C 89.911 91.17699999999999 93.843 81.258 93.843 80.74499999999999 C 93.843 80.23199999999999 97.265 66.38 97.265 66.38 L 89.56700000000001 58.342999999999996 L 88.028 56.973 z M 46.812 59.539 L 42.537 61.25 L 28.854999999999997 70.656 L 29.711 73.393 L 33.644999999999996 85.021 L 35.354 104.348 L 36.551 106.398 L 53.652 112.215 L 54.68 111.015 L 52.627 96.65 L 52.627 92.54700000000001 L 77.082 91.52000000000001 L 78.96199999999999 90.49400000000001 L 64.08599999999998 83.48200000000001 L 66.82199999999999 78.18200000000002 L 62.88899999999999 79.54900000000002 L 61.34899999999999 77.66800000000002 L 59.29699999999999 68.77500000000002 L 57.58599999999999 68.26200000000001 L 53.82399999999999 67.06400000000002 L 50.57399999999999 64.15800000000002 L 46.81299999999999 59.539000000000016 z" stroke-linecap="round" />
</g>
		<g transform="matrix(1 0 0 1 -17.19 -44.39)"  >
<path style="stroke: none; stroke-width: 1; stroke-dasharray: none; stroke-linecap: butt; stroke-dashoffset: 0; stroke-linejoin: miter; stroke-miterlimit: 4; fill: rgb(109,107,109); fill-rule: nonzero; opacity: 1;" vector-effect="non-scaling-stroke"  transform=" translate(-46.81, -19.61)" d="M 36.551 31.835 L 40.997 30.295 L 44.589 32.006 L 46.299 35.768 L 48.352 35.426 L 48.864999999999995 33.374 L 47.83899999999999 29.441000000000003 L 48.864999999999995 20.034000000000002 L 48.00899999999999 14.904000000000003 L 51.087999999999994 11.312000000000003 L 57.757999999999996 6.011000000000003 L 55.876 3.446000000000003 L 46.47 8.063000000000002 L 42.537 11.142000000000003 L 40.313 15.930000000000003 L 36.893 20.547000000000004 L 35.867 26.020000000000003 L 36.550999999999995 31.835000000000004" stroke-linecap="round" />
</g>
		<g transform="matrix(1 0 0 1 -15.52 -46.07)"  >
<path style="stroke: none; stroke-width: 1; stroke-dasharray: none; stroke-linecap: butt; stroke-dashoffset: 0; stroke-linejoin: miter; stroke-miterlimit: 4; fill: rgb(220,217,216); fill-rule: nonzero; opacity: 1;" vector-effect="non-scaling-stroke"  transform=" translate(-48.48, -17.93)" d="M 59.445 4.021 C 58.273 4.009 56.902 4.129 56.902 4.129 L 45.787 8.406 L 41.51 12.682 L 39.629 16.102 L 43.562999999999995 15.76 C 43.562999999999995 15.76 46.12799999999999 9.431999999999999 56.388999999999996 6.353999999999999 C 62.80199999999999 4.43 61.398999999999994 4.042 59.44499999999999 4.020999999999999 z M 48.01 14.904 L 38.604 17.127 L 35.867 26.02 L 36.550999999999995 31.834 L 38.431 30.639 C 38.431 30.639 34.839999999999996 18.665 48.521 16.955 L 48.01 14.904999999999998 z" stroke-linecap="round" />
</g>
		<g transform="matrix(1 0 0 1 -1.71 -31.97)"  >
<path style="stroke: none; stroke-width: 1; stroke-dasharray: none; stroke-linecap: butt; stroke-dashoffset: 0; stroke-linejoin: miter; stroke-miterlimit: 4; fill: rgb(247,228,205); fill-rule: nonzero; opacity: 1;" vector-effect="non-scaling-stroke"  transform=" translate(-62.29, -32.03)" d="M 69.986 0.475 C 68.6689159712465 0.49838446966407673 67.3660249970844 0.7515175732155723 66.13600000000001 1.2230000000000012 C 55.87600000000001 5.156 48.35100000000001 12.338000000000001 48.521000000000015 16.955 C 48.81300000000002 24.819 48.69300000000001 24.825 48.69300000000001 24.825 C 48.69300000000001 24.825 51.601 9.774 66.31 6.866 C 78.418 4.473 84.778 7.378 87.173 10.114 C 87.173 10.114 78.923 0.2940000000000005 69.987 0.4740000000000002 z M 88.31400000000001 11.825 C 87.769 11.822 83.40100000000001 11.933 83.24000000000001 16.102 C 83.24000000000001 16.102 83.24000000000001 16.785 83.58200000000001 17.469 C 83.58200000000001 17.469 87.516 13.022000000000002 89.91000000000001 15.416 L 88.37100000000001 11.826 C 88.37100000000001 11.826 88.35100000000001 11.824 88.31400000000001 11.824 z M 63.129000000000005 13.834999999999999 C 62.289 13.854999999999999 61.25300000000001 14.206 59.980000000000004 15.075 C 56.218 17.64 56.56 21.232 57.24400000000001 21.916 C 57.928000000000004 22.6 57.74300000000001 23.976 58.26400000000001 23.031 C 58.78400000000001 22.086 58.61300000000001 19.009 60.49400000000001 18.154 C 62.37500000000001 17.299 65.46000000000001 16.342 66.65400000000001 17.932 C 66.65400000000001 17.932 66.132 13.765999999999998 63.12900000000001 13.835999999999999 z M 89.566 24.311 C 89.566 24.311 86.748 24.905 86.488 27.389 C 86.228 29.872 89.567 27.901 90.08 27.73 L 89.566 24.310000000000002 z M 68.873 24.482 C 68.873 24.482 65.111 24.995 65.111 27.389 C 65.111 29.782999999999998 69.387 29.612 70.584 28.586 L 68.873 24.482 z M 38.432 30.64 L 34.5 34.742 L 35.184 39.873 L 37.233999999999995 45.172999999999995 L 39.458999999999996 45.858999999999995 C 36.208999999999996 41.925999999999995 37.748 39.187999999999995 38.431999999999995 35.425999999999995 C 39.114999999999995 31.662999999999997 45.614999999999995 35.59799999999999 45.614999999999995 35.59799999999999 L 45.443 33.03099999999999 L 42.879 30.98099999999999 L 38.431999999999995 30.638999999999992 z M 77.041 38.487 C 75.91499999999999 38.437000000000005 75.485 42.122 75.393 43.073 C 75.703 42.153 78.56400000000001 40.303 78.56400000000001 40.303 C 78.56400000000001 40.303 78.56400000000001 38.907 77.168 38.509 C 77.12667734409455 38.49670546457355 77.08405031093747 38.4893212541054 77.04100000000001 38.487 z M 75.393 43.073 C 75.36529783601044 43.14322914966824 75.35835580425355 43.21993860058189 75.373 43.294 C 75.373 43.294 75.379 43.214 75.393 43.074 z M 46.144999999999996 44.374 L 43.904999999999994 46.544000000000004 L 44.41799999999999 54.069 L 49.89099999999999 62.620000000000005 C 49.89099999999999 62.620000000000005 56.03399999999999 64.006 55.36299999999999 63.476000000000006 C 48.00999999999999 57.66100000000001 47.49699999999999 46.88600000000001 47.32599999999999 45.688 C 47.15599999999999 44.492000000000004 46.144999999999996 44.374 46.144999999999996 44.374 z M 65.389 46.923 C 64.714 46.933 64.267 47.151 64.14099999999999 47.319 C 63.71399999999999 47.889 64.59799999999998 50.991 64.59799999999998 50.991 L 65.45299999999999 51.163 C 65.28299999999999 47.742 67.33399999999999 47.398999999999994 67.33399999999999 47.398999999999994 C 66.576 47.035 65.91399999999999 46.91499999999999 65.389 46.922999999999995 z" stroke-linecap="round" />
</g>
		<g transform="matrix(1 0 0 1 -1.03 17.52)"  >
<path style="stroke: none; stroke-width: 1; stroke-dasharray: none; stroke-linecap: butt; stroke-dashoffset: 0; stroke-linejoin: miter; stroke-miterlimit: 4; fill: rgb(73,114,139); fill-rule: nonzero; opacity: 1;" vector-effect="non-scaling-stroke"  transform=" translate(-62.97, -81.52)" d="M 45.615 59.37 L 28.855 70.65599999999999 L 30.736 75.95899999999999 L 35.184 95.11099999999999 L 35.354 105.20299999999999 L 37.748 106.05699999999999 C 41.168 97.84699999999998 34.5 71.33999999999999 34.5 71.33999999999999 L 50.574 64.15799999999999 L 45.614999999999995 59.368999999999986 z M 52.229 78.818 L 51.771 79.89099999999999 C 51.771 79.89099999999999 51.43 82.969 51.43 83.82399999999998 C 51.43 84.67999999999998 51.771 91.86399999999998 51.771 91.86399999999998 L 54.508 91.86399999999998 L 54.508 81.601 L 52.228 78.817 z M 52.285 93.402 L 44.589999999999996 93.744 L 46.812 95.284 L 52.285 96.13900000000001 L 52.285 93.40200000000002 z M 88.02699999999999 56.975 L 84.77899999999998 60.566 L 96.75 69.46 L 97.092 65.356 L 88.027 56.97599999999999 z M 84.60699999999999 90.495 L 78.62299999999999 91.691 L 79.47699999999999 96.48100000000001 C 81.69999999999999 97.507 85.463 94.77000000000001 85.463 94.77000000000001 L 84.607 90.49400000000001 z" stroke-linecap="round" />
</g>
		<g transform="matrix(1 0 0 1 15.28 30.86)"  >
<path style="stroke: none; stroke-width: 1; stroke-dasharray: none; stroke-linecap: butt; stroke-dashoffset: 0; stroke-linejoin: miter; stroke-miterlimit: 4; fill: rgb(255,255,255); fill-rule: nonzero; opacity: 1;" vector-effect="non-scaling-stroke"  transform=" translate(-79.28, -94.86)" d="M 50.574 62.62 L 50.574 64.158 L 52.748 66.553 L 59.587999999999994 69.631 L 59.75999999999999 64.502 L 55.020999999999994 63.986 L 50.57399999999999 62.619 z M 100.633 86.904 L 95.16 88.615 L 89.91 91.178 L 87.121 90.66799999999999 L 84.949 91.52099999999999 L 86.78099999999999 105.88899999999998 L 93.449 104.00599999999999 L 106.105 103.32199999999999 L 107.986 97.50799999999998 L 104.566 87.41799999999998 L 100.63300000000001 86.90399999999998 z M 78.62299999999999 91.691 L 68.65299999999999 91.693 L 52.626999999999995 92.547 L 52.91799999999999 100.416 L 54.67999999999999 111.01599999999999 L 58.21999999999999 125.38499999999999 L 66.08599999999998 127.094 L 79.08399999999999 126.068 L 79.25399999999999 123.502 L 77.71399999999998 109.64999999999999 L 78.62299999999999 91.69099999999999 z M 79.93999999999998 90.325 L 76.17699999999998 80.748 L 72.24299999999998 75.104 C 72.24299999999998 75.104 73.09799999999998 72.71 74.29599999999998 72.71 L 78.22899999999998 72.71 L 81.99099999999999 74.07799999999999 L 81.64999999999999 80.40599999999999 L 79.94 90.326" stroke-linecap="round" />
</g>
		<g transform="matrix(1 0 0 1 15.65 31.54)"  >
<path style="stroke: none; stroke-width: 1; stroke-dasharray: none; stroke-linecap: butt; stroke-dashoffset: 0; stroke-linejoin: miter; stroke-miterlimit: 4; fill: rgb(220,217,216); fill-rule: nonzero; opacity: 1;" vector-effect="non-scaling-stroke"  transform=" translate(-79.65, -95.54)" d="M 52.115 65.014 L 51.602000000000004 65.699 L 54.510000000000005 67.75 L 59.297000000000004 68.775 L 59.127 66.72500000000001 C 57.417 67.23800000000001 52.115 65.01400000000001 52.115 65.01400000000001 z M 75.885 72.36699999999999 L 71.953 72.87899999999999 L 78.623 88.61299999999999 L 79.99000000000001 88.78499999999998 L 80.674 87.07499999999999 C 80.674 87.07499999999999 75.884 77.83899999999998 75.884 76.47099999999999 C 75.884 76.47099999999999 76.74 74.41899999999998 77.937 74.93099999999998 C 79.13499999999999 75.44499999999998 81.701 76.81299999999999 81.701 76.81299999999999 L 81.701 73.564 L 75.88499999999999 72.36699999999999 z M 92.13300000000001 90.32399999999998 L 89.91000000000001 91.17799999999998 L 91.79100000000001 100.58399999999999 C 91.10700000000001 100.41299999999998 86.66100000000002 102.46699999999998 86.66100000000002 102.46699999999998 L 87.17100000000002 105.20299999999999 L 89.05500000000002 104.51799999999999 L 95.03900000000002 103.66399999999999 L 96.75000000000001 105.88699999999999 L 101.88000000000001 106.05699999999999 L 104.959 105.37299999999999 L 107.69500000000001 101.27 L 107.52300000000001 98.19 L 105.64300000000001 92.717 C 106.15600000000002 96.821 104.10300000000001 100.756 104.10300000000001 100.756 C 103.248 100.756 93.67200000000001 100.242 93.67200000000001 100.242 C 93.67200000000001 99.21600000000001 92.132 90.32400000000001 92.132 90.32400000000001 z M 78.96300000000001 90.49399999999999 L 76.39800000000001 91.52099999999999 C 76.39800000000001 91.52099999999999 75.54400000000001 109.30799999999999 78.10900000000001 121.963 C 78.10900000000001 121.963 72.97900000000001 125.21199999999999 65.453 126.06599999999999 L 79.818 125.55299999999998 L 81.529 124.52699999999999 L 79.47699999999999 96.47999999999999 L 78.963 90.49399999999999 z M 83.433 108.79099999999998 C 82.697 108.79499999999999 81.60300000000001 109.31699999999998 80.83000000000001 109.26599999999998 C 80.71700000000001 111.96699999999997 81.09600000000002 116.29899999999998 81.22300000000001 119.13299999999998 C 83.01900000000002 119.13499999999998 83.78800000000001 118.74099999999999 85.12900000000002 118.28899999999999 C 85.28000000000002 114.954 84.07200000000002 111.86699999999999 83.72500000000002 108.82199999999999 C 83.62980337357209 108.79881089276684 83.53194539405023 108.78838615955317 83.43400000000003 108.79099999999998 z" stroke-linecap="round" />
</g>
		<g transform="matrix(1 0 0 1 9.84 7.09)"  >
<path style="stroke: none; stroke-width: 1; stroke-dasharray: none; stroke-linecap: butt; stroke-dashoffset: 0; stroke-linejoin: miter; stroke-miterlimit: 4; fill: rgb(211,56,51); fill-rule: nonzero; opacity: 1;" vector-effect="non-scaling-stroke"  transform=" translate(-73.84, -71.09)" d="M 84.777 63.818 C 82.58500000000001 63.919999999999995 79.629 66.715 78.252 67.205 C 78.42999999999999 67.717 78.722 68.122 78.744 68.77499999999999 C 79.709 68.53699999999999 80.884 68.69999999999999 81.721 69.11099999999999 C 80.753 69.219 79.683 69.213 79.043 69.67399999999999 C 78.808 70.351 79.09800000000001 71.27399999999999 78.941 72.214 C 81.23700000000001 72.862 83.86 73.208 86.761 73.29299999999999 C 87.327 72.55999999999999 87.51899999999999 71.16 87.451 69.77499999999999 C 87.371 68.10499999999999 86.93199999999999 64.67099999999999 85.901 64.07 C 85.56099999999999 63.87299999999999 85.18299999999999 63.79999999999999 84.777 63.81799999999999 z M 62.242000000000004 64.566 C 59.918000000000006 64.616 60.160000000000004 68.674 60.273 71.158 C 60.368 73.256 61.461000000000006 75.476 61.933 76.871 C 62.157 77.521 62.207 78.213 62.763 78.341 C 63.747 78.571 66.993 77.274 67.91799999999999 76.77 C 69.87299999999999 75.704 71.39099999999999 74.00999999999999 73.05099999999999 72.87299999999999 L 73.11299999999999 71.21499999999999 C 72.11499999999998 70.71699999999998 70.96299999999998 70.36299999999999 69.49599999999998 70.29899999999999 C 70.49099999999999 69.79899999999999 71.95299999999997 69.806 72.85899999999998 69.211 L 72.88499999999998 68.54899999999999 C 71.23099999999998 68.422 70.59999999999998 67.68499999999999 69.50999999999998 67.088 C 67.72599999999997 66.11399999999999 65.04599999999998 65.05099999999999 62.741999999999976 64.61099999999999 C 62.57736474679127 64.57856203288806 62.409781511494735 64.56347954171136 62.241999999999976 64.56599999999999 z M 75.672 68.023 C 75.23 68.027 74.703 68.194 74.102 68.59599999999999 C 73.988 69.85499999999999 74.28200000000001 70.26599999999999 74.53500000000001 71.71099999999998 C 78.028 72.80399999999999 78.06000000000002 68.00699999999999 75.67200000000001 68.02299999999998 z" stroke-linecap="round" />
</g>
		<g transform="matrix(1 0 0 1 9.28 6.57)"  >
<path style="stroke: none; stroke-width: 1; stroke-dasharray: none; stroke-linecap: butt; stroke-dashoffset: 0; stroke-linejoin: miter; stroke-miterlimit: 4; fill: rgb(239,61,58); fill-rule: nonzero; opacity: 1;" vector-effect="non-scaling-stroke"  transform=" translate(-73.28, -70.57)" d="M 84.557 62.621 L 78.059 66.383 L 77.715 68.26299999999999 L 77.715 72.02499999999999 L 80.10900000000001 72.88099999999999 C 80.10900000000001 72.88099999999999 78.912 71.17099999999999 79.76800000000001 70.65799999999999 C 80.62300000000002 70.14499999999998 81.47900000000001 70.65799999999999 81.99200000000002 69.80299999999998 C 82.50500000000002 68.94699999999999 81.99200000000002 68.43399999999998 82.16200000000002 67.40799999999999 C 82.33300000000003 66.38199999999999 83.18800000000002 66.21199999999999 84.04300000000002 66.04099999999998 C 84.89800000000002 65.87099999999998 87.29300000000002 65.52799999999998 87.63500000000002 66.38299999999998 L 86.60900000000002 63.30499999999998 z M 63.021 63.651 C 62.174 63.633 61.402 63.773 60.836 64.158 C 56.815 66.893 60.056 73.214 62.025999999999996 76.932 C 61.85912380121786 74.7946392424529 61.67978741982789 72.65826959872024 61.487999999999985 70.5230000000002 C 61.126 66.54299999999999 62.445 67.238 65.896 67.238 C 66.424 67.238 69.141 67.866 69.336 68.264 C 70.269 70.169 67.776 69.74499999999999 70.41 71.182 C 72.634 72.394 76.562 70.44500000000001 75.664 67.75 C 75.161 67.15 73.044 67.563 72.285 67.17 L 68.277 65.092 C 67.109 64.485 64.885 63.689 63.021 63.65 Z M 62.025 76.931 C 62.067 77.463 62.111 77.994 62.152 78.52499999999999 L 62.764 78.34199999999998 C 62.56 77.93699999999998 62.304 77.45899999999999 62.025000000000006 76.93199999999999 z" stroke-linecap="round" />
</g>
		<g transform="matrix(1 0 0 1 4.21 0)"  >
<path style="stroke: none; stroke-width: 1; stroke-dasharray: none; stroke-linecap: butt; stroke-dashoffset: 0; stroke-linejoin: miter; stroke-miterlimit: 4; fill: rgb(35,31,32); fill-rule: nonzero; opacity: 1;" vector-effect="non-scaling-stroke"  transform=" translate(-68.21, -64)" d="M 67.565 0.006 C 63.974999999999994 0.07400000000000001 60.464 0.671 57.538 1.748 C 55.363 2.548 53.256 3.2640000000000002 51.346 4.386 C 46.235 7.386 40.809 9.394 39.294 15.433 C 35.559999999999995 17.105 34.434 21.884 34.622 27.43 C 34.658 28.511 35.245 29.862 35.042 30.878999999999998 C 34.938 31.394999999999996 34.238 32.056 34.098 32.391999999999996 C 32.308 36.659 33.743 42.267999999999994 35.811 45.300999999999995 C 37.061 47.132999999999996 39.131 48.757999999999996 41.861 49.18899999999999 C 41.97 50.82399999999999 42.363 52.230999999999995 43.117999999999995 53.88799999999999 C 43.596 54.93599999999999 45.38099999999999 56.81999999999999 44.724 58.15699999999999 C 44.394 58.83099999999999 41.486999999999995 60.29399999999999 40.522999999999996 60.87299999999999 C 37.267999999999994 62.82499999999999 34.909 64.02199999999999 31.903999999999996 66.18499999999999 C 29.959999999999997 67.585 26.918999999999997 67.76499999999999 27.398999999999997 70.993 C 27.721999999999998 73.17099999999999 28.961999999999996 75.871 29.670999999999996 78.05499999999999 C 30.438999999999997 80.41199999999999 31.538999999999994 82.571 32.17099999999999 85.017 C 33.57599999999999 90.46799999999999 33.86899999999999 95.604 34.21099999999999 100.928 C 34.34499999999999 103.01299999999999 34.12299999999999 105.219 34.663999999999994 106.37 C 35.221999999999994 107.56 37.28999999999999 107.94 38.78399999999999 108.634 C 43.09899999999999 110.629 47.67699999999999 113.676 53.33599999999999 113.071 C 54.68499999999999 117.607 55.959999999999994 122.438 57.57899999999999 126.411 C 63.38199999999999 128.497 72.54299999999999 128.171 78.576 127.446 C 80.41 127.224 82.345 126.319 82.776 124.729 C 82.64699999999999 123.749 82.50399999999999 122.779 82.566 121.62 C 84.452 121.23 87.019 120.908 87.434 118.82000000000001 C 88.01599999999999 115.89200000000001 85.585 111.697 86.396 108.48400000000001 C 87.488 108.13000000000001 88.654 107.85300000000001 88.48 106.129 C 90.32000000000001 105.171 92.503 104.95700000000001 94.833 105.04700000000001 C 95.133 105.62700000000001 95.56 106.18500000000002 95.944 106.504 C 99.208 107.16000000000001 102.369 107.214 105.07900000000001 106.33 C 108.14600000000002 105.328 109.60900000000001 99.05499999999999 108.908 96.07 C 108.41 93.955 107.284 90.49 106.324 88.442 C 103.723 82.88199999999999 95.971 86.372 91.822 88.434 C 93.83500000000001 83.139 95.566 77.649 97.342 71.709 C 97.872 69.929 98.92 67.406 98.685 65.562 C 98.465 63.827999999999996 95.761 62.006 94.33800000000001 60.632 C 93.54700000000001 59.87 89.85900000000001 57.07 89.64500000000001 56.022 C 89.43800000000002 55.007999999999996 91.14900000000002 52.711 91.69900000000001 51.562 C 92.48900000000002 49.918 93.055 47.906 93.44400000000002 46.537 C 96.34400000000002 36.341 96.63900000000001 22.333 92.49300000000002 13.951 C 90.92300000000003 10.776 86.53300000000003 6.391000000000001 83.78800000000003 4.314 C 79.74 1.254 73.546 -0.106 67.565 0.006 Z M 68.04299999999999 2.8459999999999996 C 72.89 2.799 78.28 4.509 81.93 6.568 C 84.98 8.288 87.23 11.616 89.376 14.385 C 86.367 13.491999999999999 83.80600000000001 15.027 84.27300000000001 17.509 C 86.79200000000002 15.2 91.09500000000001 17.484 92.36800000000001 20.037 C 93.58500000000001 22.477 93.57700000000001 26.094 93.76400000000001 29.722 C 94.21700000000001 38.52 92.15400000000001 47.597 87.733 53.956 C 86.551 55.654 85.559 57.510000000000005 83.897 58.679 C 79.891 61.492000000000004 73.802 64.042 68.58800000000001 62.293 C 61.69800000000001 59.981 58.56800000000001 55.39 54.778000000000006 50.132999999999996 C 54.88100000000001 53.020999999999994 56.912000000000006 55.391 58.918000000000006 57.599999999999994 C 60.663000000000004 59.52499999999999 62.769000000000005 61.699999999999996 65.03500000000001 62.59799999999999 C 63.14500000000001 62.15399999999999 60.24300000000001 62.01499999999999 59.45500000000001 63.71199999999999 C 55.045000000000016 63.41899999999999 50.94700000000002 62.96799999999999 48.86100000000001 59.97899999999999 C 47.21700000000001 57.62299999999999 45.54700000000001 53.61599999999999 44.79800000000001 50.520999999999994 C 44.64500000000001 49.88499999999999 44.38300000000001 48.53099999999999 44.44700000000001 48.18399999999999 C 44.69300000000001 46.840999999999994 47.08500000000001 46.25099999999999 46.14400000000001 44.37399999999999 C 44.408000000000015 44.35799999999999 44.01700000000001 45.953999999999986 42.424000000000014 46.11199999999999 C 38.299000000000014 46.51999999999999 35.38900000000001 40.64499999999999 35.576000000000015 37.09999999999999 C 35.735000000000014 34.085999999999984 38.283000000000015 31.201999999999988 41.768000000000015 31.582999999999988 C 44.231000000000016 31.852999999999987 45.06800000000001 34.54099999999999 45.546000000000014 36.932999999999986 C 46.966000000000015 37.008999999999986 49.01700000000001 36.871999999999986 49.689000000000014 35.76399999999999 C 49.59200000000001 33.060999999999986 48.33700000000002 30.892999999999986 48.423000000000016 28.40899999999999 C 48.585000000000015 23.74099999999999 51.128000000000014 19.52899999999999 49.16600000000002 14.930999999999989 C 51.26600000000002 10.166999999999987 57.42700000000002 6.406999999999989 61.984000000000016 4.133999999999988 C 63.74900000000002 3.253999999999988 65.84000000000002 2.8699999999999877 68.04400000000001 2.847999999999988 z M 55.505 5.192 C 55.703 5.224 55.885000000000005 5.378 56.061 5.566 C 56.031 6.377 55.231 6.359999999999999 54.691 6.62 C 53.851 7.6530000000000005 52.623000000000005 8.136 51.601 9.268 C 50.552 10.428 49.379 13.544 47.989 13.888000000000002 C 47.291999999999994 14.062000000000001 46.495999999999995 13.768000000000002 45.888999999999996 13.808000000000002 C 44.284 13.909000000000002 43.153999999999996 14.731000000000002 41.525999999999996 14.967000000000002 C 43.62799999999999 10.372000000000003 50.184999999999995 6.654000000000002 55.3 5.205000000000002 C 55.36652743155704 5.1855388632777615 55.43654713859835 5.181098589172702 55.504999999999995 5.192000000000002 z M 64.245 15.165000000000001 C 61.608000000000004 15.168000000000001 58.605000000000004 17.987000000000002 57.822 20.138 C 57.504000000000005 21.012 57.002 22.728 58.263000000000005 23.033 C 59.676 19.884 61.992000000000004 16.848000000000003 66.653 17.933 C 67.548 16.462 65.94800000000001 15.381 64.766 15.203 C 64.59320179886004 15.177236901504397 64.4187075803879 15.164534257247805 64.244 15.165 z M 47.589000000000006 15.645000000000001 C 49.391000000000005 20.231 46.29600000000001 25.681 47.449000000000005 30.696 C 47.80200000000001 32.232 49.023 34.616 47.07300000000001 34.668 C 47.12400000000001 30.298 41.70300000000001 27.525 37.61800000000001 30.094 C 37.345000000000006 26.78 36.87200000000001 22.121000000000002 39.13200000000001 19.635 C 41.21700000000001 17.339000000000002 44.09100000000001 15.910000000000002 47.58900000000001 15.645000000000001 z M 89.36500000000001 23.242 C 89.21600000000001 25.759 90.15100000000001 27.274 90.80000000000001 29.054000000000002 C 89.67800000000001 29.76 87.495 29.32 86.23000000000002 29.873 C 86.14000000000001 33.596000000000004 91.99000000000002 31.761000000000003 92.88000000000002 29.688000000000002 C 91.55000000000003 27.756000000000004 90.63900000000002 25.438000000000002 89.58500000000002 23.251 L 89.36500000000002 23.241 z M 69.04 23.299 C 68.34800000000001 25.262999999999998 70.22800000000001 28.597 71.28200000000001 30.283 C 69.909 31.616 67.44000000000001 30.509 65.60300000000001 30.423000000000002 C 63.85000000000001 33.192 69.02600000000001 33.713 71.24700000000001 33.057 C 71.85500000000002 32.878 72.90700000000001 31.967000000000002 73.05200000000002 31.557000000000002 C 73.66900000000003 29.824 72.42500000000003 29.064000000000004 71.78500000000003 28.44 C 70.36500000000002 27.056 70.03900000000003 25.130000000000003 69.04000000000002 23.299 z M 79.589 25.108999999999998 C 79.455 25.090999999999998 79.294 25.139 79.101 25.279 C 78.976 29.895 82.406 33.716 84.964 36.799 C 86.214 38.304 87.72 39.164 86.333 41.502 C 84.097 42.352000000000004 80.478 44.787000000000006 77.369 44.255 C 75.719 43.973000000000006 76.091 42.1 75.499 41.082 C 74.36099999999999 42.579 74.807 44.844 75.979 45.862 C 81.458 46.404 85.187 44.068000000000005 88.531 41.919000000000004 C 88.39800000000001 41.077000000000005 89.543 39.559000000000005 89.22500000000001 38.293000000000006 C 89.11500000000001 37.857000000000006 88.123 37.22500000000001 87.52100000000002 36.56600000000001 C 85.06800000000001 33.89100000000001 81.70700000000002 29.89400000000001 80.37100000000001 26.768000000000008 C 80.251 26.488000000000007 80.17000000000002 25.18500000000001 79.58900000000001 25.108000000000008 z M 40.609 33.744 C 39.342 33.724 38.194 34.559 37.923 36.527 C 38.485 36.159 38.938 35.112 39.951 35.61 C 39.061 37.347 39.275 40.73 40.486 41.83 C 40.479 39.768 40.157999999999994 36.242999999999995 41.916 36.349999999999994 C 43.147 36.42399999999999 43.395999999999994 39.059999999999995 44.443999999999996 39.657999999999994 C 45.166999999999994 36.17999999999999 42.721999999999994 33.775999999999996 40.608999999999995 33.74399999999999 z M 90.66 44.104 C 87.987 45.324 85.83 47.101 82.338 47.436 C 82.169 48.013 82.241 49.469 82.33399999999999 50.426 C 86.90099999999998 50.331 89.10399999999998 47.068000000000005 90.66 44.105000000000004 z M 68.776 46.025 C 70.11099999999999 49.598 76.12899999999999 50.858 81.219 50.604 C 81.211 49.546 81.216 48.474 81.00399999999999 47.606 C 77.044 47.722 71.689 47.557 68.776 46.026 z M 68.223 48.882999999999996 C 65.65 48.885999999999996 67.82 50.31699999999999 68.256 50.876999999999995 C 69.158 52.03699999999999 70.216 54.016 71.864 54.891999999999996 C 74.462 56.272 79.622 55.693 81.494 54.931999999999995 C 82.18599999999999 54.651999999999994 82.744 53.87499999999999 83.001 53.218999999999994 C 77.161 53.358999999999995 70.238 53.940999999999995 68.223 48.882999999999996 z M 87.65899999999999 58.712999999999994 C 89.65899999999999 60.32399999999999 90.86699999999999 61.839999999999996 92.785 63.562999999999995 C 93.825 64.496 95.87299999999999 65.61399999999999 96.08 67.12299999999999 C 96.195 67.96499999999999 95.679 70.02799999999999 95.489 70.975 C 94.649 75.12899999999999 92.759 80.61699999999999 90.959 84.97 C 90.305 86.55199999999999 89.679 88.53 88.816 88.872 C 86.452 89.808 83.583 88.781 81.574 90.032 C 84.274 85.347 87.214 80.92099999999999 89.86 76.17999999999999 C 89.457 75.24 88.469 74.839 88.182 73.79199999999999 C 90.04 70.28299999999999 89.186 59.38899999999999 84.444 61.688999999999986 C 85.107 60.71499999999999 86.848 59.91099999999999 87.659 58.71299999999999 z M 45.934999999999995 61.19299999999999 C 46.36599999999999 61.02299999999999 49.51199999999999 65.11599999999999 49.977 65.448 C 52.526999999999994 67.258 55.693 68.68799999999999 58.653999999999996 70.101 C 58.834999999999994 71.46 59.254 73.221 59.992 75.577 C 60.805 78.179 61.476 81.851 64.914 79.975 C 64.587 81.461 62.677 82.383 63.204 84.116 C 63.534 85.203 67.144 86.546 68.288 87.192 C 70.399 88.38199999999999 72.325 89.03999999999999 73.947 89.73599999999999 C 66.577 89.93799999999999 59.656000000000006 90.538 52.845 91.46499999999999 C 52.028999999999996 90.201 52.358 88.25299999999999 52.272 86.24 C 52.178 84.054 53.086999999999996 79.12599999999999 52.228 78.82 C 51.257000000000005 78.475 51.075 80.443 51.04 80.877 C 50.858 83.185 52.138999999999996 88.072 50.876 90.835 C 49.494 90.44399999999999 48.812999999999995 89.40499999999999 47.518 88.93299999999999 C 47.01 90.53299999999999 48.57 90.61 48.410000000000004 91.62599999999999 C 48.198 92.969 45.653000000000006 91.84599999999999 45.667 93.84299999999999 C 47.324 94.109 49.866 93.32799999999999 51.637 94.07499999999999 C 52.1 99.50799999999998 52.844 104.65599999999999 53.659 110.42699999999999 C 46.611 110.06099999999999 42.049 106.559 36.854 104.13 C 36.531 92.64 34.7 80.72 30.166 70.99 C 34.922 67.32 40.244 63.437999999999995 45.936 61.193999999999996 z M 85.017 63.81899999999999 C 85.333 63.83399999999999 85.63 63.91299999999999 85.901 64.07099999999998 C 86.93299999999999 64.67299999999999 87.372 68.10699999999999 87.452 69.77699999999999 C 87.51899999999999 71.16199999999999 87.326 72.55999999999999 86.762 73.29399999999998 C 83.86 73.20899999999999 81.238 72.86399999999998 78.94200000000001 72.21599999999998 C 79.099 71.27599999999998 78.807 70.35099999999998 79.042 69.67299999999997 C 79.681 69.21299999999998 80.753 69.22099999999998 81.72 69.11299999999997 C 80.884 68.70099999999996 79.71 68.53799999999997 78.745 68.77599999999997 C 78.72200000000001 68.12199999999997 78.429 67.71799999999996 78.25200000000001 67.20599999999997 C 79.67900000000002 66.69699999999997 82.80600000000001 63.70999999999997 85.01700000000001 63.818999999999974 z M 79.817 63.94599999999999 C 78.59899999999999 64.74 77.562 65.73299999999999 76.39299999999999 66.58099999999999 C 73.79999999999998 66.71 72.38499999999999 66.40199999999999 70.47999999999999 64.91299999999998 C 70.50999999999999 64.79299999999998 70.70199999999998 64.84699999999998 70.71 64.69999999999999 C 73.485 65.93699999999998 77.014 64.19599999999998 79.81599999999999 63.94599999999999 z M 52.46999999999999 63.99499999999999 C 53.916999999999994 64.99999999999999 56.71699999999999 64.752 58.84799999999999 65.12599999999999 C 58.95799999999999 65.809 58.40599999999999 66.70599999999999 58.41599999999999 67.657 C 56.62299999999999 67.547 50.98899999999999 65.497 52.46999999999999 63.995 z M 62.24199999999999 64.56799999999998 C 62.39699999999999 64.56399999999998 62.56299999999999 64.57899999999998 62.74199999999999 64.61299999999999 C 65.04599999999999 65.05299999999998 67.72599999999998 66.11499999999998 69.50999999999999 67.08999999999999 C 70.6 67.68599999999999 71.231 68.42199999999998 72.88499999999999 68.54999999999998 C 72.87799999999999 68.76999999999998 72.868 68.98999999999998 72.85999999999999 69.21199999999999 C 71.95399999999998 69.80699999999999 70.49099999999999 69.79999999999998 69.49699999999999 70.29999999999998 C 70.96299999999998 70.36399999999998 72.11699999999999 70.71699999999998 73.11499999999998 71.21499999999999 L 73.04999999999998 72.874 C 71.38899999999998 74.011 69.87199999999999 75.704 67.91699999999999 76.77 C 66.99199999999999 77.274 63.746999999999986 78.572 62.76399999999999 78.342 C 62.20699999999999 78.213 62.15699999999999 77.522 61.93399999999999 76.872 C 61.46099999999999 75.477 60.36999999999999 73.258 60.273999999999994 71.16 C 60.160999999999994 68.675 59.91799999999999 64.615 62.24199999999999 64.568 z M 75.53599999999999 68.03099999999998 C 75.67299999999999 68.01999999999998 75.80299999999998 68.02399999999997 75.92599999999999 68.04199999999997 C 78.05199999999999 68.35499999999998 77.89799999999998 72.76399999999997 74.53399999999999 71.71199999999997 C 74.28099999999999 70.26799999999997 73.98799999999999 69.85599999999998 74.10099999999998 68.59699999999998 C 74.64299999999999 68.23599999999998 75.12299999999999 68.06399999999998 75.53599999999999 68.03099999999998 z M 77.47199999999998 73.04499999999997 C 78.68999999999998 73.17499999999997 79.65399999999998 74.85499999999998 81.39199999999998 74.74499999999998 C 81.11299999999999 79.27699999999997 81.25899999999999 83.82499999999997 79.99399999999999 87.97699999999998 C 77.63699999999999 83.65499999999997 76.24999999999999 78.43699999999998 73.19899999999998 74.75999999999998 C 73.52099999999999 74.41799999999998 73.80899999999998 74.03899999999997 74.12499999999999 73.68899999999998 C 75.50699999999999 74.26699999999998 76.40899999999999 72.93099999999998 77.47199999999998 73.04499999999997 z M 84.47999999999998 74.48699999999997 C 86.15799999999997 74.47399999999996 87.53199999999998 75.57099999999997 88.28699999999998 76.78399999999996 C 85.92299999999997 80.83399999999996 83.66099999999997 84.99199999999996 80.85699999999997 88.56399999999996 C 82.03199999999997 85.10599999999997 82.53599999999997 79.31899999999996 82.71399999999997 74.90699999999997 C 83.2652509362761 74.64060996143101 83.86784381113596 74.49729795268745 84.47999999999998 74.48699999999997 z M 71.71 76.03 C 74.50999999999999 79.584 76.214 84.155 78.08999999999999 88.56700000000001 C 73.65799999999999 87.23100000000001 69.13 85.063 65.246 82.86500000000001 C 66.008 79.561 68.996 77.849 71.71 76.03000000000002 z M 101.22099999999999 87.758 C 102.43799999999999 87.788 103.64699999999999 88.776 104.17599999999999 89.577 C 105.13199999999999 91.021 106.02499999999999 95.27199999999999 106.52599999999998 97.529 C 107.27299999999998 100.88799999999999 105.59399999999998 104.158 102.92299999999999 104.806 L 102.92299999999999 104.807 C 100.97899999999998 105.279 97.99699999999999 105.403 96.72399999999999 104.788 C 98.282 103.937 100.62299999999999 103.932 102.42599999999999 103.348 C 99.84299999999999 102.236 96.02099999999999 103.284 92.91499999999999 103.09 C 92.53999999999999 99.25500000000001 92.25699999999999 95.09700000000001 91.348 92.07000000000001 C 93.161 90.143 97.541 89.68 100.02799999999999 88.08900000000001 C 100.38277151461537 87.85995485348445 100.79893128262793 87.74449057585481 101.22099999999999 87.75800000000001 z M 101.00999999999999 91.336 C 97.827 91.42999999999999 95.33999999999999 92.273 93.91999999999999 94.274 C 96.50299999999999 94.43900000000001 98.36299999999999 91.866 101.00999999999999 91.336 z M 88.47 92.121 C 88.695 92.131 88.917 92.15599999999999 89.13 92.204 C 90.82199999999999 95.11399999999999 91.18599999999999 99.95299999999999 91.13 103.46499999999999 C 90.07499999999999 103.66899999999998 89.39 104.273 88.11 104.23299999999999 C 87.783 100.23199999999999 86.854 96.02499999999999 86.472 92.213 C 87.082 92.201 87.79199999999999 92.09299999999999 88.469 92.121 z M 68.86699999999999 92.164 C 72.207 92.11 75.44699999999999 92.306 78.252 92.89 C 78.937 97.343 78.682 101.735 79.182 106.1 C 79.84400000000001 111.90799999999999 79.348 118.53399999999999 80.482 123.976 C 74.309 125.889 65.892 125.704 58.908 123.584 C 55.761 113.941 54.045 104.78800000000001 52.861000000000004 93.899 C 57.44800000000001 93.041 63.298 92.254 68.867 92.164 z M 83.69099999999999 92.548 C 84.79399999999998 96.535 84.728 101.608 85.26999999999998 106.11500000000001 C 83.60199999999998 106.48100000000001 82.38199999999998 106.66000000000001 80.58699999999999 106.93 C 80.22999999999999 102.248 79.957 97.635 80.02099999999999 92.959 C 81.29299999999999 92.533 82.41499999999999 92.559 83.69099999999999 92.548 z M 98.17699999999999 94.84400000000001 C 96.91699999999999 94.86000000000001 95.78299999999999 95.13400000000001 95.297 95.876 C 97.487 96.05600000000001 100.01899999999999 95.706 102.17699999999999 95.47800000000001 C 101.193 95.138 99.60499999999999 94.825 98.17699999999999 94.84400000000001 z M 97.81599999999999 98.084 C 96.68799999999999 98.098 95.69299999999998 98.312 95.18199999999999 98.861 C 97.48599999999999 99.054 100.49999999999999 99.102 102.92499999999998 99.05 C 101.94199999999998 98.592 99.69499999999998 98.06 97.81499999999998 98.084 z M 83.098 108.82 C 83.334 108.78299999999999 83.548 108.77499999999999 83.725 108.82199999999999 C 84.073 111.86699999999999 85.28 114.95299999999999 85.12899999999999 118.28799999999998 C 83.78899999999999 118.73999999999998 83.01899999999999 119.13599999999998 81.222 119.13299999999998 C 81.09599999999999 116.29899999999998 80.716 111.96699999999998 80.83 109.26499999999999 C 81.492 109.30899999999998 82.39099999999999 108.93099999999998 83.098 108.82 z" stroke-linecap="round" />
</g>
		<g transform="matrix(1 0 0 1 12.77 17.53)"  >
<path style="stroke: none; stroke-width: 1; stroke-dasharray: none; stroke-linecap: butt; stroke-dashoffset: 0; stroke-linejoin: miter; stroke-miterlimit: 4; fill: rgb(129,176,196); fill-rule: nonzero; opacity: 1;" vector-effect="non-scaling-stroke"  transform=" translate(-76.77, -81.53)" d="M 84.48 74.486 C 83.867517372254 74.49624892904122 83.26458825708194 74.63955975437923 82.71300000000001 74.906 C 82.53500000000001 79.31800000000001 82.033 85.105 80.85700000000001 88.56200000000001 C 83.66200000000002 84.99100000000001 85.92300000000002 80.83200000000001 88.287 76.78300000000002 C 87.531 75.57000000000002 86.158 74.47300000000001 84.48 74.48600000000002 z M 71.71 76.03 C 68.996 77.85 66.00999999999999 79.562 65.247 82.866 C 69.131 85.064 73.659 87.231 78.091 88.567 C 76.21499999999999 84.157 74.511 79.585 71.71 76.02999999999999 z" stroke-linecap="round" />
</g>
		<g transform="matrix(1 0 0 1 11.15 1.28)"  >
<path style="stroke: none; stroke-width: 1; stroke-dasharray: none; stroke-linecap: butt; stroke-dashoffset: 0; stroke-linejoin: miter; stroke-miterlimit: 4; fill: rgb(240,214,183); fill-rule: nonzero; opacity: 1;" vector-effect="non-scaling-stroke"  transform=" translate(-75.15, -65.28)" d="M 79.817 63.945 C 78.59899999999999 64.74 77.562 65.732 76.39299999999999 66.581 C 73.79999999999998 66.709 72.38499999999999 66.401 70.47999999999999 64.912 C 70.511 64.792 70.70299999999999 64.846 70.71 64.69900000000001 C 73.485 65.936 77.014 64.19500000000001 79.817 63.945000000000014" stroke-linecap="round" />
</g>
		<g transform="matrix(1 0 0 1 14.67 14.91)"  >
<path style="stroke: none; stroke-width: 1; stroke-dasharray: none; stroke-linecap: butt; stroke-dashoffset: 0; stroke-linejoin: miter; stroke-miterlimit: 4; fill: rgb(29,25,25); fill-rule: nonzero; opacity: 1;" vector-effect="non-scaling-stroke"  transform=" translate(-78.67, -78.91)" d="M 79.135 76.728 C 79.135 77.24742380721585 78.71392380721586 77.6685 78.1945 77.6685 C 77.67507619278415 77.6685 77.254 77.24742380721585 77.254 76.728 C 77.254 76.20857619278414 77.67507619278415 75.7875 78.1945 75.7875 C 78.71392380721586 75.7875 79.135 76.20857619278414 79.135 76.728 M 80.07600000000001 81.089 C 80.07600000000001 81.60869994959077 79.65469994959078 82.03 79.135 82.03 C 78.61530005040923 82.03 78.194 81.60869994959077 78.194 81.089 C 78.194 80.56930005040923 78.61530005040923 80.148 79.135 80.148 C 79.65469994959078 80.148 80.07600000000001 80.56930005040923 80.07600000000001 81.089" stroke-linecap="round" />
</g>
</g>
</g>
</svg>