<?xml version="1.0" encoding="UTF-8" standalone="no" ?>
<!DOCTYPE svg PUBLIC "-//W3C//DTD SVG 1.1//EN" "http://www.w3.org/Graphics/SVG/1.1/DTD/svg11.dtd">
<svg xmlns="http://www.w3.org/2000/svg" xmlns:xlink="http://www.w3.org/1999/xlink" version="1.1" width="1080" height="1080" viewBox="0 0 1080 1080" xml:space="preserve">
<desc>Created with Fabric.js 5.2.4</desc>
<defs>
</defs>
<g transform="matrix(1 0 0 1 540 540)" id="7c527e93-921f-448b-abb0-8f71cd41cc6f"  >
<rect style="stroke: none; stroke-width: 1; stroke-dasharray: none; stroke-linecap: butt; stroke-dashoffset: 0; stroke-linejoin: miter; stroke-miterlimit: 4; fill: rgb(255,255,255); fill-rule: nonzero; opacity: 1; visibility: hidden;" vector-effect="non-scaling-stroke"  x="-540" y="-540" rx="0" ry="0" width="1080" height="1080" />
</g>
<g transform="matrix(1 0 0 1 540 540)" id="a1184614-b1d8-416f-8972-c8dee8872d00"  >
</g>
<g transform="matrix(8.44 0 0 8.44 540 540)"  >
<path style="stroke: none; stroke-width: 1; stroke-dasharray: none; stroke-linecap: butt; stroke-dashoffset: 0; stroke-linejoin: miter; stroke-miterlimit: 4; fill: rgb(0,97,138); fill-rule: nonzero; opacity: 1;"  transform=" translate(-63.9, -63.9)" d="M 117.688 98.242 C 110.715 98.051 105.391 98.703 100.836 100.62100000000001 C 99.54299999999999 101.168 97.481 101.18 97.27 102.80100000000002 C 97.981 103.54700000000001 98.08999999999999 104.66000000000001 98.657 105.57800000000002 C 99.743 107.33200000000002 101.579 109.69100000000002 103.216 110.93000000000002 C 105.005 112.27800000000002 106.84899999999999 113.72300000000003 108.767 114.89100000000002 C 112.181 116.97300000000001 115.99 118.16100000000002 119.271 120.24300000000002 C 121.209 121.47300000000003 123.13 123.02000000000002 125.021 124.40700000000002 C 125.955 125.09100000000002 126.584 126.15700000000002 127.794 126.58700000000003 L 127.794 126.39200000000004 C 127.157 125.58000000000004 126.993 124.46200000000003 126.407 123.61500000000004 L 123.829 121.03700000000003 C 121.309 117.69300000000004 118.11 114.75600000000003 114.71199999999999 112.31800000000004 C 112.00099999999999 110.36900000000004 105.93099999999998 107.74000000000004 104.80199999999999 104.58800000000004 L 104.603 104.38900000000004 C 106.52499999999999 104.17000000000004 108.77499999999999 103.47500000000004 110.55199999999999 102.99800000000003 C 113.532 102.20100000000004 116.19699999999999 102.40800000000003 119.27099999999999 101.61100000000003 L 123.43499999999999 100.42400000000004 L 123.43499999999999 99.63100000000003 C 121.87999999999998 98.03700000000003 120.77099999999999 95.92400000000004 119.076 94.47900000000003 C 114.63499999999999 90.69800000000002 109.791 86.92400000000004 104.803 83.77600000000002 C 102.03699999999999 82.03000000000003 98.619 80.89300000000003 95.68599999999999 79.41300000000003 C 94.698 78.91700000000003 92.967 78.65500000000003 92.315 77.82700000000003 C 90.776 75.86600000000003 89.93599999999999 73.37800000000003 88.749 71.08900000000003 C 86.261 66.29600000000002 83.81899999999999 61.06600000000003 81.612 56.023000000000025 C 80.10799999999999 52.58600000000003 79.128 49.19500000000002 77.253 46.11300000000003 C 68.253 31.316000000000027 58.566 22.383000000000028 43.558 13.605000000000025 C 40.363 11.738000000000024 36.519 11.000000000000025 32.456 10.035000000000025 L 25.913000000000004 9.640000000000025 C 24.581000000000003 9.085000000000026 23.198000000000004 7.456000000000025 21.948000000000004 6.663000000000025 C 16.977 3.52 4.223 -3.312 0.539 5.672 C -1.785 11.34 4.016 16.871 6.09 19.746 C 7.547 21.758 9.41 24.019 10.449 26.284999999999997 C 11.137 27.776999999999997 11.254 29.269 11.84 30.843999999999998 C 13.278 34.727 14.535 38.952999999999996 16.399 42.539 C 17.34 44.355000000000004 18.379 46.266 19.571 47.891000000000005 C 20.298000000000002 48.88700000000001 21.551000000000002 49.32900000000001 21.751 50.864000000000004 C 20.524 52.57900000000001 20.454 55.239000000000004 19.767000000000003 57.407000000000004 C 16.669000000000004 67.177 17.841000000000005 79.31700000000001 22.345000000000002 86.54400000000001 C 23.728 88.76700000000001 26.986000000000004 93.52400000000002 31.462000000000003 91.70000000000002 C 35.38 90.10200000000002 34.505 85.16100000000002 35.626000000000005 80.79800000000002 C 35.88 79.81000000000002 35.724000000000004 79.08300000000001 36.220000000000006 78.41900000000001 L 36.220000000000006 78.61800000000001 L 39.790000000000006 85.751 C 42.431000000000004 90.00500000000001 47.114000000000004 94.45 51.087 97.45 C 53.146 99.00500000000001 54.767 101.69200000000001 57.431000000000004 102.602 L 57.431000000000004 102.403 L 57.232000000000006 102.403 C 56.71600000000001 101.598 55.90800000000001 101.266 55.25200000000001 100.622 C 53.70100000000001 99.099 51.97500000000001 97.208 50.69300000000001 95.466 C 47.08000000000001 90.564 43.88800000000001 85.196 40.98200000000001 79.61099999999999 C 39.591000000000015 76.94299999999998 38.384000000000015 74.002 37.21200000000001 71.28699999999999 C 36.75900000000001 70.24 36.76700000000001 68.654 35.82500000000001 68.115 C 34.54400000000001 70.103 32.65300000000001 71.713 31.66100000000001 74.06 C 30.079000000000008 77.81400000000001 29.872000000000007 82.396 29.28600000000001 87.142 C 28.93800000000001 87.267 29.091000000000008 87.181 28.88800000000001 87.341 C 26.12600000000001 86.67299999999999 25.15800000000001 83.833 24.13000000000001 81.392 C 21.53600000000001 75.228 21.05200000000001 65.30199999999999 23.33700000000001 58.20099999999999 C 23.92700000000001 56.364999999999995 26.59900000000001 50.583999999999996 25.51700000000001 48.88499999999999 C 25.001000000000012 47.19399999999999 23.29800000000001 46.212999999999994 22.34500000000001 44.91999999999999 C 21.16500000000001 43.32199999999999 19.99000000000001 41.216999999999985 19.17300000000001 39.368999999999986 C 17.04800000000001 34.563999999999986 16.06000000000001 29.165999999999986 13.821000000000009 24.306999999999988 C 12.751000000000008 21.98299999999999 10.946000000000009 19.630999999999986 9.462000000000009 17.56899999999999 C 7.817000000000009 15.279999999999989 5.978000000000009 13.591999999999988 4.704000000000009 10.826999999999988 C 4.251000000000008 9.842999999999988 3.638000000000009 8.267999999999986 4.306000000000009 7.260999999999988 C 4.521000000000009 6.5769999999999875 4.822000000000009 6.291999999999987 5.497000000000009 6.069999999999988 C 6.6450000000000085 5.182999999999987 9.849000000000009 6.366999999999988 11.044000000000008 6.862999999999988 C 14.224000000000007 8.182999999999987 16.87600000000001 9.440999999999988 19.571000000000005 11.225999999999988 C 20.860000000000007 12.080999999999989 22.169000000000004 13.737999999999989 23.731000000000005 14.198999999999987 L 25.516000000000005 14.198999999999987 C 28.305000000000007 14.839999999999987 31.430000000000007 14.393999999999988 34.039 15.186999999999987 C 38.648 16.588999999999988 42.777 18.768999999999988 46.527 21.13599999999999 C 57.949 28.35099999999999 67.293 38.615999999999985 73.68299999999999 50.86999999999999 C 74.71 52.84299999999999 75.15599999999999 54.72199999999999 76.062 56.81499999999999 C 77.886 61.03399999999999 80.187 65.374 82.003 69.50299999999999 C 83.819 73.61599999999999 85.585 77.77299999999998 88.151 81.19799999999998 C 89.499 82.99899999999998 94.702 83.96399999999998 97.06899999999999 84.96399999999998 C 98.72899999999998 85.66299999999998 101.448 86.39399999999999 103.01799999999999 87.34299999999999 C 106.01799999999999 89.15199999999999 108.92399999999999 91.30799999999999 111.74099999999999 93.28799999999998 C 113.14299999999999 94.27999999999999 117.47099999999999 96.45599999999999 117.68599999999998 98.24499999999998 z M 29.083 22.72200000000001 C 27.63 22.695000000000007 26.602999999999998 22.878000000000007 25.517 23.117000000000008 L 25.517 23.31600000000001 L 25.712 23.31600000000001 C 26.407 24.73800000000001 27.63 25.65600000000001 28.489 26.88200000000001 L 30.469 31.046000000000006 L 30.668000000000003 30.851000000000006 C 31.895000000000003 29.984000000000005 32.457 28.601000000000006 32.449000000000005 26.488000000000007 C 31.957000000000004 25.968000000000007 31.887000000000004 25.324000000000005 31.457000000000004 24.703000000000007 C 30.895000000000003 23.879000000000005 29.797000000000004 23.414000000000005 29.082000000000004 22.723000000000006 z M 29.083 22.72200000000001" stroke-linecap="round" />
</g>
</svg>