<?xml version="1.0" encoding="UTF-8" standalone="no" ?>
<!DOCTYPE svg PUBLIC "-//W3C//DTD SVG 1.1//EN" "http://www.w3.org/Graphics/SVG/1.1/DTD/svg11.dtd">
<svg xmlns="http://www.w3.org/2000/svg" xmlns:xlink="http://www.w3.org/1999/xlink" version="1.1" width="1080" height="1080" viewBox="0 0 1080 1080" xml:space="preserve">
<desc>Created with Fabric.js 5.2.4</desc>
<defs>
</defs>
<g transform="matrix(1 0 0 1 540 540)" id="5e4360a2-df18-4959-a91c-a4c3cf6afff7"  >
</g>
<g transform="matrix(1 0 0 1 540 540)" id="fb799960-0199-46a1-a885-a04d53eb79c7"  >
<rect style="stroke: none; stroke-width: 1; stroke-dasharray: none; stroke-linecap: butt; stroke-dashoffset: 0; stroke-linejoin: miter; stroke-miterlimit: 4; fill: rgb(255,255,255); fill-rule: nonzero; opacity: 1; visibility: hidden;" vector-effect="non-scaling-stroke"  x="-540" y="-540" rx="0" ry="0" width="1080" height="1080" />
</g>
<g transform="matrix(8.44 0 0 8.44 540 540)"  >
<g style=""   >
		<g transform="matrix(1 0 0 1 0 0)"  >
<radialGradient id="SVGID_a_7" gradientUnits="userSpaceOnUse" gradientTransform="matrix(84.04 0 0 84.04 38.43 42.17)"  cx="0" cy="0" r="1" fx="0" fy="0">
<stop offset="0%" style="stop-color:rgb(174,178,213);stop-opacity: 1"/>
<stop offset="30%" style="stop-color:rgb(174,178,213);stop-opacity: 1"/>
<stop offset="75%" style="stop-color:rgb(72,76,137);stop-opacity: 1"/>
<stop offset="100%" style="stop-color:rgb(72,76,137);stop-opacity: 1"/>
</radialGradient>
<path style="stroke: none; stroke-width: 1; stroke-dasharray: none; stroke-linecap: butt; stroke-dashoffset: 0; stroke-linejoin: miter; stroke-miterlimit: 4; fill: url(#SVGID_a_7); fill-rule: nonzero; opacity: 1;" vector-effect="non-scaling-stroke"  transform=" translate(-64, -64)" d="M 0 64 C 0 82.593 28.654 97.667 64 97.667 C 99.346 97.667 128 82.593 128 64 C 128 45.407 99.345 30.333 64 30.333 C 28.654 30.333 0 45.407 0 64 Z" stroke-linecap="round" />
</g>
		<g transform="matrix(1 0 0 1 0 0)"  >
<path style="stroke: none; stroke-width: 1; stroke-dasharray: none; stroke-linecap: butt; stroke-dashoffset: 0; stroke-linejoin: miter; stroke-miterlimit: 4; fill: rgb(119,123,179); fill-rule: nonzero; opacity: 1;" vector-effect="non-scaling-stroke"  transform=" translate(-64, -64)" d="M 64 95.167 C 97.965 95.167 125.5 81.212 125.5 64 C 125.5 46.786 97.965 32.833 64 32.833 C 30.034999999999997 32.833 2.5 46.786 2.5 64 C 2.5 81.212 30.035 95.167 64 95.167 Z" stroke-linecap="round" />
</g>
		<g transform="matrix(1 0 0 1 -27.78 1.98)"  >
<path style="stroke: none; stroke-width: 1; stroke-dasharray: none; stroke-linecap: butt; stroke-dashoffset: 0; stroke-linejoin: miter; stroke-miterlimit: 4; fill: rgb(0,0,0); fill-rule: nonzero; opacity: 1;" vector-effect="non-scaling-stroke"  transform=" translate(-36.22, -65.98)" d="M 34.772 67.864 C 37.565 67.864 39.649 67.349 40.967999999999996 66.334 C 42.273999999999994 65.328 43.175 63.587 43.647999999999996 61.159000000000006 C 44.087999999999994 58.889 43.919999999999995 57.30500000000001 43.147999999999996 56.449000000000005 C 42.36 55.575 40.654999999999994 55.132000000000005 38.080999999999996 55.132000000000005 L 33.617 55.132000000000005 L 31.144 67.864 z M 20.173 83.547 C 19.965622670436648 83.54671899430002 19.769237174353357 83.4537141582167 19.637622997619776 83.29345454301757 C 19.506008820886194 83.13319492781845 19.452958616999325 82.92247511746751 19.493 82.719 L 26.049999999999997 48.980999999999995 C 26.11390206936738 48.65577934123503 26.39856210614123 48.42093481089661 26.729999999999997 48.419999999999995 L 40.864 48.419999999999995 C 45.306 48.419999999999995 48.611999999999995 49.626 50.690999999999995 52.004999999999995 C 52.778999999999996 54.394999999999996 53.425 57.739 52.608 61.94 C 52.275 63.650999999999996 51.702999999999996 65.24 50.907999999999994 66.664 C 50.08042302230529 68.12869185660793 49.02448812842725 69.451986224895 47.779999999999994 70.584 C 46.248999999999995 72.016 44.51599999999999 73.056 42.632999999999996 73.667 C 40.781 74.271 38.400999999999996 74.577 35.562999999999995 74.577 L 29.838999999999995 74.577 L 28.204999999999995 82.985 C 28.141370469875458 83.31135514239315 27.855500211341596 83.54692564869232 27.522999999999996 83.547 z" stroke-linecap="round" />
</g>
		<g transform="matrix(1 0 0 1 -27.78 1.98)"  >
<path style="stroke: none; stroke-width: 1; stroke-dasharray: none; stroke-linecap: butt; stroke-dashoffset: 0; stroke-linejoin: miter; stroke-miterlimit: 4; fill: rgb(255,255,255); fill-rule: nonzero; opacity: 1;" vector-effect="non-scaling-stroke"  transform=" translate(-36.22, -65.98)" d="M 34.19 55.826 L 38.080999999999996 55.826 C 41.187999999999995 55.826 42.266999999999996 56.508 42.63399999999999 56.915 C 43.24099999999999 57.589 43.35699999999999 59.012 42.964999999999996 61.027 C 42.525999999999996 63.284 41.711999999999996 64.885 40.544999999999995 65.783 C 39.35099999999999 66.703 37.407 67.169 34.77199999999999 67.169 L 31.98599999999999 67.169 L 34.19099999999999 55.827 z M 40.864 47.726 L 26.731 47.726 C 26.066309416249734 47.726055214871366 25.494677973587006 48.19668726040673 25.367 48.849 L 18.81 82.588 C 18.731593301176055 82.99490553736015 18.838824547541456 83.41557488030011 19.102452336137443 83.73529368774632 C 19.36608012473343 84.05501249519251 19.75860959399915 84.24043593503923 20.173 84.241 L 27.522999999999996 84.241 C 28.18762409978869 84.24037318003576 28.75881318107302 83.76934124506614 28.885999999999996 83.117 L 30.410999999999994 75.271 L 35.562 75.271 C 38.474 75.271 40.925999999999995 74.953 42.849 74.327 C 44.82599999999999 73.685 46.644999999999996 72.596 48.254999999999995 71.09 C 49.5513263737866 69.90923611133668 50.6514250887796 68.52964008550778 51.513999999999996 67.003 C 52.345 65.516 52.943 63.856 53.288999999999994 62.072 C 54.148999999999994 57.649 53.449999999999996 54.108000000000004 51.212999999999994 51.548 C 48.99699999999999 49.011 45.51499999999999 47.725 40.86399999999999 47.725 z M 30.301 68.557 L 34.772 68.557 C 37.735 68.557 39.942 68 41.391999999999996 66.882 C 42.842999999999996 65.766 43.81999999999999 63.90200000000001 44.33 61.291000000000004 C 44.815 58.783 44.594 57.014 43.665 55.983000000000004 C 42.734 54.953 40.874 54.437000000000005 38.081 54.437000000000005 L 33.045 54.437000000000005 L 30.302000000000003 68.557 M 40.865 49.112 C 45.117000000000004 49.112 48.218 50.229 50.168000000000006 52.46 C 52.11800000000001 54.692 52.70400000000001 57.807 51.928000000000004 61.806 C 51.606 63.454 51.065000000000005 64.96 50.303000000000004 66.324 C 49.539 67.69 48.543000000000006 68.938 47.312000000000005 70.071 C 45.84400000000001 71.444 44.215 72.423 42.42 73.006 C 40.626000000000005 73.59 38.34 73.881 35.563 73.881 L 29.267000000000003 73.881 L 27.524000000000004 82.851 L 20.174000000000007 82.851 L 26.732000000000006 49.112 L 40.86500000000001 49.112" stroke-linecap="round" />
</g>
		<g transform="matrix(1 0 0 1 1.82 -6.99)"  >
<path style="stroke: none; stroke-width: 1; stroke-dasharray: none; stroke-linecap: butt; stroke-dashoffset: 0; stroke-linejoin: miter; stroke-miterlimit: 4; fill: rgb(0,0,0); fill-rule: nonzero; opacity: 1;" vector-effect="non-scaling-stroke"  transform=" translate(-65.82, -57.01)" d="M 69.459 74.577 C 69.2514852629213 74.5772582139333 69.0547432661032 74.48464193858054 68.92271600169542 74.32454436135879 C 68.79068873728765 74.16444678413706 68.7372311341659 73.95366852994398 68.777 73.75 L 71.677 58.822 C 71.95400000000001 57.402 71.88600000000001 56.384 71.48700000000001 55.952000000000005 C 71.242 55.68900000000001 70.50800000000001 55.248000000000005 68.337 55.248000000000005 L 63.081 55.248000000000005 L 59.435 74.016 C 59.3704612422604 74.34192942866052 59.084257270491186 74.57659154314186 58.752 74.57600000000001 L 51.462 74.57600000000001 C 51.2546481802281 74.57613656060983 51.058065099509776 74.48368245732863 50.925931565264904 74.32388406891536 C 50.79379803102003 74.16408568050208 50.73991636613742 73.95363512804921 50.779 73.75000000000001 L 57.337 40.01100000000002 C 57.40104824026336 39.68504240605267 57.68680949778583 39.44998072647774 58.019000000000005 39.45000000000002 L 65.30900000000001 39.45000000000002 C 65.51635181977191 39.4498634393902 65.71293490049024 39.5423175426714 65.84506843473513 39.70211593108467 C 65.97720196898 39.86191431949794 66.0310836338626 40.07236487195081 65.99200000000002 40.27600000000002 L 64.41 48.42 L 70.063 48.42 C 74.37 48.42 77.29 49.178000000000004 78.991 50.741 C 80.724 52.334 81.266 54.881 80.599 58.314 L 77.548 74.016 C 77.4835338615326 74.34156003284032 77.19788131179966 74.57611344611078 76.866 74.57600000000001 L 69.459 74.57600000000001 z" stroke-linecap="round" />
</g>
		<g transform="matrix(1 0 0 1 1.82 -6.99)"  >
<path style="stroke: none; stroke-width: 1; stroke-dasharray: none; stroke-linecap: butt; stroke-dashoffset: 0; stroke-linejoin: miter; stroke-miterlimit: 4; fill: rgb(255,255,255); fill-rule: nonzero; opacity: 1;" vector-effect="non-scaling-stroke"  transform=" translate(-65.82, -57.01)" d="M 65.31 38.755 L 58.019000000000005 38.755 C 57.353999577316806 38.755148702615365 56.78225906024908 39.226289715213696 56.65500000000001 39.879000000000005 L 50.098000000000006 73.617 C 50.01925499341454 74.02405610488489 50.12632919835621 74.44501443592526 50.38999687564703 74.76497506559438 C 50.65366455293785 75.08493569526351 51.046397549741414 75.27049322019278 51.461000000000006 75.271 L 58.75200000000001 75.271 C 59.41700042268321 75.27085129738464 59.98874093975093 74.79971028478631 60.11600000000001 74.147 L 63.653000000000006 55.94200000000001 L 68.33500000000001 55.94200000000001 C 70.50300000000001 55.94200000000001 70.959 56.40500000000001 70.97600000000001 56.42600000000001 C 71.10800000000002 56.56600000000001 71.28100000000002 57.22100000000001 70.99500000000002 58.69000000000001 L 68.09500000000001 73.61700000000002 C 68.01622204590848 74.02422780049986 68.12342124785731 74.44535970799437 68.38731531468181 74.7653602846276 C 68.65120938150633 75.08536086126084 69.04422246442313 75.27079135784825 69.45900000000002 75.27100000000002 L 76.86700000000002 75.27100000000002 C 77.53162409978871 75.27037318003578 78.10281318107305 74.79934124506616 78.23000000000002 74.14700000000002 L 81.28100000000002 58.44700000000002 C 81.99600000000002 54.76100000000002 81.38400000000001 51.997000000000014 79.46100000000003 50.23000000000002 C 77.62500000000003 48.54400000000002 74.55100000000003 47.725000000000016 70.06300000000003 47.725000000000016 L 65.25300000000003 47.725000000000016 L 66.67400000000004 40.41000000000002 C 66.75311678217511 40.002621743184775 66.64607487718595 39.58120055854459 66.3821408050131 39.26095797097415 C 66.11820673284024 38.9407153834037 65.7249897427422 38.75515088522183 65.31000000000003 38.75500000000002 z M 65.31 40.145 L 63.567 49.113 L 70.063 49.113 C 74.15 49.113 76.97 49.827 78.52000000000001 51.253 C 80.07300000000001 52.679 80.537 54.988 79.918 58.183 L 76.866 73.882 L 69.459 73.882 L 72.36 58.95400000000001 C 72.69 57.25600000000001 72.568 56.098000000000006 71.995 55.480000000000004 C 71.42200000000001 54.86300000000001 70.202 54.554 68.337 54.554 L 62.508 54.554 L 58.752 73.881 L 51.46 73.881 L 58.018 40.142 L 65.31 40.142 z" stroke-linecap="round" />
</g>
		<g transform="matrix(1 0 0 1 29.58 1.98)"  >
<path style="stroke: none; stroke-width: 1; stroke-dasharray: none; stroke-linecap: butt; stroke-dashoffset: 0; stroke-linejoin: miter; stroke-miterlimit: 4; fill: rgb(0,0,0); fill-rule: nonzero; opacity: 1;" vector-effect="non-scaling-stroke"  transform=" translate(-93.58, -65.98)" d="M 92.136 67.864 C 94.929 67.864 97.014 67.349 98.334 66.334 C 99.638 65.328 100.54 63.587 101.013 61.159000000000006 C 101.453 58.889 101.286 57.30500000000001 100.513 56.449000000000005 C 99.72500000000001 55.575 98.02000000000001 55.132000000000005 95.446 55.132000000000005 L 90.983 55.132000000000005 L 88.50800000000001 67.864 z M 77.54 83.547 C 77.33227258193841 83.54731716875462 77.13532569048847 83.45456707615553 77.00325813547062 83.2942269946969 C 76.87119058045276 83.13388691323827 76.8178909589227 82.92281865870035 76.858 82.719 L 83.415 48.980999999999995 C 83.47904824026337 48.65504240605265 83.76480949778583 48.41998072647772 84.09700000000001 48.419999999999995 L 98.23 48.419999999999995 C 102.672 48.419999999999995 105.97800000000001 49.626 108.05600000000001 52.004999999999995 C 110.14500000000001 54.394999999999996 110.79 57.739 109.97300000000001 61.94 C 109.66076069798768 63.594800232777835 109.08726069463651 65.1893935322663 108.27400000000002 66.664 C 107.44613946465117 68.12850037317091 106.39023848725267 69.45175223742989 105.14600000000002 70.584 C 103.61600000000001 72.016 101.88100000000001 73.056 99.99900000000001 73.667 C 98.147 74.271 95.76700000000001 74.577 92.92800000000001 74.577 L 87.20500000000001 74.577 L 85.57200000000002 82.985 C 85.50829866697693 83.31172468265048 85.2218764252391 83.54740447746256 84.88900000000001 83.547 z" stroke-linecap="round" />
</g>
		<g transform="matrix(1 0 0 1 29.58 1.98)"  >
<path style="stroke: none; stroke-width: 1; stroke-dasharray: none; stroke-linecap: butt; stroke-dashoffset: 0; stroke-linejoin: miter; stroke-miterlimit: 4; fill: rgb(255,255,255); fill-rule: nonzero; opacity: 1;" vector-effect="non-scaling-stroke"  transform=" translate(-93.58, -65.98)" d="M 91.555 55.826 L 95.44600000000001 55.826 C 98.55300000000001 55.826 99.632 56.508 99.99800000000002 56.915 C 100.60800000000002 57.589 100.72200000000002 59.012 100.33100000000002 61.027 C 99.89100000000002 63.284 99.07700000000001 64.885 97.91000000000001 65.783 C 96.71500000000002 66.703 94.77100000000002 67.169 92.13700000000001 67.169 L 89.35100000000001 67.169 L 91.555 55.827 z M 98.22900000000001 47.726 L 84.096 47.726 C 83.43168567552672 47.726533149188256 82.86060552833003 48.19705626386315 82.733 48.849 L 76.17500000000001 82.588 C 76.0965605278361 82.99507722790837 76.20391683221423 83.41592002224975 76.46777095254252 83.73567871792619 C 76.73162507287083 84.05543741360265 77.12443450522335 84.24073388818778 77.53900000000002 84.241 L 84.88900000000001 84.241 C 85.5536240997887 84.24037318003576 86.12481318107304 83.76934124506614 86.25200000000001 83.117 L 87.77700000000002 75.271 L 92.92700000000002 75.271 C 95.83800000000002 75.271 98.29100000000003 74.953 100.21300000000002 74.327 C 102.19100000000002 73.685 104.01000000000002 72.596 105.62100000000002 71.089 C 106.91691169060776 69.90848580509756 108.01666872888141 68.52923250295325 108.87900000000002 67.003 C 109.71100000000001 65.516 110.30700000000002 63.856 110.65400000000002 62.072 C 111.51400000000002 57.649 110.81600000000003 54.108000000000004 108.57800000000003 51.548 C 106.36200000000004 49.011 102.88100000000003 47.725 98.22800000000004 47.725 z M 87.666 68.557 L 92.136 68.557 C 95.1 68.557 97.306 68 98.758 66.882 C 100.208 65.766 101.18599999999999 63.90200000000001 101.69399999999999 61.291000000000004 C 102.18099999999998 58.783 101.96 57.014 101.02899999999998 55.983000000000004 C 100.09899999999998 54.953 98.23799999999999 54.437000000000005 95.44599999999998 54.437000000000005 L 90.41099999999999 54.437000000000005 Z M 98.229 49.112 C 102.48 49.112 105.583 50.229 107.532 52.46 C 109.482 54.692 110.069 57.807 109.291 61.806 C 108.971 63.454 108.429 64.96 107.667 66.324 C 106.904 67.69 105.907 68.938 104.675 70.071 C 103.208 71.444 101.578 72.423 99.783 73.006 C 97.99 73.59 95.705 73.881 92.927 73.881 L 86.632 73.881 L 84.887 82.851 L 77.537 82.851 L 84.095 49.112 L 98.228 49.112" stroke-linecap="round" />
</g>
</g>
</g>
</svg>