<?xml version="1.0" encoding="UTF-8" standalone="no" ?>
<!DOCTYPE svg PUBLIC "-//W3C//DTD SVG 1.1//EN" "http://www.w3.org/Graphics/SVG/1.1/DTD/svg11.dtd">
<svg xmlns="http://www.w3.org/2000/svg" xmlns:xlink="http://www.w3.org/1999/xlink" version="1.1" width="1080" height="1080" viewBox="0 0 1080 1080" xml:space="preserve">
<desc>Created with Fabric.js 5.2.4</desc>
<defs>
</defs>
<g transform="matrix(1 0 0 1 540 540)" id="9fb22535-e9f3-42d9-8f26-41baf083e793"  >
<rect style="stroke: none; stroke-width: 1; stroke-dasharray: none; stroke-linecap: butt; stroke-dashoffset: 0; stroke-linejoin: miter; stroke-miterlimit: 4; fill: rgb(255,255,255); fill-rule: nonzero; opacity: 1; visibility: hidden;" vector-effect="non-scaling-stroke"  x="-540" y="-540" rx="0" ry="0" width="1080" height="1080" />
</g>
<g transform="matrix(1 0 0 1 540 540)" id="08976637-b29e-46da-a093-49d8ad848e9b"  >
</g>
<g transform="matrix(8.44 0 0 8.44 540 540)"  >
<path style="stroke: none; stroke-width: 1; stroke-dasharray: none; stroke-linecap: butt; stroke-dashoffset: 0; stroke-linejoin: miter; stroke-miterlimit: 4; fill: rgb(51,103,145); fill-rule: evenodd; opacity: 1;"  transform=" translate(-64.17, -63.94)" d="M 123.258 76.784 C 122.80799999999999 73.866 120.357 71.95500000000001 117.506 71.82600000000001 C 116.474 71.77900000000001 115.426 71.88700000000001 114.397 72.018 C 113.15400000000001 72.176 111.926 72.456 110.686 72.641 C 109.82900000000001 72.769 108.96000000000001 72.828 108.10400000000001 72.91600000000001 L 108.08300000000001 72.805 C 109.68100000000001 69.787 111.34600000000002 66.802 112.85800000000002 63.74100000000001 C 114.01700000000002 61.39300000000001 115.00900000000001 58.96000000000001 116.03400000000002 56.547000000000004 C 117.73000000000002 52.54900000000001 119.08500000000002 48.42700000000001 120.20700000000002 44.23800000000001 C 121.28200000000002 40.227000000000004 122.20200000000003 36.172000000000004 122.49100000000003 32.01100000000001 C 122.60700000000003 30.34900000000001 122.68700000000003 28.68000000000001 122.67800000000003 27.01600000000001 C 122.67000000000003 25.689000000000007 122.52700000000003 24.36000000000001 122.39400000000002 23.03700000000001 C 122.24400000000001 21.521000000000008 121.78600000000002 20.08400000000001 121.15200000000002 18.701000000000008 C 120.31600000000002 16.87900000000001 119.02000000000001 15.384000000000007 117.65600000000002 13.964000000000008 C 116.56400000000002 12.827000000000007 115.36300000000001 11.791000000000007 114.17200000000003 10.756000000000007 C 112.47400000000003 9.279000000000007 110.56500000000003 8.100000000000007 108.58200000000002 7.053000000000008 C 106.33566567789899 5.8593272672009595 103.95571857185328 4.936216612528789 101.49200000000002 4.303000000000008 C 99.99900000000002 3.9220000000000077 98.47200000000002 3.639000000000008 96.96000000000002 3.3370000000000077 C 96.41600000000003 3.227000000000008 95.87100000000002 3.0000000000000075 95.32700000000003 3.0000000000000075 L 85.086 3.0000000000000075 C 84.716 3.0000000000000075 84.349 3.1910000000000074 83.976 3.2330000000000076 C 81.524 3.5060000000000078 79.101 3.9680000000000075 76.748 4.697000000000008 C 75.86800000000001 4.970000000000008 75.06400000000001 4.798000000000008 74.22800000000001 4.721000000000008 C 73.587 4.662000000000008 72.95700000000001 4.490000000000008 72.316 4.458000000000008 C 69.874 4.336000000000008 67.429 4.157000000000008 64.988 4.183000000000008 C 62.649 4.207000000000008 60.334 4.592000000000008 58.07 5.235000000000008 C 56.175 5.773000000000009 54.321 6.430000000000009 52.623 7.426000000000008 C 51.896 7.852000000000008 51.32 7.772000000000008 50.568 7.555000000000009 C 48.041 6.8260000000000085 45.495999999999995 6.141000000000009 42.928999999999995 5.566000000000009 C 41.32899999999999 5.208000000000009 39.684 5.030000000000008 38.05 4.859000000000009 C 36.48205510953794 4.696045448889443 34.90804533185339 4.597961753544111 33.331999999999944 4.565000000000005 C 31.793999999999993 4.532000000000009 30.244999999999994 4.533000000000009 28.71399999999999 4.669000000000009 C 26.275443526205592 4.880996840348318 23.87176297194518 5.389067345880032 21.55599999999998 6.182000000000015 C 18.99127454934955 7.057724819597019 16.594857084323003 8.364830874116855 14.46999999999997 10.047000000000018 C 12.30299999999999 11.76200000000001 10.56499999999999 13.856000000000009 9.166999999999991 16.24700000000001 C 7.693999999999991 18.77000000000001 6.68399999999999 21.47100000000001 6.05599999999999 24.30800000000001 C 5.71599999999999 25.84500000000001 5.500999999999991 27.42500000000001 5.26799999999999 28.98600000000001 C 5.19499999999999 29.472000000000012 5.99999999999999 29.958000000000013 4.99999999999999 30.44200000000001 L 4.99999999999999 37.23600000000001 C 5.99999999999999 37.68800000000001 5.20799999999999 38.13900000000001 5.26599999999999 38.59200000000001 C 5.4049999999999905 39.68100000000001 5.52799999999999 40.77900000000001 5.71199999999999 41.860000000000014 C 6.00299999999999 43.57100000000001 6.34799999999999 45.277000000000015 6.69999999999999 46.97700000000001 C 7.188767680031589 49.35303110515747 7.7041333393499905 51.72351312547621 8.24600000000004 54.08799999999999 C 8.64199999999999 55.80800000000001 9.09299999999999 57.51800000000001 9.56499999999999 59.21900000000001 C 10.28599999999999 61.81700000000001 10.995999999999992 64.42 11.810999999999991 66.989 C 12.56799999999999 69.376 13.434999999999992 71.729 14.294999999999991 74.08200000000001 C 15.485999999999992 77.337 16.911999999999992 80.48700000000001 18.621999999999993 83.506 C 20.100999999999992 86.12 21.790999999999993 88.568 24.057999999999993 90.582 C 25.551999999999992 91.90899999999999 27.214999999999993 92.92899999999999 29.150999999999993 93.439 C 30.671999999999993 93.839 32.21799999999999 93.88699999999999 33.77499999999999 93.568 C 35.548933212005885 93.20714767441324 37.20611411750427 92.41325358805197 38.59899999999999 91.257 C 38.761999999999986 91.123 38.94099999999999 91.021 39.133999999999986 91.26700000000001 C 39.868999999999986 92.19800000000001 40.85299999999999 92.81900000000002 41.881999999999984 93.35600000000001 C 44.658999999999985 94.804 47.68499999999998 95.23800000000001 50.758999999999986 95.415 C 51.502999999999986 95.45800000000001 52.25499999999999 95.35100000000001 53.00499999999999 95.33000000000001 C 54.46599999999999 95.29 55.88599999999999 95.00500000000001 57.28299999999999 94.60100000000001 C 58.014999999999986 94.38900000000001 58.72999999999999 94.12000000000002 59.47499999999999 93.86900000000001 C 59.51399999999999 94.66200000000002 59.563999999999986 95.42600000000002 59.58699999999999 96.19000000000001 L 59.69099999999999 100.35600000000001 C 59.70999999999999 100.99000000000001 59.734999999999985 101.626 59.79399999999999 102.257 C 59.94499999999999 103.884 60.09299999999999 105.512 60.28699999999999 107.134 C 60.42199999999999 108.252 60.56199999999999 109.379 60.82499999999999 110.47 C 61.35224955495436 112.67243340982385 62.074430688939195 114.82358277463129 62.983 116.89800000000001 C 63.85280387312415 118.91151610765753 65.18969537635456 120.68889622156772 66.883 122.083 C 69.103 123.919 71.705 124.702 74.515 124.847 C 75.677 124.908 76.872 124.851 78.016 124.643 C 79.83425420529333 124.31983343142711 81.63278917465017 123.89415455896935 83.40300000000003 123.368 C 86.994 122.28399999999999 90.09800000000001 120.41199999999999 92.417 117.387 C 93.737 115.663 94.821 113.798 95.517 111.739 C 96.091 110.03800000000001 96.63199999999999 108.32000000000001 97.062 106.57900000000001 C 97.402 105.20700000000001 97.57 103.792 97.777 102.391 C 97.914 101.464 97.996 100.528 98.08200000000001 99.59400000000001 C 98.22200000000001 98.07700000000001 98.36500000000001 96.561 98.46600000000001 95.04100000000001 C 98.536 93.983 98.533 92.92000000000002 98.575 91.86000000000001 C 98.58800000000001 91.53700000000002 98.64 91.21600000000001 98.67 90.89400000000002 C 98.69800000000001 90.59600000000002 98.848 90.49300000000002 99.152 90.49800000000002 C 100.223 90.51400000000002 101.296 90.54200000000002 102.364 90.49400000000001 C 103.561 90.44000000000001 104.769 90.38900000000001 105.947 90.19100000000002 C 107.6255430403426 89.91060906195302 109.29057151888217 89.55457992636148 110.93700000000003 89.12400000000001 C 112.88 88.61600000000003 114.66199999999999 87.70600000000002 116.377 86.66900000000003 C 118.375 85.46200000000003 120.196 84.04600000000002 121.67399999999999 82.22200000000002 C 122.95899999999999 80.63100000000003 123.568 78.79200000000002 123.258 76.78400000000002 z M 119.84599999999999 77.766 C 119.77999999999999 78.68100000000001 119.36099999999999 79.465 118.75299999999999 80.135 C 115.88399999999999 83.298 112.28499999999998 85.217 108.16799999999998 86.162 C 106.60399999999998 86.52000000000001 104.98999999999998 86.706 103.38899999999998 86.854 C 102.02115388419519 86.97431057510849 100.6469963452788 87.00671049763521 99.27499999999998 86.951 C 98.26899999999998 86.913 97.27099999999997 86.68299999999999 96.24299999999998 86.535 C 96.13999999999999 87.475 96.04199999999999 88.454 95.92299999999999 89.431 L 95.44399999999999 93.176 C 95.29899999999999 94.363 95.18599999999999 95.554 95.03699999999999 96.74000000000001 C 94.89099999999999 97.891 94.70899999999999 99.03800000000001 94.556 100.18900000000001 C 94.413 101.26100000000001 94.30799999999999 102.33800000000001 94.149 103.408 C 93.904 105.048 93.67 106.69200000000001 93.35 108.319 C 92.966 110.264 92.377 112.148 91.416 113.902 C 90.244 116.043 88.582 117.674 86.467 118.882 C 84.28699999999999 120.128 81.904 120.77600000000001 79.488 121.31800000000001 C 77.778 121.70200000000001 76.016 121.76500000000001 74.284 121.60900000000001 C 71.28 121.337 68.71600000000001 120.052 66.778 117.72300000000001 C 64.92800000000001 115.50000000000001 63.67600000000001 112.95200000000001 63.22800000000001 110.06800000000001 C 63.018866137423416 108.69511180973876 62.85511029240711 107.31569393807395 62.737 105.93200000000002 C 62.60435364903449 104.39431183012854 62.504664112028884 102.85395844897148 62.43800000000002 101.312 C 62.34936143196605 99.35583831875813 62.283690240360144 97.39870346638104 62.24100000000001 95.44100000000003 C 62.18800000000001 93.03500000000001 62.17100000000001 90.62900000000002 62.13700000000001 88.22300000000001 L 62.13100000000001 88.13100000000001 C 60.90700000000001 88.86500000000001 59.70400000000001 89.66900000000001 58.428000000000004 90.33100000000002 C 56.93683094658143 91.1023591049938 55.304472898879915 91.56267182665702 53.63 91.68400000000001 C 52.312000000000005 91.784 50.977000000000004 91.87500000000001 49.665000000000006 91.77000000000001 C 47.51400000000001 91.59700000000001 45.36500000000001 91.26 43.43900000000001 90.20100000000001 C 42.65800000000001 89.771 41.843 89.248 41.30500000000001 88.561 C 40.01500000000001 86.915 40.63300000000001 84.83500000000001 42.57800000000001 83.834 C 43.92200000000001 83.141 45.38900000000001 82.852 46.84600000000001 82.515 C 48.114140253454664 82.22728081012036 49.36901843500432 81.88394934274078 50.60700000000001 81.48599999999999 C 51.829000000000015 81.086 52.600000000000016 80.095 53.36100000000001 79.123 L 54.567000000000014 77.572 C 54.064000000000014 77.519 53.59000000000002 77.465 53.116000000000014 77.421 C 51.677000000000014 77.28500000000001 50.304000000000016 76.88900000000001 48.991000000000014 76.307 C 47.86700000000001 75.81 47.850000000000016 75.756 47.02600000000001 76.65 C 45.65000000000001 78.144 44.31200000000001 79.673 42.96400000000001 81.19200000000001 C 41.972000000000016 82.30900000000001 40.98600000000001 83.433 39.99900000000001 84.55300000000001 C 39.02100000000001 85.66100000000002 38.10500000000001 86.83200000000001 37.05200000000001 87.86300000000001 C 35.48800000000001 89.39400000000002 33.60300000000001 90.31500000000001 31.354000000000006 90.21100000000001 C 29.911000000000005 90.14500000000001 28.590000000000007 89.63900000000001 27.402000000000008 88.81200000000001 C 24.95000000000001 87.10400000000001 23.29800000000001 84.71500000000002 21.794000000000008 82.20600000000002 C 19.867000000000008 78.99100000000001 18.38800000000001 75.56600000000002 17.122000000000007 72.04700000000001 C 16.246000000000006 69.61500000000001 15.366000000000007 67.18100000000001 14.601000000000006 64.71400000000001 C 13.770000000000007 62.033000000000015 13.041000000000006 59.31800000000001 12.324000000000005 56.60400000000001 C 11.78842534096071 54.553522238087965 11.294324557093733 52.492435162604934 10.842000000000034 50.422000000000004 C 10.314567660417687 48.0706603725466 9.826499403757806 45.710663658820415 9.377999999999979 43.34299999999999 C 9.080000000000005 41.744000000000014 8.907000000000005 40.122000000000014 8.666000000000006 38.51200000000001 C 8.341000000000006 36.342000000000006 8.281000000000006 34.15200000000001 8.399000000000006 31.973000000000006 C 8.504000000000007 30.010000000000005 8.786000000000007 28.052000000000007 9.066000000000006 26.102000000000004 C 9.454000000000006 23.404000000000003 10.343000000000005 20.858000000000004 11.622000000000007 18.454000000000004 C 12.405000000000006 16.981000000000005 13.377000000000006 15.642000000000005 14.501000000000007 14.398000000000003 C 16.346000000000007 12.356000000000003 18.579000000000008 10.880000000000003 21.063000000000006 9.772000000000002 C 22.799000000000007 8.998000000000001 24.633000000000006 8.532000000000002 26.502000000000006 8.168000000000003 C 29.276000000000007 7.628000000000003 32.075 7.649000000000003 34.87500000000001 7.7070000000000025 C 36.099000000000004 7.732000000000003 37.318000000000005 7.955000000000003 38.541000000000004 8.076000000000002 C 41.17400000000001 8.338000000000003 43.755 8.892000000000003 46.303000000000004 9.576000000000002 C 48.160000000000004 10.074000000000002 49.979000000000006 10.719000000000003 51.821000000000005 11.279000000000002 C 52.00600000000001 11.335 52.27700000000001 11.330000000000002 52.428000000000004 11.231000000000002 C 54.92400000000001 9.602000000000002 57.652 8.527000000000001 60.553000000000004 7.912000000000002 C 61.654 7.679000000000002 62.790000000000006 7.577000000000002 63.916000000000004 7.505000000000002 C 65.28500000000001 7.418000000000002 66.665 7.338000000000002 68.031 7.417000000000002 C 69.673 7.511000000000002 71.307 7.753000000000002 72.93900000000001 7.977000000000002 C 73.73100000000001 8.085000000000003 74.504 8.360000000000003 75.298 8.435000000000002 C 75.678 8.471000000000002 76.081 8.193000000000001 76.483 8.100000000000001 C 78.53200000000001 7.627000000000002 80.572 7.100000000000001 82.63900000000001 6.726000000000001 C 84.17800000000001 6.448 85.75000000000001 6.317000000000001 87.31500000000001 6.227000000000001 C 89.06000000000002 6.127000000000002 90.81800000000001 6.054000000000001 92.56200000000001 6.138000000000001 C 94.77036349901334 6.24736170385507 96.96430527773512 6.556287449356245 99.11700000000002 7.061000000000003 C 101.79400000000003 7.684000000000001 104.36200000000002 8.589 106.80300000000003 9.845 C 108.62700000000002 10.783000000000001 110.36100000000002 11.871 111.92200000000003 13.209 C 112.94500000000002 14.087 113.99200000000002 14.954 114.91600000000003 15.931999999999999 C 116.05600000000003 17.137999999999998 117.21900000000002 18.345 117.93400000000003 19.89 C 118.47200000000002 21.055 118.85600000000002 22.261 118.96200000000003 23.537 C 119.09400000000004 25.122999999999998 119.25400000000003 26.715 119.23900000000003 28.302999999999997 C 119.22500000000004 29.821999999999996 119.01800000000003 31.339999999999996 118.87100000000004 32.855 C 118.53700000000003 36.309 117.78600000000004 39.687999999999995 116.87400000000004 43.022 C 116.11109099416231 45.776045109178966 115.24751149725746 48.501207136878016 114.28500000000005 51.192 C 113.40600000000003 53.673 112.39200000000004 56.109 111.36700000000003 58.535 C 110.61247941805046 60.33199243304777 109.79259997024036 62.10083731170399 108.90900000000003 63.837999999999994 C 107.23200000000003 67.124 105.48800000000003 70.37599999999999 103.47100000000003 73.47099999999999 C 103.12300000000003 74.00599999999999 102.79300000000003 74.55399999999999 102.45300000000003 75.1 C 103.33300000000003 75.69399999999999 104.33000000000003 75.90299999999999 105.33400000000003 76.011 C 106.28900000000003 76.115 107.26300000000003 76.17699999999999 108.21700000000003 76.106 C 109.74400000000003 75.993 111.26600000000003 75.77499999999999 112.78400000000002 75.562 C 114.28800000000003 75.352 115.76200000000001 74.92399999999999 117.30600000000003 75.03699999999999 C 118.84800000000003 75.14899999999999 119.95100000000002 76.321 119.84600000000003 77.76599999999999 z M 97.83299999999998 74.41300000000001 C 97.17799999999998 73.56700000000001 96.50999999999999 72.73100000000001 95.86899999999999 71.87500000000001 C 94.86299999999999 70.53100000000002 94.13999999999999 69.03000000000002 93.41399999999999 67.52200000000002 C 92.72599999999998 66.09300000000002 91.88199999999999 64.74000000000002 91.15699999999998 63.32700000000002 C 89.89199999999998 60.86200000000002 88.60399999999998 58.40500000000002 87.43899999999998 55.89200000000002 C 85.97399999999998 52.735000000000014 84.81899999999997 49.466000000000015 84.45499999999998 45.969000000000015 C 84.30099999999999 44.48900000000002 84.26199999999999 43.01100000000002 84.56099999999998 41.545000000000016 C 85.03999999999998 39.204000000000015 86.26299999999998 37.37300000000002 88.31899999999997 36.11700000000002 C 90.22599999999997 34.95200000000002 92.35099999999997 34.57600000000002 94.52799999999998 34.45800000000002 C 95.87899999999998 34.38500000000002 97.23599999999998 34.44500000000002 98.63799999999998 34.44500000000002 L 98.59099999999998 34.20800000000002 C 97.71899999999998 32.38500000000002 96.90399999999998 30.53100000000002 95.94999999999997 28.75100000000002 C 94.60399999999997 26.23900000000002 92.88199999999998 23.974000000000018 90.96399999999997 21.87400000000002 C 89.54299999999996 20.31900000000002 88.00399999999998 18.87600000000002 86.31799999999997 17.60100000000002 C 84.65999999999997 16.34600000000002 82.91299999999997 15.225000000000021 81.04899999999996 14.308000000000021 C 78.82599999999996 13.215000000000021 76.51099999999997 12.37000000000002 74.08199999999997 11.83100000000002 C 71.74799999999996 11.31300000000002 69.39899999999997 10.99600000000002 67.00499999999997 10.97000000000002 C 64.96299999999997 10.94800000000002 62.93399999999997 11.04000000000002 60.944999999999965 11.50100000000002 C 57.94299999999996 12.196000000000021 55.19699999999997 13.43200000000002 52.807999999999964 15.43400000000002 C 51.48626144354993 16.54248724837349 50.30514870830524 17.808564874723356 49.290999999999954 19.20400000000003 C 48.09499999999996 20.847000000000023 47.12999999999996 22.621000000000024 46.304999999999964 24.481000000000023 C 45.172999999999966 27.033000000000023 44.395999999999965 29.68900000000002 43.86499999999997 32.419000000000025 C 43.59899999999997 33.78000000000002 43.39099999999997 35.15300000000003 43.17899999999997 36.52500000000003 C 43.10499999999997 37.005000000000024 43.09899999999997 37.49600000000002 43.05599999999997 38.04600000000003 C 43.42499999999997 37.85400000000003 43.69099999999997 37.706000000000024 43.962999999999965 37.57400000000003 L 44.84799999999996 37.17700000000003 C 47.840999999999966 35.80800000000003 50.941999999999965 34.92700000000003 54.27499999999996 35.02800000000003 C 55.69099999999996 35.071000000000026 57.045999999999964 35.35100000000003 58.304999999999964 35.971000000000025 C 60.71999999999996 37.16200000000003 62.13299999999997 39.187000000000026 62.746999999999964 41.75000000000003 C 63.170999999999964 43.51900000000003 63.46099999999996 45.32300000000003 63.74299999999997 47.12200000000003 C 63.96399999999996 48.52700000000003 64.18999999999997 49.94700000000003 64.21599999999997 51.364000000000026 C 64.25299999999997 53.435000000000024 64.14799999999997 55.510000000000026 64.03499999999997 57.58000000000003 C 63.93796904401958 59.34016651804427 63.5738053294516 61.075339180235794 62.95499999999997 62.72600000000003 C 61.83499999999997 65.71900000000002 60.58699999999997 68.66300000000003 59.42099999999997 71.63900000000002 C 59.03599999999997 72.62200000000003 58.739999999999974 73.64000000000003 58.37599999999997 74.72100000000002 C 58.93799999999997 74.72100000000002 59.39399999999997 74.71700000000001 59.849999999999966 74.72300000000001 C 60.02799999999996 74.72600000000001 60.209999999999965 74.73100000000001 60.38199999999996 74.77200000000002 C 61.721999999999966 75.08800000000002 62.883999999999965 75.69500000000002 63.83699999999996 76.72600000000001 C 65.10799999999996 78.09800000000001 65.77499999999996 79.69900000000001 65.80899999999995 81.552 C 65.82799999999996 82.57900000000001 65.71999999999996 83.60900000000001 65.72499999999995 84.63600000000001 C 65.74599999999995 89.42200000000001 65.78199999999995 94.20800000000001 65.82199999999995 98.99300000000001 C 65.82899999999995 99.775 65.86799999999995 100.558 65.92399999999995 101.33900000000001 C 66.04099999999995 102.97400000000002 66.15899999999995 104.61000000000001 66.31899999999995 106.24100000000001 C 66.43099999999994 107.39800000000001 66.58699999999995 108.55300000000001 66.76999999999994 109.70200000000001 C 67.02899999999994 111.33000000000001 67.76999999999994 112.77900000000001 68.61099999999993 114.16400000000002 C 69.33499999999994 115.35500000000002 70.27599999999994 116.36700000000002 71.51599999999993 117.06500000000001 C 73.62299999999993 118.251 75.89199999999994 118.35000000000001 78.17899999999993 117.91300000000001 C 79.72399999999993 117.61800000000001 81.24099999999993 117.144 82.74099999999993 116.65500000000002 C 84.21609317871273 116.18175547502845 85.56296753954669 115.37643613405736 86.67799999999993 114.30100000000002 C 87.72899999999993 113.28200000000001 88.47499999999992 112.04000000000002 88.97799999999992 110.66900000000001 C 89.95399999999992 108.01 90.25799999999992 105.21000000000001 90.66199999999992 102.43200000000002 C 90.81299999999992 101.39200000000001 90.94399999999992 100.34900000000002 91.08199999999992 99.30700000000002 C 91.23899999999992 98.12100000000001 91.39799999999993 96.93600000000002 91.54999999999993 95.75100000000002 C 91.66199999999992 94.86800000000002 91.76399999999992 93.98300000000002 91.87199999999993 93.10000000000002 C 92.02599999999993 91.83200000000002 92.18899999999992 90.56500000000003 92.33599999999993 89.29600000000002 C 92.44899999999993 88.31500000000003 92.54499999999993 87.33000000000003 92.64499999999992 86.34700000000002 C 92.77399999999993 85.09100000000002 92.91299999999993 83.83500000000002 93.02399999999993 82.57700000000003 C 93.10999999999993 81.62200000000003 93.07499999999993 80.65000000000002 93.24399999999993 79.71300000000002 C 93.55499999999994 77.99500000000002 94.36699999999993 76.53300000000002 95.88999999999993 75.58800000000002 C 96.52699999999993 75.19300000000003 97.24599999999992 74.93300000000002 97.95299999999993 74.59900000000002 L 97.83299999999993 74.41300000000001 z M 40.23599999999998 67.36100000000002 C 39.476481773870496 65.57490076175503 39.018921394712024 63.675045184481085 38.88199999999998 61.73900000000002 C 38.753999999999984 59.914000000000016 38.97099999999998 58.09600000000002 39.15799999999999 56.27900000000002 C 39.33999999999999 54.51900000000002 39.490999999999985 52.75100000000002 39.54399999999999 50.98300000000002 C 39.63199999999999 48.07700000000002 39.43599999999999 45.17500000000002 39.29699999999999 42.271000000000015 C 39.21299999999999 40.542000000000016 39.41399999999999 38.792000000000016 39.56799999999999 37.05900000000001 C 39.706999999999994 35.49800000000001 39.87999999999999 33.933000000000014 40.17499999999999 32.39500000000001 C 40.66999999999999 29.81400000000001 41.32699999999999 27.27000000000001 42.26099999999999 24.80400000000001 C 43.14799999999999 22.466000000000008 44.16699999999999 20.189000000000007 45.60599999999999 18.13900000000001 C 46.591999999999985 16.73300000000001 47.710999999999984 15.41900000000001 48.78599999999999 14.045000000000009 L 48.466999999999985 13.93200000000001 C 44.96899999999999 12.821000000000009 41.41399999999999 11.95300000000001 37.75799999999998 11.574000000000009 C 36.02899999999998 11.395000000000008 34.29399999999998 11.290000000000008 32.55999999999998 11.187000000000008 C 32.02799999999998 11.155000000000008 31.487999999999982 11.227000000000007 30.95399999999998 11.278000000000008 C 29.63199999999998 11.404000000000007 28.29399999999998 11.454000000000008 26.99299999999998 11.702000000000007 C 24.778999999999982 12.123000000000006 22.65499999999998 12.831000000000007 20.68799999999998 13.984000000000007 C 18.921999999999983 15.019000000000007 17.438999999999982 16.357000000000006 16.19699999999998 17.962000000000007 C 14.824999999999982 19.734000000000005 13.901999999999981 21.738000000000007 13.238999999999981 23.875000000000007 C 12.455999999999982 26.396000000000008 12.08299999999998 28.99000000000001 11.981999999999982 31.608000000000008 C 11.893999999999982 33.903000000000006 11.849999999999982 36.211000000000006 12.245999999999981 38.49700000000001 C 12.54099999999998 40.199000000000005 12.737999999999982 41.919000000000004 13.062999999999981 43.614000000000004 C 13.50599999999998 45.925000000000004 13.98099999999998 48.231 14.529999999999982 50.518 C 15.314999999999982 53.792 16.098999999999982 57.071 17.028999999999982 60.305 C 17.918999999999983 63.403999999999996 18.92299999999998 66.475 20.01099999999998 69.509 C 20.900999999999982 71.985 21.929999999999982 74.415 23.01399999999998 76.813 C 23.71999999999998 78.375 24.57499999999998 79.878 25.470999999999982 81.34100000000001 C 26.42399999999998 82.894 27.50799999999998 84.36800000000001 28.97899999999998 85.495 C 30.834999999999983 86.918 32.271999999999984 87.13900000000001 34.15799999999998 85.578 C 34.96599999999998 84.909 35.64899999999998 84.083 36.35199999999998 83.296 C 37.46899999999998 82.046 38.54699999999998 80.762 39.658999999999985 79.50800000000001 C 41.07499999999998 77.91000000000001 42.508999999999986 76.32900000000001 43.93199999999999 74.739 C 44.23299999999999 74.403 44.52199999999999 74.057 44.81499999999999 73.717 L 44.33099999999999 73.292 C 42.5735656530635 71.61686815828293 41.17965609274186 69.59799694893796 40.23599999999999 67.361 z M 93.92399999999998 19.792000000000016 C 95.0874713093005 21.144661031576394 96.19151610817133 22.54732175519468 97.23299999999998 23.995999999999988 C 99.23299999999998 26.805000000000017 100.83099999999997 29.838000000000015 102.00799999999998 33.08300000000001 C 102.52899999999998 34.51300000000001 102.94499999999998 35.957000000000015 102.75899999999999 37.52200000000001 C 102.62999999999998 38.61800000000001 102.64099999999999 39.73000000000001 102.54399999999998 40.832000000000015 C 102.46299999999998 41.74900000000002 102.31799999999998 42.661000000000016 102.19899999999998 43.57500000000002 C 102.02099999999999 44.95300000000002 101.76299999999998 46.32700000000002 101.68599999999998 47.71100000000002 C 101.61299999999999 49.02800000000002 101.68899999999998 50.35900000000002 101.77199999999998 51.679000000000016 C 101.85599999999998 53.02000000000002 102.03699999999998 54.35500000000002 102.15999999999998 55.69400000000002 C 102.29899999999998 57.21200000000002 102.48599999999998 58.73000000000002 102.52899999999998 60.25100000000002 C 102.56399999999998 61.50000000000002 102.45299999999999 62.75700000000002 102.34399999999998 64.00400000000002 C 102.21399999999998 65.50600000000001 101.83299999999998 66.96000000000002 101.26499999999999 68.35500000000002 C 100.86599999999999 69.33700000000002 100.38899999999998 70.28900000000002 99.93799999999999 71.27200000000002 L 100.11899999999999 71.46400000000001 L 100.39399999999999 71.677 L 100.67099999999999 71.18100000000001 C 103.01019082011885 67.49961535364888 105.08925519496049 63.659260667044045 106.89299999999999 59.68799999999998 C 108.0471122481711 57.12446158669048 109.1430595112423 54.535131971536615 110.18000000000002 51.92199999999996 C 111.80399999999999 47.85800000000001 113.089 43.68000000000001 114.083 39.41900000000001 C 114.529 37.506000000000014 114.87 35.564000000000014 115.173 33.622000000000014 C 115.409 32.10400000000001 115.60600000000001 30.568000000000016 115.65 29.036000000000016 C 115.697 27.411000000000016 115.607 25.773000000000017 115.45700000000001 24.152000000000015 C 115.34500000000001 22.928000000000015 115.043 21.696000000000016 114.27600000000001 20.701000000000015 C 113.043 19.099000000000014 111.71200000000002 17.567000000000014 110.07500000000002 16.355000000000015 C 108.69700000000002 15.334000000000014 107.32400000000001 14.287000000000015 105.84500000000001 13.428000000000015 C 103.50000000000001 12.068000000000016 100.96200000000002 11.162000000000015 98.31000000000002 10.545000000000016 C 95.72200000000002 9.942000000000016 93.10000000000002 9.682000000000016 90.46100000000001 9.627000000000017 C 88.90500000000002 9.594000000000017 87.34200000000001 9.761000000000017 85.78900000000002 9.907000000000016 C 84.38200000000002 10.039000000000016 82.98400000000001 10.264000000000015 81.56700000000002 10.450000000000015 C 83.08700000000002 11.305000000000016 84.58600000000003 12.065000000000015 86.00000000000003 12.961000000000016 C 88.97300000000003 14.844000000000015 91.63700000000003 17.110000000000017 93.92400000000004 19.792000000000016 z M 55.299 72.514 C 56.26 69.441 57.569 66.50699999999999 58.836999999999996 63.55499999999999 C 59.864999999999995 61.160999999999994 60.427 58.638999999999996 60.614 56.04899999999999 C 60.707 54.77199999999999 60.681 53.47899999999999 60.617999999999995 52.19799999999999 C 60.55547563374739 50.77288428746828 60.424658778160925 49.35158584883877 60.225999999999985 47.93899999999996 C 59.959999999999994 46.13799999999999 59.65699999999999 44.33599999999999 59.230999999999995 42.56799999999999 C 58.76899999999999 40.654999999999994 57.60399999999999 39.32299999999999 55.608 38.831999999999994 C 54.391999999999996 38.532999999999994 53.184 38.544999999999995 51.955 38.73899999999999 C 48.952999999999996 39.21199999999999 46.205 40.31799999999999 43.644999999999996 41.93799999999999 C 43.129999999999995 42.26399999999999 42.846999999999994 42.52699999999999 42.93599999999999 43.26599999999999 C 43.123999999999995 44.83099999999999 43.16499999999999 46.42099999999999 43.157999999999994 48.00099999999999 C 43.147999999999996 50.23699999999999 43.053 52.47299999999999 42.967999999999996 54.70799999999999 C 42.94 55.43599999999999 42.834999999999994 56.15999999999999 42.757 56.88499999999999 C 42.637 57.99499999999999 42.406 59.10399999999999 42.413 60.21199999999999 C 42.419999999999995 61.35399999999999 42.537 62.52299999999999 42.814 63.62899999999999 C 43.694 67.136 45.558 70.00599999999999 48.613 72.03099999999999 C 50.492 73.276 52.571 73.904 54.853 74.023 C 55.008 73.499 55.146 73.00399999999999 55.299 72.514 z M 51.713 42.42699999999999 C 51.311 41.58299999999999 51.541000000000004 40.88399999999999 52.473 40.559999999999995 C 52.699999999999996 40.48 52.934 40.394999999999996 53.17 40.37199999999999 C 53.494 40.339999999999996 53.824000000000005 40.36399999999999 54.152 40.36399999999999 C 55.334 40.36999999999999 56.471000000000004 40.53499999999999 57.447 41.28699999999999 C 58.073 41.76899999999999 58.241 42.40899999999999 57.836000000000006 43.06599999999999 C 57.261 43.99799999999999 56.38400000000001 44.46599999999999 55.307 44.55599999999999 C 53.61 44.69699999999999 52.419000000000004 43.90599999999999 51.713 42.42699999999999 z M 98.753 42.11899999999999 C 98.889 40.99499999999999 98.998 39.867999999999995 99.137 38.74399999999999 C 99.193 38.291999999999994 98.955 38.169999999999995 98.576 38.15899999999999 C 97.384 38.12599999999999 96.192 38.08399999999999 95 38.06199999999999 C 93.656 38.03799999999999 92.348 38.25399999999999 91.104 38.76499999999999 C 89.724 39.33299999999999 88.673 40.242999999999995 88.244 41.74499999999999 C 87.93013754756883 42.852648722815495 87.83068967010333 44.010045521987394 87.951 45.15499999999998 C 88.11805671119836 46.925493281573125 88.51922190764905 48.666005483441346 89.14399999999999 50.33099999999999 C 89.978 52.55199999999999 90.85099999999998 54.77199999999999 91.89399999999999 56.89999999999999 C 93.30699999999999 59.78099999999999 94.90599999999999 62.56999999999999 96.407 65.407 C 96.80799999999999 66.164 97.145 66.954 97.563 67.838 C 98.40576625889271 66.0805997395289 98.8662301957271 64.16444263154744 98.914 62.216 C 98.955 60.605999999999995 98.82600000000001 58.989 98.732 57.37799999999999 C 98.673 56.391999999999996 98.534 55.41199999999999 98.438 54.42799999999999 C 98.304 53.05699999999999 98.101 51.68699999999999 98.07000000000001 50.31299999999999 C 98.039 48.91599999999999 98.138 47.51099999999999 98.25800000000001 46.115999999999985 C 98.37100000000001 44.777999999999984 98.59200000000001 43.450999999999986 98.75300000000001 42.118999999999986 z M 96.064 41.03699999999999 C 95.621 42.25999999999999 94.67399999999999 42.94999999999999 93.446 43.15299999999999 C 92.301 43.340999999999994 91.298 42.91799999999999 90.55199999999999 42.00499999999999 C 90.02099999999999 41.35499999999999 90.22399999999999 40.58499999999999 91.02 40.14599999999999 C 91.934 39.639999999999986 92.939 39.511999999999986 94.124 39.43499999999999 C 94.446 39.493999999999986 94.931 39.542999999999985 95.392 39.67499999999999 C 96.06099999999999 39.86399999999999 96.30799999999999 40.36699999999999 96.064 41.03699999999999 z M 60.641999999999996 78.69699999999999 C 59.986999999999995 78.16199999999999 59.120999999999995 78.13099999999999 58.498 78.71799999999999 C 57.724999999999994 79.448 57.044999999999995 80.28299999999999 56.364999999999995 81.106 C 55.58 82.05699999999999 54.843999999999994 83.04599999999999 53.830999999999996 83.783 C 52.357 84.854 50.638999999999996 85.298 48.912 85.718 C 47.539 86.052 46.16 86.36200000000001 44.783 86.683 L 44.766 86.861 C 45.175 87.05 45.571 87.286 45.997 87.421 C 48.097 88.08600000000001 50.233 88.417 52.452 88.22900000000001 C 54.053999999999995 88.09300000000002 55.58 87.74400000000001 57.025999999999996 87.058 C 59.016 86.11500000000001 60.547 84.62100000000001 61.849 82.88300000000001 C 62.067 82.593 62.166 82.16400000000002 62.192 81.79 C 62.281 80.46900000000001 61.61 79.48700000000001 60.642 78.697 z M 112.393 79.22299999999998 C 110.703 79.40399999999998 109.011 79.59599999999999 107.316 79.69299999999998 C 106.498 79.73999999999998 105.668 79.58399999999999 104.842 79.51699999999998 C 103.457 79.40499999999999 102.105 79.09699999999998 100.934 78.35699999999999 C 100.256 77.92999999999998 99.693 77.88199999999999 98.973 78.12399999999998 C 97.945 78.46999999999998 97.106 78.99599999999998 96.858 80.10999999999999 C 96.68900000000001 80.86299999999999 96.628 81.64299999999999 96.56 82.41399999999999 C 96.547 82.54999999999998 96.717 82.79999999999998 96.84700000000001 82.83399999999999 C 97.64000000000001 83.04299999999999 98.43700000000001 83.28999999999999 99.248 83.36299999999999 C 100.244 83.45299999999999 101.25800000000001 83.42399999999999 102.26100000000001 83.37399999999998 C 103.34400000000001 83.31999999999998 104.43400000000001 83.24999999999999 105.501 83.06999999999998 C 108.016 82.64799999999998 110.44900000000001 81.95999999999998 112.61 80.53399999999998 C 113.389 80.01899999999998 114.161 79.49299999999998 114.935 78.97199999999998 L 114.87100000000001 78.86199999999998 C 114.04500000000002 78.98499999999999 113.22300000000001 79.13499999999998 112.39300000000001 79.22299999999998 z" stroke-linecap="round" />
</g>
</svg>