<?xml version="1.0" encoding="UTF-8" standalone="no" ?>
<!DOCTYPE svg PUBLIC "-//W3C//DTD SVG 1.1//EN" "http://www.w3.org/Graphics/SVG/1.1/DTD/svg11.dtd">
<svg xmlns="http://www.w3.org/2000/svg" xmlns:xlink="http://www.w3.org/1999/xlink" version="1.1" width="1080" height="1080" viewBox="0 0 1080 1080" xml:space="preserve">
<desc>Created with Fabric.js 5.2.4</desc>
<defs>
</defs>
<rect x="0" y="0" width="100%" height="100%" fill="transparent"></rect>
<g transform="matrix(1 0 0 1 540 540)" id="249e61eb-6838-4da3-a194-32cb4888c2a6"  >
<rect style="stroke: none; stroke-width: 1; stroke-dasharray: none; stroke-linecap: butt; stroke-dashoffset: 0; stroke-linejoin: miter; stroke-miterlimit: 4; fill: rgb(255,255,255); fill-rule: nonzero; opacity: 1; visibility: hidden;" vector-effect="non-scaling-stroke"  x="-540" y="-540" rx="0" ry="0" width="1080" height="1080" />
</g>
<g transform="matrix(1 0 0 1 540 540)" id="9e0ba643-89c6-41ee-a9c3-7efe330b3e6e"  >
</g>
<g transform="matrix(8.44 0 0 8.44 540.15 540.16)"  >
<path style="stroke: none; stroke-width: 1; stroke-dasharray: none; stroke-linecap: butt; stroke-dashoffset: 0; stroke-linejoin: miter; stroke-miterlimit: 4; fill: rgb(240,81,63); fill-rule: nonzero; opacity: 0;"  transform=" translate(-64, -64)" d="M 27.271 0.11 C 27.071 0.188 21.451 3.3899999999999997 14.784 7.222 C 6.706000000000001 11.866 2.5570000000000004 14.312000000000001 2.335000000000001 14.542000000000002 C 2.145000000000001 14.767000000000001 1.9950000000000008 15.024000000000001 1.897000000000001 15.302000000000001 C 1.7300000000000009 15.866000000000001 1.7180000000000009 98.287 1.887000000000001 98.88000000000001 C 1.9480000000000008 99.11000000000001 2.147000000000001 99.44800000000001 2.327000000000001 99.63400000000001 C 2.763000000000001 100.09400000000001 50.991 127.82400000000001 51.577 127.95800000000001 C 51.849 128.02300000000002 52.153999999999996 128.012 52.457 127.92800000000001 C 53.115 127.763 101.217 100.09400000000001 101.64500000000001 99.64200000000001 C 101.82000000000001 99.44700000000002 102.02000000000001 99.11000000000001 102.08500000000001 98.88100000000001 C 102.16900000000001 98.60800000000002 102.2 94.30100000000002 102.2 85.22600000000001 L 102.2 71.96600000000001 L 113.926 65.23100000000001 C 124.982 58.87400000000001 125.659 58.476000000000006 125.943 58.040000000000006 L 126.233 57.57000000000001 L 126.233 43.287 C 126.233 27.738999999999997 126.263 28.613999999999997 125.64800000000001 28.052 C 125.483 27.906 119.85000000000001 24.619 113.11800000000001 20.742 L 100.89 13.71 L 99.531 13.71 L 87.56800000000001 20.580000000000002 C 80.98200000000001 24.368000000000002 75.38400000000001 27.607000000000003 75.11100000000002 27.783 C 74.83900000000001 27.963 74.51400000000002 28.295 74.38100000000001 28.536 L 74.13900000000001 28.953000000000003 L 74.08500000000001 42.408 L 74.037 55.868 L 64.158 61.558 C 58.724000000000004 64.682 54.201 67.268 54.105000000000004 67.292 C 53.93000000000001 67.34100000000001 53.918000000000006 66.06 53.918000000000006 41.326 L 53.918000000000006 15.293 L 53.65800000000001 14.846 C 53.33200000000001 14.301 54.79400000000001 15.17 40.114000000000004 6.731999999999999 C 27.803 -0.348 28.098 -0.2 27.27 0.11 z M 38.588 10.417 C 43.738 13.372 47.952 15.817 47.952 15.847 C 47.952 15.878 43.436 18.488 37.917 21.66 L 27.876 27.425 L 17.853 21.661 C 12.346000000000002 18.488 7.833000000000002 15.878 7.833000000000002 15.847000000000001 C 7.833000000000002 15.817000000000002 12.338000000000001 13.207 17.846000000000004 10.042000000000002 L 27.845000000000006 4.290000000000002 L 28.535000000000007 4.666000000000002 C 31.892000000000007 6.573000000000002 35.24300000000001 8.490000000000002 38.58800000000001 10.417000000000002 z M 110.256 23.677999999999997 C 115.678 26.799999999999997 120.164 29.379999999999995 120.206 29.421999999999997 C 120.32000000000001 29.525 100.432 40.956999999999994 100.16 40.94499999999999 C 99.88799999999999 40.93699999999999 80.245 29.609999999999992 80.253 29.471999999999994 C 80.263 29.314999999999994 100.026 17.944999999999993 100.226 17.975999999999992 C 100.317 17.99799999999999 104.833 20.565999999999992 110.256 23.67799999999999 z M 16.3 25.328 L 25.858 30.831 L 25.913 58.078 L 25.963 85.33 L 26.196 85.698 C 26.318 85.892 26.548000000000002 86.157 26.716 86.279 C 26.874000000000002 86.39399999999999 32.193 89.425 38.534 93.003 L 50.054 99.509 L 50.054 111.036 C 50.054 117.362 50.011 122.552 49.957 122.552 C 49.916000000000004 122.552 39.957 116.85300000000001 27.833000000000002 109.876 L 5.793 97.201 L 5.763 58.23499999999999 L 5.744 19.28099999999999 L 6.234 19.551999999999992 C 6.517 19.70199999999999 11.041 22.299999999999994 16.299 25.32699999999999 z M 50.054 44.507999999999996 L 50.054 69.61699999999999 L 49.667 69.86999999999999 C 49.142 70.20199999999998 30 81.20499999999998 29.935000000000002 81.20499999999998 C 29.905 81.20499999999998 29.881000000000004 69.86899999999999 29.881000000000004 56.011999999999986 L 29.893000000000004 30.829999999999988 L 39.893 25.07799999999999 C 45.392 21.91299999999999 49.927 19.344999999999988 49.981 19.36399999999999 C 50.02 19.38799999999999 50.054 30.70399999999999 50.054 44.50799999999999 z M 88.20400000000001 38.733 L 98.227 44.495999999999995 L 98.227 55.92 C 98.227 66.758 98.21600000000001 67.34 98.051 67.277 C 97.944 67.236 93.409 64.637 87.968 61.503 L 78.058 55.813 L 78.058 44.393 C 78.058 38.106 78.09 32.969 78.12 32.969 C 78.16300000000001 32.969 82.697 35.561 88.20400000000001 38.733000000000004 z M 122.36800000000001 44.31999999999999 C 122.36800000000001 50.57399999999999 122.32600000000001 55.73199999999999 122.284 55.782 C 122.212 55.897 102.388 67.32 102.262 67.32 C 102.231 67.32 102.2 62.184999999999995 102.2 55.89699999999999 L 102.2 44.47699999999999 L 112.2 38.72099999999999 C 117.70700000000001 35.56099999999999 122.242 32.96899999999999 122.284 32.96899999999999 C 122.337 32.96899999999999 122.36800000000001 38.073999999999984 122.36800000000001 44.319999999999986 z M 95.993 70.933 L 52.005 96.04 L 32.056 84.693 C 32.056 84.693 76 59.277 76.176 59.343 z M 98.208 85.76 L 98.17399999999999 97.202 L 76.14599999999999 109.878 C 64.02599999999998 116.854 54.063999999999986 122.553 54.01399999999998 122.553 C 53.960999999999984 122.553 53.91899999999998 117.895 53.91899999999998 111.03699999999999 L 53.91899999999998 99.51 L 75.99899999999998 86.918 C 88.13099999999999 79.995 98.09999999999998 74.328 98.15299999999998 74.316 C 98.19599999999998 74.316 98.21499999999997 79.464 98.20699999999998 85.759 z" stroke-linecap="round" />
</g>
<g transform="matrix(8.44 0 0 8.44 540 540)"  >
<g style=""   >
		<g transform="matrix(1 0 0 1 -13.29 -13.49)"  >
<linearGradient id="SVGID_python-original-a_20" gradientUnits="userSpaceOnUse" gradientTransform="matrix(0.56 0 0 -0.57 -29.21 707.82)"  x1="70.252" y1="1237.476" x2="170.659" y2="1151.089">
<stop offset="0%" style="stop-color:rgb(90,159,212);stop-opacity: 1"/>
<stop offset="100%" style="stop-color:rgb(48,105,152);stop-opacity: 1"/>
</linearGradient>
<path style="stroke: none; stroke-width: 1; stroke-dasharray: none; stroke-linecap: butt; stroke-dashoffset: 0; stroke-linejoin: miter; stroke-miterlimit: 4; fill: url(#SVGID_python-original-a_20); fill-rule: nonzero; opacity: 1;" vector-effect="non-scaling-stroke"  transform=" translate(-50.71, -40.25)" d="M 63.391 1.988 C 59.169 2.008 55.138999999999996 2.367 51.590999999999994 2.995 C 41.14099999999999 4.841 39.24499999999999 8.705 39.24499999999999 15.832 L 39.24499999999999 25.243000000000002 L 63.93799999999999 25.243000000000002 L 63.93799999999999 28.380000000000003 L 29.977 28.380000000000003 C 22.801000000000002 28.380000000000003 16.517 32.693000000000005 14.551 40.901 C 12.283000000000001 50.306000000000004 12.183 56.176 14.551 65.997 C 16.306 73.30799999999999 20.498 78.516 27.675 78.516 L 36.166 78.516 L 36.166 67.234 C 36.166 59.083 43.217 51.89399999999999 51.592 51.89399999999999 L 76.257 51.89399999999999 C 83.123 51.89399999999999 88.60300000000001 46.239999999999995 88.60300000000001 39.34599999999999 L 88.60300000000001 15.833 C 88.60300000000001 9.14 82.95700000000001 4.1129999999999995 76.257 2.9960000000000004 C 72.013 2.2900000000000005 67.61200000000001 1.9690000000000005 63.391000000000005 1.9880000000000004 z M 50.037 9.557 C 52.586999999999996 9.557 54.671 11.674 54.671 14.278 C 54.671 16.871000000000002 52.588 18.968 50.037 18.968 C 47.477 18.968 45.403999999999996 16.871 45.403999999999996 14.277999999999999 C 45.403 11.674 47.477 9.556999999999999 50.037 9.556999999999999 z" stroke-linecap="round" />
</g>
		<g transform="matrix(1 0 0 1 13.22 13.2)"  >
<linearGradient id="SVGID_python-original-b_21" gradientUnits="userSpaceOnUse" gradientTransform="matrix(0.56 0 0 -0.57 -29.21 707.82)"  x1="209.474" y1="1098.811" x2="173.62" y2="1149.537">
<stop offset="0%" style="stop-color:rgb(255,212,59);stop-opacity: 1"/>
<stop offset="100%" style="stop-color:rgb(255,232,115);stop-opacity: 1"/>
</linearGradient>
<path style="stroke: none; stroke-width: 1; stroke-dasharray: none; stroke-linecap: butt; stroke-dashoffset: 0; stroke-linejoin: miter; stroke-miterlimit: 4; fill: url(#SVGID_python-original-b_21); fill-rule: nonzero; opacity: 1;" vector-effect="non-scaling-stroke"  transform=" translate(-77.22, -66.94)" d="M 91.682 28.38 L 91.682 39.346 C 91.682 47.846 84.474 55.001 76.256 55.001 L 51.591 55.001 C 44.835 55.001 39.245000000000005 60.784 39.245000000000005 67.55 L 39.245000000000005 91.065 C 39.245000000000005 97.756 45.063 101.693 51.59100000000001 103.612 C 59.40700000000001 105.90899999999999 66.903 106.32499999999999 76.256 103.612 C 82.472 101.81099999999999 88.602 98.189 88.602 91.065 L 88.602 81.65299999999999 L 63.938 81.65299999999999 L 63.938 78.51499999999999 L 100.95 78.51499999999999 C 108.126 78.51499999999999 110.802 73.50999999999999 113.298 65.99599999999998 C 115.876 58.26099999999998 115.765 50.82199999999998 113.298 40.89999999999998 C 111.524 33.75499999999998 108.137 28.378999999999976 100.95 28.378999999999976 L 91.682 28.378999999999976 z M 77.809 87.927 C 80.37 87.927 82.443 90.024 82.443 92.619 C 82.443 95.221 80.369 97.338 77.809 97.338 C 75.259 97.338 73.176 95.22099999999999 73.176 92.619 C 73.176 90.024 75.259 87.92699999999999 77.809 87.92699999999999 z" stroke-linecap="round" />
</g>
		<g transform="matrix(1 0 0 1 0.22 55.6)"  >
<radialGradient id="SVGID_python-original-c_22" gradientUnits="userSpaceOnUse" gradientTransform="matrix(0 -0.24 -1.05 0 532.98 557.58)"  cx="1825.678" cy="444.45" r="26.743" fx="1825.678" fy="444.45">
<stop offset="0%" style="stop-color:rgb(184,184,184);stop-opacity: 0.498"/>
<stop offset="100%" style="stop-color:rgb(127,127,127);stop-opacity: 0"/>
</radialGradient>
<path style="stroke: none; stroke-width: 1; stroke-dasharray: none; stroke-linecap: butt; stroke-dashoffset: 0; stroke-linejoin: miter; stroke-miterlimit: 4; fill: url(#SVGID_python-original-c_22); fill-rule: nonzero; opacity: 0.444;" vector-effect="non-scaling-stroke"  transform=" translate(-64.22, -119.6)" d="M 97.309 119.597 C 97.309 123.14 82.493 126.01299999999999 64.21799999999999 126.01299999999999 C 45.94199999999999 126.01299999999999 31.12599999999999 123.13999999999999 31.12599999999999 119.597 C 31.12599999999999 116.053 45.94099999999999 113.17999999999999 64.21799999999999 113.17999999999999 C 82.493 113.17999999999999 97.309 116.05199999999999 97.309 119.597 z" stroke-linecap="round" />
</g>
</g>
</g>
</svg>