<?xml version="1.0" encoding="UTF-8" standalone="no" ?>
<!DOCTYPE svg PUBLIC "-//W3C//DTD SVG 1.1//EN" "http://www.w3.org/Graphics/SVG/1.1/DTD/svg11.dtd">
<svg xmlns="http://www.w3.org/2000/svg" xmlns:xlink="http://www.w3.org/1999/xlink" version="1.1" width="1080" height="1080" viewBox="0 0 1080 1080" xml:space="preserve">
<desc>Created with Fabric.js 5.2.4</desc>
<defs>
</defs>
<g transform="matrix(1 0 0 1 540 540)" id="9dc44aa1-1be5-45ea-8aa7-0ea451a964f0"  >
<rect style="stroke: none; stroke-width: 1; stroke-dasharray: none; stroke-linecap: butt; stroke-dashoffset: 0; stroke-linejoin: miter; stroke-miterlimit: 4; fill: rgb(255,255,255); fill-rule: nonzero; opacity: 1; visibility: hidden;" vector-effect="non-scaling-stroke"  x="-540" y="-540" rx="0" ry="0" width="1080" height="1080" />
</g>
<g transform="matrix(1 0 0 1 540 540)" id="98aeecfb-54bc-42c7-9407-2d2a42d0a9e5"  >
</g>
<g transform="matrix(8.44 0 0 8.44 540 540)"  >
<g style=""   >
		<g transform="matrix(1 0 0 1 -0.01 0.06)"  >
<path style="stroke: none; stroke-width: 1; stroke-dasharray: none; stroke-linecap: butt; stroke-dashoffset: 0; stroke-linejoin: miter; stroke-miterlimit: 4; fill: rgb(238,76,44); fill-rule: nonzero; opacity: 1;" vector-effect="non-scaling-stroke"  transform=" translate(-63.99, -64.06)" d="M 100.1 38.3 L 90.89999999999999 47.5 C 105.99999999999999 62.6 105.99999999999999 86.9 90.89999999999999 101.8 C 75.8 116.89999999999999 51.49999999999999 116.89999999999999 36.599999999999994 101.8 C 21.499999999999993 86.7 21.499999999999993 62.4 36.599999999999994 47.5 L 60.599999999999994 23.5 L 63.99999999999999 20.1 L 63.99999999999999 2 L 27.8 38.2 C 7.7 58.3 7.7 90.8 27.8 111 C 47.9 131.2 80.4 131.1 100.2 111 C 120.30000000000001 90.8 120.30000000000001 58.5 100.10000000000001 38.3 z" stroke-linecap="round" />
</g>
		<g transform="matrix(0.02 -1 1 0.02 18.07 -34.63)"  >
<circle style="stroke: none; stroke-width: 1; stroke-dasharray: none; stroke-linecap: butt; stroke-dashoffset: 0; stroke-linejoin: miter; stroke-miterlimit: 4; fill: rgb(238,76,44); fill-rule: nonzero; opacity: 1;" vector-effect="non-scaling-stroke"  cx="0" cy="0" r="6.7" />
</g>
</g>
</g>
</svg>