<?xml version="1.0" encoding="UTF-8" standalone="no" ?>
<!DOCTYPE svg PUBLIC "-//W3C//DTD SVG 1.1//EN" "http://www.w3.org/Graphics/SVG/1.1/DTD/svg11.dtd">
<svg xmlns="http://www.w3.org/2000/svg" xmlns:xlink="http://www.w3.org/1999/xlink" version="1.1" width="1080" height="1080" viewBox="0 0 1080 1080" xml:space="preserve">
<desc>Created with Fabric.js 5.2.4</desc>
<defs>
</defs>
<g transform="matrix(1 0 0 1 540 540)" id="e33185f8-5c35-4a75-9a16-3205b491e93f"  >
<rect style="stroke: none; stroke-width: 1; stroke-dasharray: none; stroke-linecap: butt; stroke-dashoffset: 0; stroke-linejoin: miter; stroke-miterlimit: 4; fill: rgb(255,255,255); fill-rule: nonzero; opacity: 1; visibility: hidden;" vector-effect="non-scaling-stroke"  x="-540" y="-540" rx="0" ry="0" width="1080" height="1080" />
</g>
<g transform="matrix(1 0 0 1 540 540)" id="bef02cbf-60a2-4aa9-af89-1e4dff1ac3b0"  >
</g>
<g transform="matrix(8.44 0 0 8.44 540 540)"  >
<g style=""   >
		<g transform="matrix(1 0 0 1 0 0)"  >
<circle style="stroke: none; stroke-width: 1; stroke-dasharray: none; stroke-linecap: butt; stroke-dashoffset: 0; stroke-linejoin: miter; stroke-miterlimit: 4; fill: rgb(97,218,251); fill-rule: nonzero; opacity: 1;" vector-effect="non-scaling-stroke"  cx="0" cy="0" r="11.4" />
</g>
		<g transform="matrix(1 0 0 1 0 0)"  >
<path style="stroke: none; stroke-width: 1; stroke-dasharray: none; stroke-linecap: butt; stroke-dashoffset: 0; stroke-linejoin: miter; stroke-miterlimit: 4; fill: rgb(97,218,251); fill-rule: nonzero; opacity: 1;" vector-effect="non-scaling-stroke"  transform=" translate(-64, -64)" d="M 107.3 45.2 C 105.1 44.400000000000006 102.8 43.6 100.39999999999999 42.900000000000006 C 100.99999999999999 40.50000000000001 101.49999999999999 38.10000000000001 101.89999999999999 35.800000000000004 C 103.99999999999999 22.600000000000005 101.69999999999999 13.300000000000004 95.3 9.700000000000003 C 93.39999999999999 8.600000000000003 91.3 8.100000000000003 88.89999999999999 8.100000000000003 C 81.89999999999999 8.100000000000003 72.99999999999999 13.300000000000004 63.99999999999999 22.000000000000004 C 54.99999999999999 13.300000000000004 46.099999999999994 8.100000000000003 39.099999999999994 8.100000000000003 C 36.699999999999996 8.100000000000003 34.599999999999994 8.600000000000003 32.699999999999996 9.700000000000003 C 26.299999999999997 13.400000000000002 23.999999999999996 22.700000000000003 26.099999999999994 35.800000000000004 C 26.499999999999993 38.1 26.999999999999993 40.50000000000001 27.599999999999994 42.900000000000006 C 25.199999999999996 43.60000000000001 22.899999999999995 44.300000000000004 20.699999999999996 45.2 C 8.2 50 1.4 56.6 1.4 64 C 1.4 71.4 8.3 78 20.7 82.8 C 22.9 83.6 25.2 84.39999999999999 27.6 85.1 C 27 87.5 26.5 89.89999999999999 26.1 92.19999999999999 C 24 105.39999999999999 26.3 114.69999999999999 32.7 118.29999999999998 C 34.6 119.39999999999998 36.7 119.89999999999998 39.1 119.89999999999998 C 46.2 119.89999999999998 55.1 114.69999999999997 64 105.99999999999997 C 73 114.69999999999997 81.9 119.89999999999998 88.9 119.89999999999998 C 91.30000000000001 119.89999999999998 93.4 119.39999999999998 95.30000000000001 118.29999999999998 C 101.70000000000002 114.59999999999998 104.00000000000001 105.29999999999998 101.9 92.19999999999999 C 101.5 89.89999999999999 101 87.49999999999999 100.4 85.1 C 102.80000000000001 84.39999999999999 105.10000000000001 83.69999999999999 107.30000000000001 82.8 C 119.80000000000001 78 126.60000000000001 71.39999999999999 126.60000000000001 64 C 126.60000000000001 56.60000000000001 119.80000000000001 50 107.30000000000001 45.2 z M 92.5 14.7 C 96.6 17.099999999999998 98 24.5 96.3 35 C 96 37.1 95.5 39.3 94.89999999999999 41.6 C 89.69999999999999 40.4 84.19999999999999 39.6 78.39999999999999 39.1 C 74.99999999999999 34.300000000000004 71.49999999999999 30 67.99999999999999 26.1 C 75.39999999999999 18.8 82.89999999999999 13.8 88.99999999999999 13.8 C 90.29999999999998 13.8 91.49999999999999 14.100000000000001 92.49999999999999 14.700000000000001 z M 81.3 74 C 79.5 77.2 77.39999999999999 80.4 75.2 83.6 C 71.5 83.89999999999999 67.8 84 64 84 C 60.1 84 56.4 83.9 52.8 83.6 C 50.599999999999994 80.39999999999999 48.599999999999994 77.19999999999999 46.8 74 C 44.9 70.7 43.099999999999994 67.3 41.5 64 C 43.1 60.7 44.9 57.3 46.8 54 C 48.599999999999994 50.8 50.699999999999996 47.6 52.9 44.4 C 56.6 44.1 60.3 44 64.1 44 C 68 44 71.69999999999999 44.1 75.3 44.4 C 77.5 47.6 79.5 50.8 81.3 54 C 83.2 57.3 85 60.7 86.6 64 C 84.89999999999999 67.3 83.19999999999999 70.6 81.3 74 z M 89.6 70.7 C 91.1 74.2 92.3 77.60000000000001 93.39999999999999 81 C 89.99999999999999 81.8 86.39999999999999 82.4 82.6 82.9 C 83.8 81 85.1 79 86.19999999999999 76.9 C 87.39999999999999 74.80000000000001 88.49999999999999 72.7 89.6 70.7 z M 64 97.8 C 61.6 95.2 59.3 92.39999999999999 57.1 89.5 C 59.4 89.6 61.7 89.7 64 89.7 C 66.3 89.7 68.6 89.60000000000001 70.9 89.5 C 68.7 92.4 66.4 95.2 64 97.8 z M 45.4 82.8 C 41.6 82.3 38 81.7 34.599999999999994 80.89999999999999 C 35.699999999999996 77.6 36.89999999999999 74.1 38.39999999999999 70.6 C 39.49999999999999 72.6 40.599999999999994 74.69999999999999 41.79999999999999 76.69999999999999 C 42.99999999999999 78.89999999999999 44.19999999999999 80.79999999999998 45.39999999999999 82.79999999999998 z M 38.4 57.3 C 36.9 53.8 35.699999999999996 50.4 34.6 47 C 38 46.2 41.6 45.6 45.400000000000006 45.1 C 44.2 47 42.900000000000006 49 41.800000000000004 51.1 C 40.6 53.2 39.50000000000001 55.300000000000004 38.400000000000006 57.300000000000004 z M 64 30.2 C 66.4 32.8 68.7 35.6 70.9 38.5 C 68.60000000000001 38.4 66.30000000000001 38.3 64 38.3 C 61.7 38.3 59.4 38.4 57.1 38.5 C 59.300000000000004 35.6 61.6 32.8 64 30.2 z M 86.2 51.2 L 82.60000000000001 45.2 C 86.4 45.7 90.00000000000001 46.300000000000004 93.4 47.1 C 92.30000000000001 50.4 91.10000000000001 53.9 89.60000000000001 57.400000000000006 C 88.50000000000001 55.300000000000004 87.4 53.2 86.2 51.2 z M 31.7 35 C 30 24.5 31.4 17.1 35.5 14.7 C 36.5 14.1 37.7 13.799999999999999 39 13.799999999999999 C 45 13.799999999999999 52.5 18.7 60 26.1 C 56.5 29.900000000000002 53 34.3 49.6 39.1 C 43.800000000000004 39.6 38.3 40.5 33.1 41.6 C 32.5 39.300000000000004 32.1 37.1 31.700000000000003 35 z M 7 64 C 7 59.3 12.7 54.3 22.7 50.6 C 24.7 49.800000000000004 26.9 49.1 29.1 48.5 C 30.700000000000003 53.5 32.7 58.8 35.1 64.1 C 32.7 69.39999999999999 30.6 74.6 29.1 79.6 C 15.3 75.6 7 69.6 7 64 z M 35.5 113.3 C 31.4 110.89999999999999 30 103.5 31.7 93 C 32 90.9 32.5 88.7 33.1 86.4 C 38.300000000000004 87.60000000000001 43.8 88.4 49.6 88.9 C 53 93.7 56.5 98 60 101.9 C 52.6 109.2 45.1 114.2 39 114.2 C 37.7 114.2 36.5 113.9 35.5 113.3 z M 96.3 93 C 98 103.5 96.6 110.9 92.5 113.3 C 91.5 113.89999999999999 90.3 114.2 89 114.2 C 83 114.2 75.5 109.3 68 101.9 C 71.5 98.10000000000001 75 93.7 78.4 88.9 C 84.2 88.4 89.7 87.5 94.9 86.4 C 95.5 88.7 95.9 90.9 96.30000000000001 93 z M 105.3 77.4 C 103.3 78.2 101.1 78.9 98.89999999999999 79.5 C 97.3 74.5 95.3 69.2 92.89999999999999 63.9 C 95.3 58.6 97.39999999999999 53.4 98.89999999999999 48.4 C 112.69999999999999 52.4 121 58.4 121 64 C 121 68.7 115.2 73.7 105.3 77.4 z" stroke-linecap="round" />
</g>
</g>
</g>
</svg>