<?xml version="1.0" encoding="UTF-8" standalone="no" ?>
<!DOCTYPE svg PUBLIC "-//W3C//DTD SVG 1.1//EN" "http://www.w3.org/Graphics/SVG/1.1/DTD/svg11.dtd">
<svg xmlns="http://www.w3.org/2000/svg" xmlns:xlink="http://www.w3.org/1999/xlink" version="1.1" width="1080" height="1080" viewBox="0 0 1080 1080" xml:space="preserve">
<desc>Created with Fabric.js 5.2.4</desc>
<defs>
</defs>
<g transform="matrix(1 0 0 1 540 540)" id="9c2c299d-bb04-4c8e-83c5-f41bc657b439"  >
</g>
<g transform="matrix(1 0 0 1 540 540)" id="08f63a41-cf65-4873-abd2-171abc9cca70"  >
<rect style="stroke: none; stroke-width: 1; stroke-dasharray: none; stroke-linecap: butt; stroke-dashoffset: 0; stroke-linejoin: miter; stroke-miterlimit: 4; fill: rgb(255,255,255); fill-rule: nonzero; opacity: 1;" vector-effect="non-scaling-stroke"  x="-540" y="-540" rx="0" ry="0" width="1080" height="1080" />
</g>
<g transform="matrix(8.44 0 0 8.44 540 540)"  >
<g style=""   >
		<g transform="matrix(1 0 0 1 19.1 20.69)"  >
<path style="stroke: none; stroke-width: 1; stroke-dasharray: none; stroke-linecap: butt; stroke-dashoffset: 0; stroke-linejoin: miter; stroke-miterlimit: 4; fill: rgb(207,10,44); fill-rule: nonzero; opacity: 1;" vector-effect="non-scaling-stroke"  transform=" translate(-83.1, -84.69)" d="M 83.1 80.5 C 78.39999999999999 80.4 74.3 83.9 73.8 88.6 C 73.8 88.8 73.89999999999999 88.89999999999999 74.1 88.89999999999999 L 92.1 88.89999999999999 C 92.3 88.89999999999999 92.39999999999999 88.8 92.39999999999999 88.6 C 91.99999999999999 83.8 87.89999999999999 80.19999999999999 83.1 80.5 z" stroke-linecap="round" />
</g>
		<g transform="matrix(1 0 0 1 0 -0.05)"  >
<path style="stroke: none; stroke-width: 1; stroke-dasharray: none; stroke-linecap: butt; stroke-dashoffset: 0; stroke-linejoin: miter; stroke-miterlimit: 4; fill: rgb(207,10,44); fill-rule: nonzero; opacity: 1;" vector-effect="non-scaling-stroke"  transform=" translate(-64, -63.95)" d="M 121.7 19.9 L 83.30000000000001 62.9 C 82.9 63.4 82.10000000000001 63.4 81.60000000000001 63 L 81.50000000000001 62.9 L 62.100000000000016 42.8 C 61.70000000000002 42.4 61.70000000000002 41.8 62.000000000000014 41.3 L 68.50000000000001 33 C 68.90000000000002 32.5 69.60000000000001 32.3 70.10000000000001 32.7 C 70.2 32.800000000000004 70.30000000000001 32.800000000000004 70.30000000000001 32.900000000000006 L 81.30000000000001 45.00000000000001 C 81.70000000000002 45.50000000000001 82.50000000000001 45.50000000000001 83.00000000000001 45.10000000000001 L 83.10000000000001 45.00000000000001 L 113.80000000000001 3.3000000000000043 C 114.10000000000001 2.9000000000000044 114.00000000000001 2.4000000000000044 113.60000000000001 2.100000000000004 C 113.50000000000001 2.000000000000004 113.30000000000001 2.000000000000004 113.10000000000001 1.9000000000000041 L 5.7 1.9000000000000041 C 5.2 2.000000000000004 4.8 2.400000000000004 4.8 2.900000000000004 L 4.8 125.10000000000001 C 4.8 125.60000000000001 5.2 126.00000000000001 5.7 126.00000000000001 L 122.3 126.00000000000001 C 122.8 126.00000000000001 123.2 125.60000000000001 123.2 125.10000000000001 L 123.2 20.5 C 123.2 20 122.8 19.7 122.4 19.7 C 122.10000000000001 19.599999999999998 121.9 19.7 121.7 19.9 z M 37.900000000000006 112.4 C 30.200000000000006 112.7 22.700000000000006 110.10000000000001 17.000000000000007 105 C 16.60000000000001 104.6 16.500000000000007 104 16.900000000000006 103.5 L 21.400000000000006 97.1 C 21.800000000000004 96.6 22.500000000000007 96.5 23.000000000000007 96.8 L 23.10000000000001 96.89999999999999 C 27.300000000000008 100.8 32.70000000000001 102.89999999999999 38.400000000000006 102.89999999999999 C 44.400000000000006 102.89999999999999 47.300000000000004 100.1 47.300000000000004 97.19999999999999 C 47.300000000000004 88.1 17.800000000000004 94.39999999999999 17.800000000000004 75.1 C 17.800000000000004 66.6 25.200000000000003 59.49999999999999 37.2 59.49999999999999 C 44.1 59.29999999999999 50.900000000000006 61.599999999999994 56.300000000000004 66 C 56.7 66.4 56.800000000000004 67.1 56.400000000000006 67.5 L 51.7 73.7 C 51.300000000000004 74.2 50.6 74.3 50.1 73.9 C 46.1 70.7 41.2 69 36.1 69.10000000000001 C 31.400000000000002 69.10000000000001 28.8 71.2 28.8 74.2 C 28.8 82.3 58.2 76.9 58.2 96 C 58.300000000000004 105.3 51.6 112.4 37.900000000000006 112.4 z M 102.2 94.60000000000001 C 102.2 95.2 101.7 95.60000000000001 101.2 95.60000000000001 L 74.3 95.60000000000001 C 74.1 95.60000000000001 74 95.7 74 95.9 C 74.9 101.10000000000001 79.6 104.7 84.9 104.4 C 88.30000000000001 104.30000000000001 91.5 103.30000000000001 94.2 101.30000000000001 C 94.60000000000001 101.00000000000001 95.3 101.00000000000001 95.60000000000001 101.50000000000001 L 95.7 101.60000000000001 L 99 106.4 C 99.3 106.80000000000001 99.2 107.4 98.8 107.80000000000001 C 94.5 111.00000000000001 89.2 112.60000000000001 83.89999999999999 112.4 C 72.3 112.4 63.599999999999994 104.60000000000001 63.599999999999994 92.4 C 63.3 81.7 71.69999999999999 72.80000000000001 82.39999999999999 72.5 L 83.3 72.5 C 94.6 72.5 102.4 81 102.4 93.4 L 102.2 94.60000000000001 z" stroke-linecap="round" />
</g>
</g>
</g>
</svg>